<svg xmlns="http://www.w3.org/2000/svg" xmlns:svg="http://www.w3.org/2000/svg" id="svg1" width="162.519" height="162.519" version="1.1" viewBox="0 0 162.519 162.519"><defs id="defs1"><clipPath id="clipPath35" clipPathUnits="userSpaceOnUse"><path id="path35" d="M -16323,-16323 V 16323 H 16323 V -16323 Z M 0.99628,7.08669 c -0.92543,-14.89385 -0.92543,-23.3743 0,-38.26818 0,-3.91391 5.711,-7.08668 12.75604,-7.08668 5.76425,0 11.0598,0.66536 13.76591,1.72955 2.70612,-1.06419 8.00167,-1.72955 13.76592,-1.72955 7.04505,0 12.75604,3.17277 12.75604,7.08668 0.92543,14.89388 0.92543,23.37433 0,38.26818 0,13.20941 -11.89792,23.91745 -26.57513,23.91745 -14.67722,0 -26.57514,-10.70804 -26.57514,-23.91745 z" clip-rule="evenodd"/></clipPath><clipPath id="clipPath141" clipPathUnits="userSpaceOnUse"><path id="path141" d="m 0,7.08669 c -0.92542,-14.89385 -0.92542,-23.3743 0,-38.26818 0,-3.91391 5.711,-7.08668 12.75604,-7.08668 5.76426,0 11.0598,0.66536 13.76592,1.72955 2.70611,-1.06419 8.00166,-1.72955 13.76591,-1.72955 7.04505,0 12.75604,3.17277 12.75604,7.08668 0.92544,14.89388 0.92544,23.37433 0,38.26818 z"/></clipPath></defs><g id="g1"><path id="path1" d="m 40.25058,-37.25049 c -1.07092,2.94229 -3.19122,4.87169 -4.73586,4.30949 -1.54464,-0.56219 -1.92866,-3.4031 -0.85774,-6.3454 1.07091,-2.9423 3.19121,-4.87171 4.73586,-4.3095 1.54463,0.5622 1.92865,3.4031 0.85774,6.34541 z" style="fill:#fcbb15;fill-opacity:1;fill-rule:nonzero;stroke:none" transform="matrix(1.3333333,0,0,-1.3333333,45.897333,72.565333)"/><path id="path2" d="m 42.3925,-36.16364 c -2.21405,2.21406 -4.95106,3.06661 -6.11339,1.9043 -1.16231,-1.16231 -0.30975,-3.89934 1.9043,-6.11339 2.21405,-2.21403 4.95107,-3.0666 6.11339,-1.90428 1.1623,1.16231 0.30975,3.89934 -1.9043,6.11337 z" style="fill:#fcbb15;fill-opacity:1;fill-rule:nonzero;stroke:none" transform="matrix(1.3333333,0,0,-1.3333333,45.897333,72.565333)"/><path id="path3" d="m 44.14108,-35.47104 c -2.9423,1.07091 -5.78322,0.68691 -6.34541,-0.85774 -0.5622,-1.54465 1.3672,-3.66495 4.30949,-4.73586 2.94231,-1.07092 5.78322,-0.6869 6.34542,0.85774 0.56221,1.54464 -1.36721,3.66494 -4.3095,4.73586 z" style="fill:#fcbb15;fill-opacity:1;fill-rule:nonzero;stroke:none" transform="matrix(1.3333333,0,0,-1.3333333,45.897333,72.565333)"/><path id="path4" d="m 10.93893,-41.06522 c 2.94231,1.07092 4.87171,3.19121 4.30951,4.73586 -0.56219,1.54465 -3.40312,1.92866 -6.34541,0.85774 -2.94229,-1.07092 -4.8717,-3.19122 -4.30951,-4.73585 0.56221,-1.54465 3.40312,-1.92867 6.34541,-0.85775 z" style="fill:#fcbb15;fill-opacity:1;fill-rule:nonzero;stroke:none" transform="matrix(1.3333333,0,0,-1.3333333,45.897333,72.565333)"/><path id="path5" d="m 14.86055,-40.3728 c 2.21405,2.21405 3.0666,4.95108 1.9043,6.11339 -1.16233,1.16231 -3.89934,0.30975 -6.11339,-1.9043 -2.21405,-2.21404 -3.06661,-4.95107 -1.9043,-6.11337 1.16232,-1.16232 3.89934,-0.30976 6.11339,1.90428 z" style="fill:#fcbb15;fill-opacity:1;fill-rule:nonzero;stroke:none" transform="matrix(1.3333333,0,0,-1.3333333,45.897333,72.565333)"/><path id="path6" d="m 18.38753,-39.2866 c 1.07092,2.9423 0.6869,5.78321 -0.85774,6.3454 -1.54464,0.5622 -3.66494,-1.3672 -4.73586,-4.30949 -1.07093,-2.94231 -0.6869,-5.78321 0.85774,-6.34541 1.54465,-0.56221 3.66493,1.3672 4.73586,4.3095 z" style="fill:#fcbb15;fill-opacity:1;fill-rule:nonzero;stroke:none" transform="matrix(1.3333333,0,0,-1.3333333,45.897333,72.565333)"/><path id="path7" d="m 32.9769,44.151 c 0,1.95696 -1.58638,3.54335 -3.54334,3.54335 -1.95695,0 -3.54333,-1.58639 -3.54333,-3.54335 0,-1.95694 1.58638,-3.54333 3.54333,-3.54333 1.95696,0 3.54334,1.58639 3.54334,3.54333 z" style="fill:#c99c86;fill-opacity:1;fill-rule:nonzero;stroke:none" transform="matrix(1.3333333,0,0,-1.3333333,45.897333,72.565333)"/><path id="path8" d="m 0,7.08669 c -0.92542,-14.89385 -0.92542,-23.3743 0,-38.26818 0,-3.91391 5.711,-7.08668 12.75604,-7.08668 5.76426,0 11.0598,0.66536 13.76592,1.72955 2.70611,-1.06419 8.00166,-1.72955 13.76591,-1.72955 7.04505,0 12.75604,3.17277 12.75604,7.08668 0.92544,14.89388 0.92544,23.37433 0,38.26818 z" style="fill:#030e1d;fill-opacity:1;fill-rule:nonzero;stroke:none" transform="matrix(1.3333333,0,0,-1.3333333,45.897333,72.565333)"/><path id="path9" d="m 26.52196,31.00414 c -14.67722,0 -26.57512,-10.70804 -26.57512,-23.91745 0,-13.2094 11.8979,-23.91744 26.57512,-23.91744 14.67721,0 26.57513,10.70804 26.57513,23.91744 0,13.20941 -11.89792,23.91745 -26.57513,23.91745" style="fill:#030e1d;fill-opacity:1;fill-rule:nonzero;stroke:none" transform="matrix(1.3333333,0,0,-1.3333333,45.897333,72.565333)"/><path id="path10" d="m 2.83466,-21.26012 c -0.16454,-3.31199 -0.16454,-5.19192 0,-8.50393 0,-3.13112 5.07644,-5.66935 11.33871,-5.66935 5.15175,0 9.89867,0.47536 12.3963,1.24134 2.41937,-0.80719 7.29953,-1.3156 12.62859,-1.3156 6.26228,0 11.33871,2.53822 11.33871,5.66934 0.16455,3.31202 0.16455,5.19194 0,8.50395 0,13.11165 -10.67955,23.74045 -23.85383,23.74045 -13.17427,0 -23.85382,-10.6288 -23.85382,-23.74045 z" style="fill:#f8f8f8;fill-opacity:1;fill-rule:nonzero;stroke:none" transform="matrix(1.3333333,0,0,-1.3333333,45.897333,72.565333)"/><path id="path11" d="m 33.60866,6.37802 c 0,9.78482 -6.66276,17.71675 -14.8819,17.71675 -8.21915,0 -14.8819,-7.93193 -14.8819,-17.71675 0,-9.78479 6.66275,-17.71673 14.8819,-17.71673 8.21914,0 14.8819,7.93194 14.8819,17.71673 z" style="fill:#f8f8f8;fill-opacity:1;fill-rule:nonzero;stroke:none" transform="matrix(1.3333333,0,0,-1.3333333,45.897333,72.565333)"/><path id="path12" d="m 49.19905,6.37802 c 0,9.78482 -6.66275,17.71675 -14.8819,17.71675 -8.21915,0 -14.88189,-7.93193 -14.88189,-17.71675 0,-9.78479 6.66274,-17.71673 14.88189,-17.71673 8.21915,0 14.8819,7.93194 14.8819,17.71673 z" style="fill:#f8f8f8;fill-opacity:1;fill-rule:nonzero;stroke:none" transform="matrix(1.3333333,0,0,-1.3333333,45.897333,72.565333)"/><path id="path13" d="M 39.93898,10.14812 C 40.43532,8.22002 39.33604,6.23817 37.48361,5.72154 35.6312,5.20493 33.72714,6.34915 33.2308,8.27724 c -0.43609,1.69404 0.3595,3.46991 1.88659,4.2111 1.47917,-1.47917 2.7377,-2.15791 4.82159,-2.34022 z" style="fill:#171313;fill-opacity:1;fill-rule:nonzero;stroke:none" transform="matrix(1.3333333,0,0,-1.3333333,45.897333,72.565333)"/><path id="path14" d="m 13.10493,10.14812 c -0.49633,-1.9281 0.60294,-3.90995 2.45537,-4.42658 1.85242,-0.51661 3.75647,0.62761 4.25281,2.5557 0.43609,1.69404 -0.3595,3.46991 -1.88658,4.2111 -1.47917,-1.47917 -2.7377,-2.15791 -4.8216,-2.34022 z" style="fill:#171313;fill-opacity:1;fill-rule:nonzero;stroke:none" transform="matrix(1.3333333,0,0,-1.3333333,45.897333,72.565333)"/><path id="path15" d="m 8.46448,-5.81622 17.77821,-8.84357 c 0.18359,-0.09132 0.48103,-0.09079 0.66429,0.0012 l 17.9565,9.01132 c 0.18326,0.09197 0.43608,0.03704 0.56465,-0.12271 4.28789,-5.32764 6.25464,-9.21579 8.00487,-15.82686 0.05246,-0.19824 0.10373,-0.52496 0.11444,-0.72973 0.2782,-5.30825 0.2782,-8.53299 0,-13.84124 -0.01071,-0.20477 -0.17874,-0.41824 -0.37528,-0.47677 -9.81623,-2.92348 -16.05545,-3.64435 -26.27956,-3.03427 -0.2047,0.0122 -0.53658,0.0122 -0.74128,0 -10.22412,-0.61008 -16.46333,0.11079 -26.27955,3.03427 -0.19654,0.05853 -0.36457,0.272 -0.37528,0.47677 -0.2782,5.30825 -0.2782,8.53299 0,13.84124 0.01071,0.20477 0.06247,0.53137 0.11556,0.72944 1.70118,6.34741 3.58351,10.04084 7.71939,15.14751 0.12904,0.15936 0.35723,0.39976 0.50966,0.53694 l 0.01496,0.01343 c 0.15242,0.13718 0.42482,0.17436 0.60842,0.08304 z" style="fill:#a35229;fill-opacity:1;fill-rule:nonzero;stroke:none" transform="matrix(1.3333333,0,0,-1.3333333,45.897333,72.565333)"/><path id="path16" d="m 27.70898,-17.6598 c 0,0.6262 -0.50763,1.13384 -1.13385,1.13384 -0.62622,0 -1.13385,-0.50764 -1.13385,-1.13384 0,-0.62623 0.50763,-1.13387 1.13385,-1.13387 0.62622,0 1.13385,0.50764 1.13385,1.13387 z" style="fill:#171313;fill-opacity:1;fill-rule:nonzero;stroke:none" transform="matrix(1.3333333,0,0,-1.3333333,45.897333,72.565333)"/><path id="path17" d="m 27.70898,-21.48663 c 0,0.6262 -0.50763,1.13385 -1.13385,1.13385 -0.62622,0 -1.13385,-0.50765 -1.13385,-1.13385 0,-0.62622 0.50763,-1.13385 1.13385,-1.13385 0.62622,0 1.13385,0.50763 1.13385,1.13385 z" style="fill:#171313;fill-opacity:1;fill-rule:nonzero;stroke:none" transform="matrix(1.3333333,0,0,-1.3333333,45.897333,72.565333)"/><path id="path18" d="m 27.70898,-25.31346 c 0,0.62622 -0.50763,1.13385 -1.13385,1.13385 -0.62622,0 -1.13385,-0.50763 -1.13385,-1.13385 0,-0.62622 0.50763,-1.13385 1.13385,-1.13385 0.62622,0 1.13385,0.50763 1.13385,1.13385 z" style="fill:#171313;fill-opacity:1;fill-rule:nonzero;stroke:none" transform="matrix(1.3333333,0,0,-1.3333333,45.897333,72.565333)"/><path id="path19" d="m 27.70898,-17.6598 c 0,0.6262 -0.50763,1.13384 -1.13385,1.13384 -0.62622,0 -1.13385,-0.50764 -1.13385,-1.13384 0,-0.62623 0.50763,-1.13387 1.13385,-1.13387 0.62622,0 1.13385,0.50764 1.13385,1.13387 z m 0.18425,0 c 0,0.72796 -0.59011,1.3181 -1.3181,1.3181 -0.72798,0 -1.3181,-0.59014 -1.3181,-1.3181 0,-0.72799 0.59012,-1.31812 1.3181,-1.31812 0.72799,0 1.3181,0.59013 1.3181,1.31812 z" style="fill:#7a675e;fill-opacity:1;fill-rule:evenodd;stroke:none" transform="matrix(1.3333333,0,0,-1.3333333,45.897333,72.565333)"/><path id="path20" d="m 27.70898,-21.48663 c 0,0.6262 -0.50763,1.13385 -1.13385,1.13385 -0.62622,0 -1.13385,-0.50765 -1.13385,-1.13385 0,-0.62622 0.50763,-1.13385 1.13385,-1.13385 0.62622,0 1.13385,0.50763 1.13385,1.13385 z m 0.18425,0 c 0,0.72798 -0.59011,1.3181 -1.3181,1.3181 -0.72798,0 -1.3181,-0.59012 -1.3181,-1.3181 0,-0.72798 0.59012,-1.3181 1.3181,-1.3181 0.72799,0 1.3181,0.59012 1.3181,1.3181 z" style="fill:#7a675e;fill-opacity:1;fill-rule:evenodd;stroke:none" transform="matrix(1.3333333,0,0,-1.3333333,45.897333,72.565333)"/><path id="path21" d="m 27.70898,-25.31346 c 0,0.62622 -0.50763,1.13385 -1.13385,1.13385 -0.62622,0 -1.13385,-0.50763 -1.13385,-1.13385 0,-0.62622 0.50763,-1.13385 1.13385,-1.13385 0.62622,0 1.13385,0.50763 1.13385,1.13385 z m 0.18425,0 c 0,0.72798 -0.59011,1.3181 -1.3181,1.3181 -0.72798,0 -1.3181,-0.59012 -1.3181,-1.3181 0,-0.72798 0.59012,-1.3181 1.3181,-1.3181 0.72799,0 1.3181,0.59012 1.3181,1.3181 z" style="fill:#7a675e;fill-opacity:1;fill-rule:evenodd;stroke:none" transform="matrix(1.3333333,0,0,-1.3333333,45.897333,72.565333)"/><path id="path22" d="m 27.46803,-17.6598 c 0,0.10174 -0.0825,0.18423 -0.18425,0.18423 -0.10174,0 -0.18425,-0.08249 -0.18425,-0.18423 0,-0.10175 0.08251,-0.18426 0.18425,-0.18426 0.10175,0 0.18425,0.08251 0.18425,0.18426 z" style="fill:#7a675e;fill-opacity:1;fill-rule:nonzero;stroke:none" transform="matrix(1.3333333,0,0,-1.3333333,45.897333,72.565333)"/><path id="path23" d="m 27.46803,-21.48663 c 0,0.10174 -0.0825,0.18425 -0.18425,0.18425 -0.10174,0 -0.18425,-0.08251 -0.18425,-0.18425 0,-0.10175 0.08251,-0.18425 0.18425,-0.18425 0.10175,0 0.18425,0.0825 0.18425,0.18425 z" style="fill:#7a675e;fill-opacity:1;fill-rule:nonzero;stroke:none" transform="matrix(1.3333333,0,0,-1.3333333,45.897333,72.565333)"/><path id="path24" d="m 27.46803,-25.31346 c 0,0.10174 -0.0825,0.18425 -0.18425,0.18425 -0.10174,0 -0.18425,-0.08251 -0.18425,-0.18425 0,-0.10174 0.08251,-0.18425 0.18425,-0.18425 0.10175,0 0.18425,0.08251 0.18425,0.18425 z" style="fill:#7a675e;fill-opacity:1;fill-rule:nonzero;stroke:none" transform="matrix(1.3333333,0,0,-1.3333333,45.897333,72.565333)"/><path id="path25" d="m 26.75938,-16.95116 c 0,0.10175 -0.0825,0.18426 -0.18425,0.18426 -0.10174,0 -0.18425,-0.08251 -0.18425,-0.18426 0,-0.10174 0.08251,-0.18424 0.18425,-0.18424 0.10175,0 0.18425,0.0825 0.18425,0.18424 z" style="fill:#7a675e;fill-opacity:1;fill-rule:nonzero;stroke:none" transform="matrix(1.3333333,0,0,-1.3333333,45.897333,72.565333)"/><path id="path26" d="m 26.75938,-20.77798 c 0,0.10174 -0.0825,0.18425 -0.18425,0.18425 -0.10174,0 -0.18425,-0.08251 -0.18425,-0.18425 0,-0.10175 0.08251,-0.18425 0.18425,-0.18425 0.10175,0 0.18425,0.0825 0.18425,0.18425 z" style="fill:#7a675e;fill-opacity:1;fill-rule:nonzero;stroke:none" transform="matrix(1.3333333,0,0,-1.3333333,45.897333,72.565333)"/><path id="path27" d="m 26.75938,-24.6048 c 0,0.10175 -0.0825,0.18424 -0.18425,0.18424 -0.10174,0 -0.18425,-0.08249 -0.18425,-0.18424 0,-0.10176 0.08251,-0.18425 0.18425,-0.18425 0.10175,0 0.18425,0.08249 0.18425,0.18425 z" style="fill:#7a675e;fill-opacity:1;fill-rule:nonzero;stroke:none" transform="matrix(1.3333333,0,0,-1.3333333,45.897333,72.565333)"/><path id="path28" d="m 26.05072,-17.6598 c 0,0.10174 -0.08249,0.18423 -0.18425,0.18423 -0.10175,0 -0.18423,-0.08249 -0.18423,-0.18423 0,-0.10175 0.08248,-0.18426 0.18423,-0.18426 0.10176,0 0.18425,0.08251 0.18425,0.18426 z" style="fill:#7a675e;fill-opacity:1;fill-rule:nonzero;stroke:none" transform="matrix(1.3333333,0,0,-1.3333333,45.897333,72.565333)"/><path id="path29" d="m 26.05072,-21.48663 c 0,0.10174 -0.08249,0.18425 -0.18425,0.18425 -0.10175,0 -0.18423,-0.08251 -0.18423,-0.18425 0,-0.10175 0.08248,-0.18425 0.18423,-0.18425 0.10176,0 0.18425,0.0825 0.18425,0.18425 z" style="fill:#7a675e;fill-opacity:1;fill-rule:nonzero;stroke:none" transform="matrix(1.3333333,0,0,-1.3333333,45.897333,72.565333)"/><path id="path30" d="m 26.05072,-25.31346 c 0,0.10174 -0.08249,0.18425 -0.18425,0.18425 -0.10175,0 -0.18423,-0.08251 -0.18423,-0.18425 0,-0.10174 0.08248,-0.18425 0.18423,-0.18425 0.10176,0 0.18425,0.08251 0.18425,0.18425 z" style="fill:#7a675e;fill-opacity:1;fill-rule:nonzero;stroke:none" transform="matrix(1.3333333,0,0,-1.3333333,45.897333,72.565333)"/><path id="path31" d="m 26.75938,-18.36847 c 0,0.10175 -0.0825,0.18425 -0.18425,0.18425 -0.10174,0 -0.18425,-0.0825 -0.18425,-0.18425 0,-0.10174 0.08251,-0.18425 0.18425,-0.18425 0.10175,0 0.18425,0.08251 0.18425,0.18425 z" style="fill:#7a675e;fill-opacity:1;fill-rule:nonzero;stroke:none" transform="matrix(1.3333333,0,0,-1.3333333,45.897333,72.565333)"/><path id="path32" d="m 26.75938,-22.1953 c 0,0.10175 -0.0825,0.18425 -0.18425,0.18425 -0.10174,0 -0.18425,-0.0825 -0.18425,-0.18425 0,-0.10174 0.08251,-0.18423 0.18425,-0.18423 0.10175,0 0.18425,0.08249 0.18425,0.18423 z" style="fill:#7a675e;fill-opacity:1;fill-rule:nonzero;stroke:none" transform="matrix(1.3333333,0,0,-1.3333333,45.897333,72.565333)"/><path id="path33" d="m 26.75938,-26.02211 c 0,0.10175 -0.0825,0.18425 -0.18425,0.18425 -0.10174,0 -0.18425,-0.0825 -0.18425,-0.18425 0,-0.10175 0.08251,-0.18425 0.18425,-0.18425 0.10175,0 0.18425,0.0825 0.18425,0.18425 z" style="fill:#7a675e;fill-opacity:1;fill-rule:nonzero;stroke:none" transform="matrix(1.3333333,0,0,-1.3333333,45.897333,72.565333)"/><path id="path34" d="M 5.3395,-12.76944 C 8.98628,0.84059 9.55197,12.51395 6.60303,13.3041 3.6541,14.09425 -1.69267,3.702 -5.33946,-9.90804 -8.98625,-23.51808 -9.55194,-35.19144 -6.603,-35.98158 c 2.94893,-0.79016 8.2957,9.60209 11.9425,23.21214 z" style="fill:#030e1d;fill-opacity:1;fill-rule:nonzero;stroke:none" clip-path="url(#clipPath35)" transform="matrix(1.3333333,0,0,-1.3333333,45.897333,72.565333)"/><path id="path36" d="m 21.136,-0.42519 c 0,-3.23915 2.41133,-6.09474 5.38596,-6.09474 2.97461,0 5.38595,2.85559 5.38595,6.09474 0,0.15654 -0.12314,0.31426 -0.27501,0.35221 l -0.01692,0.00424 c -0.15185,0.03796 -0.39999,0.09077 -0.55415,0.11794 -3.42226,0.60343 -5.65737,0.60343 -9.07962,0 -0.15416,-0.02717 -0.4023,-0.07998 -0.55416,-0.11793 L 21.41101,-0.073 C 21.25914,-0.11093 21.136,-0.26865 21.136,-0.42519 Z" style="fill:#fcbb15;fill-opacity:1;fill-rule:nonzero;stroke:none" transform="matrix(1.3333333,0,0,-1.3333333,45.897333,72.565333)"/><path id="path37" d="m 1.32,18.9463 c 4.80288,13.94829 14.53443,19.44068 26.27944,24.42621 1.01297,0.42995 2.57369,0.27967 3.48599,-0.33569 C 41.69827,35.87843 50.3358,29.05057 52.90468,14.4813 32.90619,17.29193 17.4487,31.10014 1.32,18.9463 Z" style="fill:#a35229;fill-opacity:1;fill-rule:nonzero;stroke:none" transform="matrix(1.3333333,0,0,-1.3333333,45.897333,72.565333)"/><path id="path38" d="m 1.32,14.6943 c 16.1287,12.15383 31.6962,-1.01498 51.58468,-4.52174 1.08002,1.28711 0.96372,2.93239 0,4.30874 C 33.2273,19.02406 17.23393,31.37964 1.32,18.9463 c -0.82905,-1.43597 -1.27016,-3.18617 0,-4.252 z" style="fill:#c99c86;fill-opacity:1;fill-rule:nonzero;stroke:none" transform="matrix(1.3333333,0,0,-1.3333333,45.897333,72.565333)"/><path id="path39" d="m -24.61227,-36.25984 1.75433,-11.34047 c 0.08409,-0.54373 0.59157,-0.90706 1.13342,-0.81154 l 37.12072,6.54521 c 0.54185,0.09554 0.89445,0.61052 0.78755,1.15024 l -2.23009,11.25656 c -0.1069,0.53972 -0.63286,0.8998 -1.17471,0.80428 l -36.56238,-6.44678 c -0.54186,-0.09552 -0.91294,-0.61376 -0.82884,-1.1575 z" style="fill:#919191;fill-opacity:1;fill-rule:nonzero;stroke:none" transform="matrix(1.3333333,0,0,-1.3333333,45.897333,72.565333)"/><path id="path40" d="m -24.93755,-34.29417 -3.09962,17.5792 c -0.09552,0.54186 0.2663,1.0586 0.80815,1.15413 l 36.56239,6.44678 c 0.54186,0.09552 1.05858,-0.2663 1.15412,-0.80815 l 3.09962,-17.57922 c 0.09552,-0.54186 -0.26629,-1.0586 -0.80815,-1.15412 l -36.56239,-6.44679 c -0.54186,-0.09552 -1.05858,0.2663 -1.15412,0.80817 z" style="fill:#989898;fill-opacity:1;fill-rule:nonzero;stroke:none" transform="matrix(1.3333333,0,0,-1.3333333,45.897333,72.565333)"/><path id="path41" d="m -23.36876,-35.02917 3e-5,-3e-5 c 0.03395,-0.19271 0.21773,-0.3214 0.41043,-0.28744 l 35.03517,6.1775 c 0.19271,0.03396 0.32138,0.21774 0.28742,0.41044 l -3e-5,2e-5 c -0.03396,0.1927 -0.21773,0.32139 -0.41043,0.28743 l -35.03517,-6.17749 c -0.19269,-0.03397 -0.32139,-0.21775 -0.28742,-0.41043 z" style="fill:#555252;fill-opacity:1;fill-rule:nonzero;stroke:none" transform="matrix(1.3333333,0,0,-1.3333333,45.897333,72.565333)"/><path id="path42" d="m -22.69821,-36.70995 0.24614,-1.39585 c 0.03397,-0.19271 0.21774,-0.32139 0.41044,-0.28743 l 1.67505,0.29538 c 0.19269,0.03396 0.32138,0.21774 0.28742,0.41044 l -0.24616,1.39586 c -0.03395,0.1927 -0.21773,0.32138 -0.41043,0.28741 l -1.67505,-0.29536 c -0.1927,-0.03397 -0.32138,-0.21774 -0.28741,-0.41045 z" style="fill:#9f9f9f;fill-opacity:1;fill-rule:nonzero;stroke:none" transform="matrix(1.3333333,0,0,-1.3333333,45.897333,72.565333)"/><path id="path43" d="m 2.3407812,-4.4128385 c -0.546875,0.039063 -1.0546875,0.2734375 -1.36718745,0.703125 -0.2734375,0.3515625 -0.4296875,0.78125 -0.4296875,1.2109375 0,1.0546875 0.85937495,1.95312496 1.91406245,1.95312496 1.0546875,0 1.953125,-0.89843746 1.953125,-1.95312496 0,-0.9765625 -0.7421875,-1.953125 -1.953125,-1.953125 -0.039063,0 -0.078125,0.039063 -0.1171875,0.039063 z m 0,0" style="fill:#989898;fill-opacity:1;fill-rule:nonzero;stroke:none" aria-label="•" transform="matrix(0.4,0,0,0.4,16.384,123.03467)"/><path id="path44" d="m -19.96239,-36.22755 0.24614,-1.39586 c 0.03397,-0.19271 0.21775,-0.32139 0.41045,-0.28743 l 1.67502,0.29538 c 0.1927,0.03396 0.32139,0.21774 0.28743,0.41043 l -0.24616,1.39587 c -0.03395,0.19269 -0.21773,0.32138 -0.41043,0.28742 l -1.67503,-0.29537 c -0.19271,-0.03396 -0.32138,-0.21774 -0.28742,-0.41044 z" style="fill:#9f9f9f;fill-opacity:1;fill-rule:nonzero;stroke:none" transform="matrix(1.3333333,0,0,-1.3333333,45.897333,72.565333)"/><path id="path45" d="m 2.3452083,-4.4175 c -0.546875,0.039063 -1.0546875,0.2734375 -1.36718747,0.703125 -0.2734375,0.3515625 -0.4296875,0.78125 -0.4296875,1.2109375 0,1.0546875 0.85937497,1.953125 1.91406247,1.953125 1.0546875,0 1.953125,-0.8984375 1.953125,-1.953125 0,-0.9765625 -0.7421875,-1.953125 -1.953125,-1.953125 -0.039063,0 -0.078125,0.039063 -0.1171875,0.039063 z m 0,0" style="fill:#989898;fill-opacity:1;fill-rule:nonzero;stroke:none" aria-label="•" transform="matrix(0.4,0,0,0.4,20.030667,122.392)"/><path id="path46" d="m -17.2266,-35.74516 0.24616,-1.39586 c 0.03397,-0.1927 0.21774,-0.3214 0.41045,-0.28743 l 1.67503,0.29538 c 0.1927,0.03397 0.3214,0.21774 0.28743,0.41043 l -0.24615,1.39586 c -0.03395,0.1927 -0.21773,0.32139 -0.41043,0.28743 l -1.67505,-0.29538 c -0.19271,-0.03395 -0.32138,-0.21773 -0.28744,-0.41043 z" style="fill:#9f9f9f;fill-opacity:1;fill-rule:nonzero;stroke:none" transform="matrix(1.3333333,0,0,-1.3333333,45.897333,72.565333)"/><path id="path47" d="m 2.3463021,-4.4123958 c -0.546875,0.039063 -1.0546875,0.2734375 -1.36718752,0.703125 -0.2734375,0.3515625 -0.4296875,0.78125 -0.4296875,1.2109375 0,1.0546875 0.85937502,1.95312497 1.91406252,1.95312497 1.0546875,0 1.953125,-0.89843747 1.953125,-1.95312497 0,-0.9765625 -0.7421875,-1.953125 -1.953125,-1.953125 -0.039063,0 -0.078125,0.039063 -0.1171875,0.039063 z m 0,0" style="fill:#989898;fill-opacity:1;fill-rule:nonzero;stroke:none" aria-label="•" transform="matrix(0.4,0,0,0.4,23.678667,121.74933)"/><path id="path48" d="m -14.49077,-35.26279 0.24616,-1.39586 c 0.03396,-0.1927 0.21774,-0.32139 0.41044,-0.28743 l 1.67502,0.2954 c 0.1927,0.03395 0.3214,0.21773 0.28743,0.41043 l -0.24615,1.39586 c -0.03395,0.1927 -0.21773,0.32139 -0.41043,0.28743 l -1.67504,-0.2954 c -0.1927,-0.03394 -0.32138,-0.21772 -0.28743,-0.41043 z" style="fill:#9f9f9f;fill-opacity:1;fill-rule:nonzero;stroke:none" transform="matrix(1.3333333,0,0,-1.3333333,45.897333,72.565333)"/><path id="path49" d="m 2.3473958,-4.413724 c -0.546875,0.039063 -1.0546875,0.2734375 -1.36718747,0.703125 -0.2734375,0.3515625 -0.4296875,0.78125 -0.4296875,1.2109375 0,1.0546875 0.85937497,1.95312504 1.91406247,1.95312504 1.0546875,0 1.953125,-0.89843754 1.953125,-1.95312504 0,-0.9765625 -0.7421875,-1.953125 -1.953125,-1.953125 -0.039063,0 -0.078125,0.039063 -0.1171875,0.039063 z m 0,0" style="fill:#989898;fill-opacity:1;fill-rule:nonzero;stroke:none" aria-label="•" transform="matrix(0.4,0,0,0.4,27.326667,121.10533)"/><path id="path50" d="m -11.75496,-34.7804 0.24616,-1.39587 c 0.03396,-0.19269 0.21774,-0.32138 0.41044,-0.28741 l 1.67504,0.29538 c 0.1927,0.03395 0.32139,0.21772 0.28742,0.41043 l -0.24615,1.39586 c -0.03395,0.1927 -0.21773,0.32138 -0.41043,0.28743 l -1.67505,-0.29538 c -0.1927,-0.03397 -0.32138,-0.21774 -0.28743,-0.41044 z" style="fill:#9f9f9f;fill-opacity:1;fill-rule:nonzero;stroke:none" transform="matrix(1.3333333,0,0,-1.3333333,45.897333,72.565333)"/><path id="path51" d="m 2.3484896,-4.4183854 c -0.546875,0.039063 -1.0546875,0.2734375 -1.36718752,0.703125 -0.2734375,0.3515625 -0.4296875,0.78125 -0.4296875,1.2109375 0,1.0546875 0.85937502,1.95312498 1.91406252,1.95312498 1.0546875,0 1.953125,-0.89843748 1.953125,-1.95312498 0,-0.9765625 -0.7421875,-1.953125 -1.953125,-1.953125 -0.039063,0 -0.078125,0.039063 -0.1171875,0.039063 z m 0,0" style="fill:#989898;fill-opacity:1;fill-rule:nonzero;stroke:none" aria-label="•" transform="matrix(0.4,0,0,0.4,30.974667,120.46267)"/><path id="path52" d="m -9.01913,-34.29802 0.24615,-1.39586 c 0.03397,-0.19269 0.21774,-0.32138 0.41045,-0.28742 l 1.67503,0.29537 c 0.1927,0.03397 0.3214,0.21774 0.28743,0.41045 l -0.24615,1.39586 c -0.03396,0.1927 -0.21773,0.32138 -0.41044,0.28742 l -1.67504,-0.29537 c -0.19271,-0.03397 -0.32139,-0.21775 -0.28743,-0.41045 z" style="fill:#9f9f9f;fill-opacity:1;fill-rule:nonzero;stroke:none" transform="matrix(1.3333333,0,0,-1.3333333,45.897333,72.565333)"/><path id="path53" d="m 2.3398177,-4.4099479 c -0.546875,0.039063 -1.0546875,0.2734375 -1.36718749,0.703125 -0.2734375,0.3515625 -0.4296875,0.78125 -0.4296875,1.2109375 0,1.0546875 0.85937499,1.95312498 1.91406249,1.95312498 1.0546875,0 1.953125,-0.89843748 1.953125,-1.95312498 0,-0.9765625 -0.7421875,-1.953125 -1.953125,-1.953125 -0.039063,0 -0.078125,0.039063 -0.1171875,0.039063 z m 0,0" style="fill:#989898;fill-opacity:1;fill-rule:nonzero;stroke:none" aria-label="•" transform="matrix(0.4,0,0,0.4,34.622667,119.81867)"/><path id="path54" d="m -6.28331,-33.81564 0.24615,-1.39586 c 0.03397,-0.1927 0.21775,-0.32138 0.41045,-0.28742 l 1.67501,0.29537 c 0.1927,0.03396 0.32139,0.21774 0.28742,0.41045 l -0.24615,1.39585 c -0.03395,0.19271 -0.21773,0.32138 -0.41043,0.28742 l -1.67502,-0.29537 c -0.1927,-0.03396 -0.32138,-0.21774 -0.28743,-0.41044 z" style="fill:#9f9f9f;fill-opacity:1;fill-rule:nonzero;stroke:none" transform="matrix(1.3333333,0,0,-1.3333333,45.897333,72.565333)"/><path id="path55" d="m 2.3442448,-4.4146094 c -0.546875,0.039063 -1.0546875,0.2734375 -1.36718751,0.703125 -0.2734375,0.3515625 -0.4296875,0.78125 -0.4296875,1.2109375 0,1.0546875 0.85937501,1.95312503 1.91406251,1.95312503 1.0546875,0 1.953125,-0.89843753 1.953125,-1.95312503 0,-0.9765625 -0.7421875,-1.953125 -1.953125,-1.953125 -0.039063,0 -0.078125,0.039063 -0.1171875,0.039063 z m 0,0" style="fill:#989898;fill-opacity:1;fill-rule:nonzero;stroke:none" aria-label="•" transform="matrix(0.4,0,0,0.4,38.269333,119.176)"/><path id="path56" d="m -3.54752,-33.33327 0.24616,-1.39586 c 0.03396,-0.1927 0.21774,-0.32137 0.41045,-0.28743 l 1.67503,0.29538 c 0.1927,0.03397 0.32139,0.21775 0.28743,0.41045 l -0.24615,1.39586 c -0.03397,0.1927 -0.21773,0.32138 -0.41044,0.28741 l -1.67505,-0.29536 c -0.1927,-0.03397 -0.32138,-0.21774 -0.28743,-0.41045 z" style="fill:#9f9f9f;fill-opacity:1;fill-rule:nonzero;stroke:none" transform="matrix(1.3333333,0,0,-1.3333333,45.897333,72.565333)"/><path id="path57" d="m 2.3453385,-4.4095052 c -0.546875,0.039063 -1.0546875,0.2734375 -1.36718746,0.703125 -0.2734375,0.3515625 -0.4296875,0.78125 -0.4296875,1.2109375 0,1.0546875 0.85937496,1.95312499 1.91406246,1.95312499 1.0546875,0 1.953125,-0.89843749 1.953125,-1.95312499 0,-0.9765625 -0.7421875,-1.953125 -1.953125,-1.953125 -0.039063,0 -0.078125,0.039063 -0.1171875,0.039063 z m 0,0" style="fill:#989898;fill-opacity:1;fill-rule:nonzero;stroke:none" aria-label="•" transform="matrix(0.4,0,0,0.4,41.917333,118.53333)"/><path id="path58" d="m -0.81169,-32.85088 0.24615,-1.39585 c 0.03397,-0.19271 0.21774,-0.32139 0.41044,-0.28743 l 1.67501,0.29538 c 0.19271,0.03396 0.3214,0.21774 0.28743,0.41043 l -0.24615,1.39587 c -0.03397,0.19269 -0.21775,0.32138 -0.41043,0.28741 l -1.67502,-0.29536 c -0.1927,-0.03397 -0.32138,-0.21774 -0.28743,-0.41045 z" style="fill:#9f9f9f;fill-opacity:1;fill-rule:nonzero;stroke:none" transform="matrix(1.3333333,0,0,-1.3333333,45.897333,72.565333)"/><path id="path59" d="m 2.3464323,-4.4108333 c -0.546875,0.039063 -1.0546875,0.2734375 -1.36718751,0.703125 -0.2734375,0.3515625 -0.4296875,0.78125 -0.4296875,1.2109375 0,1.0546875 0.85937501,1.95312497 1.91406251,1.95312497 1.0546875,0 1.953125,-0.89843747 1.953125,-1.95312497 0,-0.9765625 -0.7421875,-1.953125 -1.953125,-1.953125 -0.039063,0 -0.078125,0.039063 -0.1171875,0.039063 z m 0,0" style="fill:#989898;fill-opacity:1;fill-rule:nonzero;stroke:none" aria-label="•" transform="matrix(0.4,0,0,0.4,45.565333,117.88933)"/><path id="path60" d="m 1.9241,-32.36848 0.24616,-1.39586 c 0.03396,-0.19271 0.21774,-0.32138 0.41043,-0.28743 l 1.67505,0.29537 c 0.1927,0.03397 0.32139,0.21775 0.28743,0.41044 l -0.24616,1.39586 c -0.03396,0.1927 -0.21774,0.32139 -0.41043,0.28743 L 2.21153,-31.95805 C 2.01883,-31.992 1.89015,-32.17578 1.9241,-32.36848 Z" style="fill:#9f9f9f;fill-opacity:1;fill-rule:nonzero;stroke:none" transform="matrix(1.3333333,0,0,-1.3333333,45.897333,72.565333)"/><path id="path61" d="m 2.347526,-4.4154948 c -0.546875,0.039063 -1.0546875,0.2734375 -1.36718746,0.703125 -0.2734375,0.3515625 -0.4296875,0.78125 -0.4296875,1.2109375 0,1.0546875 0.85937496,1.95312501 1.91406246,1.95312501 1.0546875,0 1.953125,-0.89843751 1.953125,-1.95312501 0,-0.9765625 -0.7421875,-1.953125 -1.953125,-1.953125 -0.039063,0 -0.078125,0.039063 -0.1171875,0.039063 z m 0,0" style="fill:#989898;fill-opacity:1;fill-rule:nonzero;stroke:none" aria-label="•" transform="matrix(0.4,0,0,0.4,49.213333,117.24667)"/><path id="path62" d="m 4.65993,-31.88611 0.24615,-1.39586 c 0.03397,-0.1927 0.21775,-0.32139 0.41043,-0.28743 l 1.67504,0.2954 c 0.1927,0.03395 0.32138,0.21773 0.28743,0.41043 l -0.24616,1.39586 c -0.03396,0.1927 -0.21774,0.32139 -0.41043,0.28743 l -1.67503,-0.2954 C 4.75465,-31.50963 4.62598,-31.6934 4.65993,-31.88611 Z" style="fill:#9f9f9f;fill-opacity:1;fill-rule:nonzero;stroke:none" transform="matrix(1.3333333,0,0,-1.3333333,45.897333,72.565333)"/><path id="path63" d="M 2.3421875,-4.4103906 C 1.7953125,-4.3713281 1.2875,-4.1369531 0.975,-3.7072656 c -0.2734375,0.3515625 -0.4296875,0.78125 -0.4296875,1.2109375 0,1.0546875 0.859375,1.95312498 1.9140625,1.95312498 1.0546875,0 1.953125,-0.89843748 1.953125,-1.95312498 0,-0.9765625 -0.7421875,-1.953125 -1.953125,-1.953125 -0.039063,0 -0.078125,0.039063 -0.1171875,0.039063 z m 0,0" style="fill:#989898;fill-opacity:1;fill-rule:nonzero;stroke:none" aria-label="•" transform="matrix(0.4,0,0,0.4,52.86,116.604)"/><path id="path64" d="m 7.39574,-31.40372 0.24615,-1.39586 c 0.03397,-0.1927 0.21774,-0.32139 0.41043,-0.28742 l 1.67505,0.29537 c 0.1927,0.03395 0.32138,0.21773 0.28743,0.41043 l -0.24615,1.39586 c -0.03397,0.19271 -0.21775,0.32138 -0.41043,0.28744 l -1.67505,-0.29539 c -0.19271,-0.03396 -0.32138,-0.21774 -0.28743,-0.41043 z" style="fill:#9f9f9f;fill-opacity:1;fill-rule:nonzero;stroke:none" transform="matrix(1.3333333,0,0,-1.3333333,45.897333,72.565333)"/><path id="path65" d="m 2.3432812,-4.4117187 c -0.546875,0.039063 -1.0546875,0.2734375 -1.36718745,0.703125 -0.2734375,0.3515625 -0.4296875,0.78125 -0.4296875,1.2109375 0,1.0546875 0.85937495,1.95312495 1.91406245,1.95312495 1.0546875,0 1.953125,-0.89843745 1.953125,-1.95312495 0,-0.9765625 -0.7421875,-1.953125 -1.953125,-1.953125 -0.039063,0 -0.078125,0.039063 -0.1171875,0.039063 z m 0,0" style="fill:#989898;fill-opacity:1;fill-rule:nonzero;stroke:none" aria-label="•" transform="matrix(0.4,0,0,0.4,56.508,115.96)"/><path id="path66" d="m 10.13156,-30.92133 0.24616,-1.39587 c 0.03396,-0.19269 0.21774,-0.32138 0.41043,-0.28741 l 1.67505,0.29536 c 0.1927,0.03397 0.32138,0.21775 0.28743,0.41045 l -0.24616,1.39586 c -0.03397,0.1927 -0.21774,0.32138 -0.41043,0.28742 l -1.67505,-0.29538 c -0.1927,-0.03396 -0.32139,-0.21774 -0.28743,-0.41043 z" style="fill:#9f9f9f;fill-opacity:1;fill-rule:nonzero;stroke:none" transform="matrix(1.3333333,0,0,-1.3333333,45.897333,72.565333)"/><path id="path67" d="M 2.344375,-4.4163802 C 1.7975,-4.3773177 1.2896875,-4.1429427 0.9771875,-3.7132552 0.70375,-3.3616927 0.5475,-2.9320052 0.5475,-2.5023177 c 0,1.0546875 0.859375,1.95312499 1.9140625,1.95312499 1.0546875,0 1.953125,-0.89843749 1.953125,-1.95312499 0,-0.9765625 -0.7421875,-1.953125 -1.953125,-1.953125 -0.039063,0 -0.078125,0.039063 -0.1171875,0.039063 z m 0,0" style="fill:#989898;fill-opacity:1;fill-rule:nonzero;stroke:none" aria-label="•" transform="matrix(0.4,0,0,0.4,60.156,115.31733)"/><path id="path68" d="m -20.83667,-39.26013 0.24614,-1.39586 c 0.03397,-0.19271 0.21774,-0.3214 0.41045,-0.28741 l 2.86151,0.50454 c 0.1927,0.03398 0.32137,0.21776 0.28743,0.41046 l -0.24616,1.39586 c -0.03396,0.19271 -0.21774,0.32138 -0.41044,0.28742 l -2.86152,-0.50457 c -0.1927,-0.03396 -0.32138,-0.21774 -0.28741,-0.41044 z" style="fill:#9f9f9f;fill-opacity:1;fill-rule:nonzero;stroke:none" transform="matrix(1.3333333,0,0,-1.3333333,45.897333,72.565333)"/><path id="path69" d="M 2.344375,-4.411875 C 1.7975,-4.3728125 1.2896875,-4.1384375 0.9771875,-3.70875 0.70375,-3.3571875 0.5475,-2.9275 0.5475,-2.4978125 c 0,1.0546875 0.859375,1.953125 1.9140625,1.953125 1.0546875,0 1.953125,-0.8984375 1.953125,-1.953125 0,-0.9765625 -0.7421875,-1.953125 -1.953125,-1.953125 -0.039063,0 -0.078125,0.039063 -0.1171875,0.039063 z m 0,0" style="fill:#989898;fill-opacity:1;fill-rule:nonzero;stroke:none" aria-label="•" transform="matrix(0.4,0,0,0.4,19.656,126.296)"/><path id="path70" d="m -16.9004,-38.56609 0.24613,-1.39585 c 0.03397,-0.19271 0.21775,-0.3214 0.41045,-0.28743 l 1.67503,0.29539 c 0.19269,0.03395 0.32139,0.21773 0.28742,0.41043 l -0.24616,1.39586 c -0.03395,0.1927 -0.21772,0.32139 -0.41043,0.28743 l -1.67503,-0.29539 c -0.19271,-0.03395 -0.32138,-0.21773 -0.28741,-0.41044 z" style="fill:#9f9f9f;fill-opacity:1;fill-rule:nonzero;stroke:none" transform="matrix(1.3333333,0,0,-1.3333333,45.897333,72.565333)"/><path id="path71" d="m 2.3436198,-4.4178646 c -0.546875,0.039063 -1.0546875,0.2734375 -1.36718751,0.703125 -0.2734375,0.3515625 -0.4296875,0.78125 -0.4296875,1.2109375 0,1.0546875 0.85937501,1.95312502 1.91406251,1.95312502 1.0546875,0 1.953125,-0.89843752 1.953125,-1.95312502 0,-0.9765625 -0.7421875,-1.953125 -1.953125,-1.953125 -0.039063,0 -0.078125,0.039063 -0.1171875,0.039063 z m 0,0" style="fill:#989898;fill-opacity:1;fill-rule:nonzero;stroke:none" aria-label="•" transform="matrix(0.4,0,0,0.4,24.113333,125.50933)"/><path id="path72" d="m -14.15063,-38.08124 0.24615,-1.39586 c 0.03397,-0.1927 0.21774,-0.32138 0.41043,-0.28743 l 1.67505,0.2954 c 0.1927,0.03396 0.32138,0.21774 0.28743,0.41043 l -0.24616,1.39587 c -0.03396,0.19269 -0.21774,0.32138 -0.41043,0.28742 l -1.67504,-0.29538 c -0.19271,-0.03397 -0.3214,-0.21774 -0.28743,-0.41045 z" style="fill:#9f9f9f;fill-opacity:1;fill-rule:nonzero;stroke:none" transform="matrix(1.3333333,0,0,-1.3333333,45.897333,72.565333)"/><path id="path73" d="M 2.346875,-4.4158594 C 1.8,-4.3767969 1.2921875,-4.1424219 0.9796875,-3.7127344 0.70625,-3.3611719 0.55,-2.9314844 0.55,-2.5017969 c 0,1.0546875 0.859375,1.95312502 1.9140625,1.95312502 1.0546875,0 1.953125,-0.89843752 1.953125,-1.95312502 0,-0.9765625 -0.7421875,-1.953125 -1.953125,-1.953125 -0.039063,0 -0.078125,0.039063 -0.1171875,0.039063 z m 0,0" style="fill:#989898;fill-opacity:1;fill-rule:nonzero;stroke:none" aria-label="•" transform="matrix(0.4,0,0,0.4,27.78,124.864)"/><path id="path74" d="m -11.40085,-37.59639 0.24614,-1.39586 c 0.03397,-0.1927 0.21774,-0.32138 0.41045,-0.28741 l 1.67505,0.29536 c 0.19268,0.03397 0.32138,0.21774 0.28741,0.41045 l -0.24614,1.39585 c -0.03396,0.19271 -0.21774,0.32139 -0.41045,0.28742 l -1.67504,-0.29536 c -0.19269,-0.03397 -0.32138,-0.21775 -0.28742,-0.41045 z" style="fill:#9f9f9f;fill-opacity:1;fill-rule:nonzero;stroke:none" transform="matrix(1.3333333,0,0,-1.3333333,45.897333,72.565333)"/><path id="path75" d="m 2.3403646,-4.4105208 c -0.546875,0.039063 -1.0546875,0.2734375 -1.36718752,0.703125 -0.2734375,0.3515625 -0.4296875,0.78125 -0.4296875,1.2109375 0,1.0546875 0.85937502,1.95312497 1.91406252,1.95312497 1.0546875,0 1.953125,-0.89843747 1.953125,-1.95312497 0,-0.9765625 -0.7421875,-1.953125 -1.953125,-1.953125 -0.039063,0 -0.078125,0.039063 -0.1171875,0.039063 z m 0,0" style="fill:#989898;fill-opacity:1;fill-rule:nonzero;stroke:none" aria-label="•" transform="matrix(0.4,0,0,0.4,31.446667,124.21733)"/><path id="path76" d="m -8.65106,-37.11153 0.24616,-1.39587 c 0.03396,-0.19269 0.21774,-0.32138 0.41042,-0.28742 l 1.67504,0.29537 c 0.1927,0.03397 0.32138,0.21774 0.28743,0.41045 l -0.24616,1.39585 c -0.03396,0.19271 -0.21774,0.32138 -0.41043,0.28743 l -1.67503,-0.29538 c -0.19271,-0.03396 -0.32138,-0.21774 -0.28743,-0.41043 z" style="fill:#9f9f9f;fill-opacity:1;fill-rule:nonzero;stroke:none" transform="matrix(1.3333333,0,0,-1.3333333,45.897333,72.565333)"/><path id="path77" d="m 2.3436198,-4.4149479 c -0.546875,0.039063 -1.0546875,0.2734375 -1.36718751,0.703125 -0.2734375,0.3515625 -0.4296875,0.78125 -0.4296875,1.2109375 0,1.0546875 0.85937501,1.95312498 1.91406251,1.95312498 1.0546875,0 1.953125,-0.89843748 1.953125,-1.95312498 0,-0.9765625 -0.7421875,-1.953125 -1.953125,-1.953125 -0.039063,0 -0.078125,0.039063 -0.1171875,0.039063 z m 0,0" style="fill:#989898;fill-opacity:1;fill-rule:nonzero;stroke:none" aria-label="•" transform="matrix(0.4,0,0,0.4,35.113333,123.57067)"/><path id="path78" d="m -5.90128,-36.6267 0.24616,-1.39585 c 0.03395,-0.19271 0.21772,-0.3214 0.41043,-0.28743 l 1.67503,0.29538 c 0.19271,0.03395 0.32138,0.21772 0.28742,0.41043 l -0.24614,1.39586 c -0.03397,0.1927 -0.21774,0.32139 -0.41045,0.28743 l -1.67503,-0.29538 c -0.19269,-0.03395 -0.32138,-0.21773 -0.28742,-0.41044 z" style="fill:#9f9f9f;fill-opacity:1;fill-rule:nonzero;stroke:none" transform="matrix(1.3333333,0,0,-1.3333333,45.897333,72.565333)"/><path id="path79" d="m 2.3404427,-4.4096094 c -0.546875,0.039063 -1.0546875,0.2734375 -1.36718749,0.703125 -0.2734375,0.3515625 -0.4296875,0.78125 -0.4296875,1.2109375 0,1.0546875 0.85937499,1.95312502 1.91406249,1.95312502 1.0546875,0 1.953125,-0.89843752 1.953125,-1.95312502 0,-0.9765625 -0.7421875,-1.953125 -1.953125,-1.953125 -0.039063,0 -0.078125,0.039063 -0.1171875,0.039063 z m 0,0" style="fill:#989898;fill-opacity:1;fill-rule:nonzero;stroke:none" aria-label="•" transform="matrix(0.4,0,0,0.4,38.778667,122.924)"/><path id="path80" d="m -3.1515,-36.14186 0.24615,-1.39586 c 0.03397,-0.1927 0.21775,-0.32138 0.41045,-0.28743 l 1.67501,0.29538 c 0.19271,0.03397 0.3214,0.21774 0.28743,0.41043 l -0.24615,1.39588 c -0.03395,0.19268 -0.21773,0.32138 -0.41043,0.28741 l -1.67503,-0.29536 c -0.19271,-0.03397 -0.32139,-0.21775 -0.28743,-0.41045 z" style="fill:#9f9f9f;fill-opacity:1;fill-rule:nonzero;stroke:none" transform="matrix(1.3333333,0,0,-1.3333333,45.897333,72.565333)"/><path id="path81" d="m 2.3436979,-4.4140365 c -0.546875,0.039063 -1.0546875,0.2734375 -1.36718748,0.703125 -0.2734375,0.3515625 -0.4296875,0.78125 -0.4296875,1.2109375 0,1.0546875 0.85937498,1.95312504 1.91406248,1.95312504 1.0546875,0 1.953125,-0.89843754 1.953125,-1.95312504 0,-0.9765625 -0.7421875,-1.953125 -1.953125,-1.953125 -0.039063,0 -0.078125,0.039063 -0.1171875,0.039063 z m 0,0" style="fill:#989898;fill-opacity:1;fill-rule:nonzero;stroke:none" aria-label="•" transform="matrix(0.4,0,0,0.4,42.445333,122.27733)"/><path id="path82" d="m -0.40172,-35.65701 0.24616,-1.39586 c 0.03395,-0.1927 0.21771,-0.32138 0.41041,-0.28742 l 1.67505,0.29537 c 0.1927,0.03396 0.32138,0.21774 0.28742,0.41044 l -0.24614,1.39586 c -0.03397,0.19271 -0.21775,0.32138 -0.41045,0.28742 l -1.67503,-0.29537 c -0.19269,-0.03396 -0.32138,-0.21774 -0.28742,-0.41044 z" style="fill:#9f9f9f;fill-opacity:1;fill-rule:nonzero;stroke:none" transform="matrix(1.3333333,0,0,-1.3333333,45.897333,72.565333)"/><path id="path83" d="m 2.3469531,-4.4184635 c -0.546875,0.039063 -1.0546875,0.2734375 -1.36718748,0.703125 -0.2734375,0.3515625 -0.4296875,0.78125 -0.4296875,1.2109375 0,1.0546875 0.85937498,1.95312496 1.91406248,1.95312496 1.0546875,0 1.953125,-0.89843746 1.953125,-1.95312496 0,-0.9765625 -0.7421875,-1.953125 -1.953125,-1.953125 -0.039063,0 -0.078125,0.039063 -0.1171875,0.039063 z m 0,0" style="fill:#989898;fill-opacity:1;fill-rule:nonzero;stroke:none" aria-label="•" transform="matrix(0.4,0,0,0.4,46.112,121.63067)"/><path id="path84" d="m 2.34804,-35.17215 0.24616,-1.39587 c 0.03396,-0.19269 0.21774,-0.32138 0.41044,-0.28742 l 1.67503,0.29537 c 0.19271,0.03396 0.3214,0.21774 0.28743,0.41044 l -0.24615,1.39586 c -0.03395,0.1927 -0.21773,0.32138 -0.41043,0.28743 l -1.67505,-0.29538 c -0.19271,-0.03396 -0.32138,-0.21774 -0.28743,-0.41043 z" style="fill:#9f9f9f;fill-opacity:1;fill-rule:nonzero;stroke:none" transform="matrix(1.3333333,0,0,-1.3333333,45.897333,72.565333)"/><path id="path85" d="M 2.3404427,-4.413125 C 1.7935677,-4.374062 1.2857552,-4.1396875 0.97325521,-3.71 c -0.2734375,0.3515625 -0.4296875,0.78125 -0.4296875,1.2109375 0,1.0546875 0.85937499,1.953125 1.91406249,1.953125 1.0546875,0 1.953125,-0.8984375 1.953125,-1.953125 0,-0.9765625 -0.7421875,-1.953125 -1.953125,-1.953125 -0.039063,0 -0.078125,0.039063 -0.1171875,0.039063 z m 0,0" style="fill:#989898;fill-opacity:1;fill-rule:nonzero;stroke:none" aria-label="•" transform="matrix(0.4,0,0,0.4,49.778667,120.984)"/><path id="path86" d="M 5.09784,-34.68732 5.344,-36.08318 c 0.03394,-0.1927 0.21772,-0.32139 0.41043,-0.28742 l 1.67503,0.29539 c 0.1927,0.03395 0.32138,0.21773 0.28743,0.41043 l -0.24616,1.39586 c -0.03396,0.1927 -0.21774,0.32139 -0.41044,0.28743 l -1.67502,-0.2954 c -0.1927,-0.03395 -0.3214,-0.21772 -0.28743,-0.41043 z" style="fill:#9f9f9f;fill-opacity:1;fill-rule:nonzero;stroke:none" transform="matrix(1.3333333,0,0,-1.3333333,45.897333,72.565333)"/><path id="path87" d="m 2.3470312,-4.4111198 c -0.546875,0.039063 -1.0546875,0.2734375 -1.36718745,0.703125 -0.2734375,0.3515625 -0.4296875,0.78125 -0.4296875,1.2109375 0,1.0546875 0.85937495,1.95312501 1.91406245,1.95312501 1.0546875,0 1.953125,-0.89843751 1.953125,-1.95312501 0,-0.9765625 -0.7421875,-1.953125 -1.953125,-1.953125 -0.039063,0 -0.078125,0.039063 -0.1171875,0.039063 z m 0,0" style="fill:#989898;fill-opacity:1;fill-rule:nonzero;stroke:none" aria-label="•" transform="matrix(0.4,0,0,0.4,53.444,120.33867)"/><path id="path88" d="m 7.84763,-34.20247 0.24614,-1.39586 c 0.03396,-0.1927 0.21774,-0.32138 0.41044,-0.28743 l 1.67503,0.29538 c 0.19271,0.03397 0.3214,0.21775 0.28743,0.41043 l -0.24615,1.39588 c -0.03395,0.19269 -0.21773,0.32138 -0.41043,0.28741 l -1.67505,-0.29536 c -0.1927,-0.03397 -0.32138,-0.21775 -0.28741,-0.41045 z" style="fill:#9f9f9f;fill-opacity:1;fill-rule:nonzero;stroke:none" transform="matrix(1.3333333,0,0,-1.3333333,45.897333,72.565333)"/><path id="path89" d="m 2.3405208,-4.4155469 c -0.546875,0.039063 -1.0546875,0.2734375 -1.36718747,0.703125 -0.2734375,0.3515625 -0.4296875,0.78125 -0.4296875,1.2109375 0,1.0546875 0.85937497,1.95312503 1.91406247,1.95312503 1.0546875,0 1.953125,-0.89843753 1.953125,-1.95312503 0,-0.9765625 -0.7421875,-1.953125 -1.953125,-1.953125 -0.039063,0 -0.078125,0.039063 -0.1171875,0.039063 z m 0,0" style="fill:#989898;fill-opacity:1;fill-rule:nonzero;stroke:none" aria-label="•" transform="matrix(0.4,0,0,0.4,57.110667,119.692)"/><path id="path90" d="m 10.59741,-33.71762 0.24616,-1.39586 c 0.03395,-0.1927 0.21773,-0.32138 0.41043,-0.28742 l 1.67503,0.29537 c 0.1927,0.03397 0.32138,0.21774 0.28743,0.41045 l -0.24616,1.39586 c -0.03396,0.1927 -0.21774,0.32138 -0.41044,0.28741 l -1.67502,-0.29536 c -0.1927,-0.03397 -0.32139,-0.21775 -0.28743,-0.41045 z" style="fill:#9f9f9f;fill-opacity:1;fill-rule:nonzero;stroke:none" transform="matrix(1.3333333,0,0,-1.3333333,45.897333,72.565333)"/><path id="path91" d="m 2.343776,-4.4102083 c -0.546875,0.039063 -1.0546875,0.2734375 -1.36718746,0.703125 -0.2734375,0.3515625 -0.4296875,0.78125 -0.4296875,1.2109375 0,1.0546875 0.85937496,1.95312497 1.91406246,1.95312497 1.0546875,0 1.953125,-0.89843747 1.953125,-1.95312497 0,-0.9765625 -0.7421875,-1.953125 -1.953125,-1.953125 -0.039063,0 -0.078125,0.039063 -0.1171875,0.039063 z m 0,0" style="fill:#989898;fill-opacity:1;fill-rule:nonzero;stroke:none" aria-label="•" transform="matrix(0.4,0,0,0.4,60.777333,119.04533)"/><path id="path92" d="m -21.965,-42.33752 0.24617,-1.39586 c 0.03395,-0.19269 0.21773,-0.32138 0.41043,-0.28742 l 1.67505,0.29538 c 0.19271,0.03397 0.32138,0.21774 0.28743,0.41045 l -0.24617,1.39586 c -0.03396,0.1927 -0.21774,0.32138 -0.41044,0.28743 l -1.67504,-0.2954 c -0.1927,-0.03396 -0.32139,-0.21774 -0.28743,-0.41044 z" style="fill:#9f9f9f;fill-opacity:1;fill-rule:nonzero;stroke:none" transform="matrix(1.3333333,0,0,-1.3333333,45.897333,72.565333)"/><path id="path93" d="m 2.3486198,-4.4130729 c -0.546875,0.039063 -1.0546875,0.2734375 -1.36718751,0.703125 -0.2734375,0.3515625 -0.4296875,0.78125 -0.4296875,1.2109375 0,1.0546875 0.85937501,1.95312498 1.91406251,1.95312498 1.0546875,0 1.953125,-0.89843748 1.953125,-1.95312498 0,-0.9765625 -0.7421875,-1.953125 -1.953125,-1.953125 -0.039063,0 -0.078125,0.039063 -0.1171875,0.039063 z m 0,0" style="fill:#989898;fill-opacity:1;fill-rule:nonzero;stroke:none" aria-label="•" transform="matrix(0.4,0,0,0.4,17.361333,130.53867)"/><path id="path94" d="m -19.20125,-41.8502 0.24617,-1.39586 c 0.03397,-0.19271 0.21773,-0.32138 0.41043,-0.28744 l 1.67505,0.29539 c 0.1927,0.03396 0.32138,0.21774 0.28743,0.41044 l -0.24617,1.39586 c -0.03396,0.19269 -0.21774,0.32138 -0.41044,0.28741 l -1.67504,-0.29536 c -0.1927,-0.03396 -0.32139,-0.21774 -0.28743,-0.41044 z" style="fill:#9f9f9f;fill-opacity:1;fill-rule:nonzero;stroke:none" transform="matrix(1.3333333,0,0,-1.3333333,45.897333,72.565333)"/><path id="path95" d="m 2.3442708,-4.4172656 c -0.546875,0.039063 -1.0546875,0.2734375 -1.36718747,0.703125 -0.2734375,0.3515625 -0.4296875,0.78125 -0.4296875,1.2109375 0,1.0546875 0.85937497,1.95312497 1.91406247,1.95312497 1.0546875,0 1.953125,-0.89843747 1.953125,-1.95312497 0,-0.9765625 -0.7421875,-1.953125 -1.953125,-1.953125 -0.039063,0 -0.078125,0.039063 -0.1171875,0.039063 z m 0,0" style="fill:#989898;fill-opacity:1;fill-rule:nonzero;stroke:none" aria-label="•" transform="matrix(0.4,0,0,0.4,21.046667,129.888)"/><path id="path96" d="m -16.4375,-41.36288 0.24617,-1.39586 c 0.03397,-0.19271 0.21774,-0.3214 0.41043,-0.28743 l 1.67505,0.29537 c 0.1927,0.03396 0.32138,0.21773 0.28743,0.41044 l -0.24617,1.39586 c -0.03397,0.1927 -0.21774,0.32139 -0.41043,0.28743 l -1.67505,-0.29538 c -0.1927,-0.03395 -0.32138,-0.21773 -0.28743,-0.41043 z" style="fill:#9f9f9f;fill-opacity:1;fill-rule:nonzero;stroke:none" transform="matrix(1.3333333,0,0,-1.3333333,45.897333,72.565333)"/><path id="path97" d="m 2.3432552,-4.415026 c -0.546875,0.039063 -1.0546875,0.2734375 -1.36718749,0.703125 -0.2734375,0.3515625 -0.4296875,0.78125 -0.4296875,1.2109375 0,1.0546875 0.85937499,1.95312496 1.91406249,1.95312496 1.0546875,0 1.953125,-0.89843746 1.953125,-1.95312496 0,-0.9765625 -0.7421875,-1.953125 -1.953125,-1.953125 -0.039063,0 -0.078125,0.039063 -0.1171875,0.039063 z m 0,0" style="fill:#989898;fill-opacity:1;fill-rule:nonzero;stroke:none" aria-label="•" transform="matrix(0.4,0,0,0.4,24.730667,129.23867)"/><path id="path98" d="m -13.67374,-40.8756 0.24617,-1.39585 c 0.03397,-0.19271 0.21775,-0.32138 0.41045,-0.28742 l 1.67502,0.29538 c 0.1927,0.03397 0.3214,0.21774 0.28743,0.41045 l -0.24617,1.39586 c -0.03396,0.1927 -0.21773,0.32138 -0.41043,0.28743 l -1.67503,-0.2954 c -0.19271,-0.03396 -0.32139,-0.21774 -0.28744,-0.41045 z" style="fill:#9f9f9f;fill-opacity:1;fill-rule:nonzero;stroke:none" transform="matrix(1.3333333,0,0,-1.3333333,45.897333,72.565333)"/><path id="path99" d="m 2.3389062,-4.4127865 c -0.546875,0.039063 -1.0546875,0.2734375 -1.36718745,0.703125 -0.2734375,0.3515625 -0.4296875,0.78125 -0.4296875,1.2109375 0,1.0546875 0.85937495,1.95312504 1.91406245,1.95312504 1.0546875,0 1.953125,-0.89843754 1.953125,-1.95312504 0,-0.9765625 -0.7421875,-1.953125 -1.953125,-1.953125 -0.039063,0 -0.078125,0.039063 -0.1171875,0.039063 z m 0,0" style="fill:#989898;fill-opacity:1;fill-rule:nonzero;stroke:none" aria-label="•" transform="matrix(0.4,0,0,0.4,28.416,128.58933)"/><path id="path100" d="m -10.90999,-40.38828 0.24617,-1.39585 c 0.03397,-0.19271 0.21774,-0.32138 0.41045,-0.28743 l 1.67502,0.29538 c 0.1927,0.03396 0.32139,0.21774 0.28743,0.41043 l -0.24618,1.39587 c -0.03394,0.19269 -0.21772,0.32138 -0.41043,0.28742 l -1.67503,-0.29537 c -0.1927,-0.03397 -0.32138,-0.21774 -0.28743,-0.41045 z" style="fill:#9f9f9f;fill-opacity:1;fill-rule:nonzero;stroke:none" transform="matrix(1.3333333,0,0,-1.3333333,45.897333,72.565333)"/><path id="path101" d="m 2.3443229,-4.4105469 c -0.546875,0.039063 -1.0546875,0.2734375 -1.36718748,0.703125 -0.2734375,0.3515625 -0.4296875,0.78125 -0.4296875,1.2109375 0,1.0546875 0.85937498,1.95312502 1.91406248,1.95312502 1.0546875,0 1.953125,-0.89843752 1.953125,-1.95312502 0,-0.9765625 -0.7421875,-1.953125 -1.953125,-1.953125 -0.039063,0 -0.078125,0.039063 -0.1171875,0.039063 z m 0,0" style="fill:#989898;fill-opacity:1;fill-rule:nonzero;stroke:none" aria-label="•" transform="matrix(0.4,0,0,0.4,32.101333,127.94)"/><path id="path102" d="m -8.14622,-39.90096 0.24615,-1.39585 c 0.03397,-0.19271 0.21774,-0.3214 0.41045,-0.28743 l 1.67504,0.29538 c 0.19269,0.03395 0.32138,0.21772 0.28742,0.41043 l -0.24617,1.39586 c -0.03395,0.1927 -0.21773,0.32139 -0.41043,0.28743 l -1.67505,-0.29538 c -0.1927,-0.03396 -0.32138,-0.21773 -0.28741,-0.41044 z" style="fill:#9f9f9f;fill-opacity:1;fill-rule:nonzero;stroke:none" transform="matrix(1.3333333,0,0,-1.3333333,45.897333,72.565333)"/><path id="path103" d="m 2.3433073,-4.4147396 c -0.546875,0.039063 -1.0546875,0.2734375 -1.36718751,0.703125 -0.2734375,0.3515625 -0.4296875,0.78125 -0.4296875,1.2109375 0,1.0546875 0.85937501,1.95312502 1.91406251,1.95312502 1.0546875,0 1.953125,-0.89843752 1.953125,-1.95312502 0,-0.9765625 -0.7421875,-1.953125 -1.953125,-1.953125 -0.039063,0 -0.078125,0.039063 -0.1171875,0.039063 z m 0,0" style="fill:#989898;fill-opacity:1;fill-rule:nonzero;stroke:none" aria-label="•" transform="matrix(0.4,0,0,0.4,35.785333,127.28933)"/><path id="path104" d="m -5.38248,-39.41365 0.24616,-1.39586 c 0.03396,-0.1927 0.21774,-0.32138 0.41044,-0.28741 l 1.67504,0.29535 c 0.19269,0.03396 0.32138,0.21774 0.28741,0.41044 l -0.24615,1.39586 c -0.03397,0.1927 -0.21775,0.32138 -0.41045,0.28743 l -1.67503,-0.29536 c -0.19269,-0.03397 -0.32138,-0.21775 -0.28742,-0.41045 z" style="fill:#9f9f9f;fill-opacity:1;fill-rule:nonzero;stroke:none" transform="matrix(1.3333333,0,0,-1.3333333,45.897333,72.565333)"/><path id="path105" d="m 2.3389583,-4.4125 c -0.546875,0.039063 -1.0546875,0.2734375 -1.36718747,0.703125 -0.2734375,0.3515625 -0.4296875,0.78125 -0.4296875,1.2109375 0,1.0546875 0.85937497,1.953125 1.91406247,1.953125 1.0546875,0 1.953125,-0.8984375 1.953125,-1.953125 0,-0.9765625 -0.7421875,-1.953125 -1.953125,-1.953125 -0.039063,0 -0.078125,0.039063 -0.1171875,0.039063 z m 0,0" style="fill:#989898;fill-opacity:1;fill-rule:nonzero;stroke:none" aria-label="•" transform="matrix(0.4,0,0,0.4,39.470667,126.64)"/><path id="path106" d="m -2.61873,-38.92636 0.24617,-1.39586 c 0.03395,-0.1927 0.21773,-0.32138 0.41043,-0.28743 l 1.67503,0.2954 c 0.19271,0.03396 0.32137,0.21774 0.2874,0.41043 l -0.24613,1.39587 c -0.03397,0.19269 -0.21775,0.32138 -0.41045,0.28741 l -1.67503,-0.29537 c -0.19269,-0.03397 -0.32139,-0.21775 -0.28742,-0.41045 z" style="fill:#9f9f9f;fill-opacity:1;fill-rule:nonzero;stroke:none" transform="matrix(1.3333333,0,0,-1.3333333,45.897333,72.565333)"/><path id="path107" d="M 2.344375,-4.4102604 C 1.7975,-4.3711979 1.2896875,-4.1368229 0.9771875,-3.7071354 0.70375,-3.3555729 0.5475,-2.9258854 0.5475,-2.4961979 c 0,1.0546875 0.859375,1.95312498 1.9140625,1.95312498 1.0546875,0 1.953125,-0.89843748 1.953125,-1.95312498 0,-0.9765625 -0.7421875,-1.953125 -1.953125,-1.953125 -0.039063,0 -0.078125,0.039063 -0.1171875,0.039063 z m 0,0" style="fill:#989898;fill-opacity:1;fill-rule:nonzero;stroke:none" aria-label="•" transform="matrix(0.4,0,0,0.4,43.156,125.99067)"/><path id="path108" d="m 0.145,-38.43904 0.24617,-1.39586 c 0.03396,-0.1927 0.21773,-0.3214 0.41043,-0.28743 l 1.67504,0.29538 c 0.1927,0.03395 0.32138,0.21773 0.28743,0.41043 l -0.24617,1.39586 c -0.03397,0.1927 -0.21774,0.3214 -0.41045,0.28743 L 0.43243,-38.02861 C 0.23973,-38.06258 0.11104,-38.24635 0.145,-38.43904 Z" style="fill:#9f9f9f;fill-opacity:1;fill-rule:nonzero;stroke:none" transform="matrix(1.3333333,0,0,-1.3333333,45.897333,72.565333)"/><path id="path109" d="m 2.340026,-4.4144531 c -0.546875,0.039063 -1.0546875,0.2734375 -1.36718746,0.703125 -0.2734375,0.3515625 -0.4296875,0.78125 -0.4296875,1.2109375 0,1.0546875 0.85937496,1.95312498 1.91406246,1.95312498 1.0546875,0 1.953125,-0.89843748 1.953125,-1.95312498 0,-0.9765625 -0.7421875,-1.953125 -1.953125,-1.953125 -0.039063,0 -0.078125,0.039063 -0.1171875,0.039063 z m 0,0" style="fill:#989898;fill-opacity:1;fill-rule:nonzero;stroke:none" aria-label="•" transform="matrix(0.4,0,0,0.4,46.841333,125.34)"/><path id="path110" d="m 2.90875,-37.95174 0.24617,-1.39586 c 0.03397,-0.1927 0.21773,-0.32138 0.41043,-0.28741 l 1.67505,0.29536 c 0.1927,0.03397 0.32138,0.21775 0.28743,0.41045 l -0.24617,1.39586 c -0.03396,0.1927 -0.21774,0.32138 -0.41044,0.28741 l -1.67504,-0.29536 c -0.1927,-0.03397 -0.32139,-0.21774 -0.28743,-0.41045 z" style="fill:#9f9f9f;fill-opacity:1;fill-rule:nonzero;stroke:none" transform="matrix(1.3333333,0,0,-1.3333333,45.897333,72.565333)"/><path id="path111" d="m 2.3390104,-4.4122135 c -0.546875,0.039063 -1.0546875,0.2734375 -1.36718748,0.703125 -0.2734375,0.3515625 -0.4296875,0.78125 -0.4296875,1.2109375 0,1.0546875 0.85937498,1.95312496 1.91406248,1.95312496 1.0546875,0 1.953125,-0.89843746 1.953125,-1.95312496 0,-0.9765625 -0.7421875,-1.953125 -1.953125,-1.953125 -0.039063,0 -0.078125,0.039063 -0.1171875,0.039063 z m 0,0" style="fill:#989898;fill-opacity:1;fill-rule:nonzero;stroke:none" aria-label="•" transform="matrix(0.4,0,0,0.4,50.525333,124.69067)"/><path id="path112" d="m 5.6725,-37.46442 0.24617,-1.39586 c 0.03397,-0.1927 0.21774,-0.32138 0.41043,-0.28742 l 1.67505,0.29537 c 0.1927,0.03397 0.32138,0.21775 0.28743,0.41043 l -0.24617,1.39588 c -0.03397,0.19269 -0.21774,0.32138 -0.41043,0.28742 l -1.67505,-0.29539 c -0.1927,-0.03395 -0.32138,-0.21772 -0.28743,-0.41043 z" style="fill:#9f9f9f;fill-opacity:1;fill-rule:nonzero;stroke:none" transform="matrix(1.3333333,0,0,-1.3333333,45.897333,72.565333)"/><path id="path113" d="m 2.3444271,-4.409974 c -0.546875,0.039063 -1.0546875,0.2734375 -1.36718752,0.703125 -0.2734375,0.3515625 -0.4296875,0.78125 -0.4296875,1.2109375 0,1.0546875 0.85937502,1.95312504 1.91406252,1.95312504 1.0546875,0 1.953125,-0.89843754 1.953125,-1.95312504 0,-0.9765625 -0.7421875,-1.953125 -1.953125,-1.953125 -0.039063,0 -0.078125,0.039063 -0.1171875,0.039063 z m 0,0" style="fill:#989898;fill-opacity:1;fill-rule:nonzero;stroke:none" aria-label="•" transform="matrix(0.4,0,0,0.4,54.210667,124.04133)"/><path id="path114" d="m 8.43626,-36.97711 0.24617,-1.39588 c 0.03397,-0.19268 0.21775,-0.32138 0.41045,-0.28741 l 1.67502,0.2954 c 0.1927,0.03395 0.3214,0.21772 0.28743,0.41043 l -0.24617,1.39585 c -0.03396,0.19271 -0.21773,0.32138 -0.41043,0.28743 L 8.7237,-36.56668 c -0.19271,-0.03397 -0.32139,-0.21774 -0.28744,-0.41043 z" style="fill:#9f9f9f;fill-opacity:1;fill-rule:nonzero;stroke:none" transform="matrix(1.3333333,0,0,-1.3333333,45.897333,72.565333)"/><path id="path115" d="m 2.3400781,-4.4141667 c -0.546875,0.039063 -1.0546875,0.2734375 -1.36718748,0.703125 -0.2734375,0.3515625 -0.4296875,0.78125 -0.4296875,1.2109375 0,1.0546875 0.85937498,1.95312503 1.91406248,1.95312503 1.0546875,0 1.953125,-0.89843753 1.953125,-1.95312503 0,-0.9765625 -0.7421875,-1.953125 -1.953125,-1.953125 -0.039063,0 -0.078125,0.039063 -0.1171875,0.039063 z m 0,0" style="fill:#989898;fill-opacity:1;fill-rule:nonzero;stroke:none" aria-label="•" transform="matrix(0.4,0,0,0.4,57.896,123.39067)"/><path id="path116" d="m 11.20001,-36.4898 0.24617,-1.39587 c 0.03397,-0.1927 0.21775,-0.32138 0.41045,-0.28741 l 1.67502,0.29536 c 0.1927,0.03397 0.32139,0.21775 0.28743,0.41045 l -0.24618,1.39586 c -0.03394,0.1927 -0.21772,0.32138 -0.41042,0.28741 l -1.67504,-0.29536 c -0.1927,-0.03397 -0.32138,-0.21774 -0.28743,-0.41044 z" style="fill:#9f9f9f;fill-opacity:1;fill-rule:nonzero;stroke:none" transform="matrix(1.3333333,0,0,-1.3333333,45.897333,72.565333)"/><path id="path117" d="m 2.3390625,-4.4119271 c -0.546875,0.039063 -1.0546875,0.2734375 -1.3671875,0.703125 -0.2734375,0.3515625 -0.4296875,0.78125 -0.4296875,1.2109375 0,1.0546875 0.859375,1.95312502 1.9140625,1.95312502 1.0546875,0 1.953125,-0.89843752 1.953125,-1.95312502 0,-0.9765625 -0.7421875,-1.953125 -1.953125,-1.953125 -0.039063,0 -0.078125,0.039063 -0.1171875,0.039063 z m 0,0" style="fill:#989898;fill-opacity:1;fill-rule:nonzero;stroke:none" aria-label="•" transform="matrix(0.4,0,0,0.4,61.58,122.74133)"/><path id="path118" d="m -21.5984,-45.1513 0.24617,-1.39588 c 0.03396,-0.19269 0.21774,-0.32138 0.41043,-0.28742 l 1.67505,0.29538 c 0.1927,0.03396 0.32138,0.21773 0.28743,0.41044 l -0.24618,1.39585 c -0.03396,0.19271 -0.21774,0.32139 -0.41043,0.28743 l -1.67504,-0.29538 c -0.19271,-0.03396 -0.32138,-0.21774 -0.28743,-0.41042 z" style="fill:#9f9f9f;fill-opacity:1;fill-rule:nonzero;stroke:none" transform="matrix(1.3333333,0,0,-1.3333333,45.897333,72.565333)"/><path id="path119" d="m 2.3395573,-4.4147396 c -0.546875,0.039063 -1.0546875,0.2734375 -1.36718751,0.703125 -0.2734375,0.3515625 -0.4296875,0.78125 -0.4296875,1.2109375 0,1.0546875 0.85937501,1.95312502 1.91406251,1.95312502 1.0546875,0 1.953125,-0.89843752 1.953125,-1.95312502 0,-0.9765625 -0.7421875,-1.953125 -1.953125,-1.953125 -0.039063,0 -0.078125,0.039063 -0.1171875,0.039063 z m 0,0" style="fill:#989898;fill-opacity:1;fill-rule:nonzero;stroke:none" aria-label="•" transform="matrix(0.4,0,0,0.4,17.849333,134.28933)"/><path id="path120" d="m -18.82068,-44.66153 0.24617,-1.39586 c 0.03395,-0.1927 0.21773,-0.32139 0.41043,-0.28743 l 1.67505,0.29538 c 0.1927,0.03395 0.32138,0.21773 0.28742,0.41044 l -0.24616,1.39585 c -0.03397,0.1927 -0.21774,0.32138 -0.41045,0.28743 l -1.67503,-0.29538 c -0.1927,-0.03396 -0.32139,-0.21774 -0.28743,-0.41043 z" style="fill:#9f9f9f;fill-opacity:1;fill-rule:nonzero;stroke:none" transform="matrix(1.3333333,0,0,-1.3333333,45.897333,72.565333)"/><path id="path121" d="m 2.3471354,-4.415599 c -0.546875,0.039063 -1.0546875,0.2734375 -1.36718748,0.703125 -0.2734375,0.3515625 -0.4296875,0.78125 -0.4296875,1.2109375 0,1.0546875 0.85937498,1.95312504 1.91406248,1.95312504 1.0546875,0 1.953125,-0.89843754 1.953125,-1.95312504 0,-0.9765625 -0.7421875,-1.953125 -1.953125,-1.953125 -0.039063,0 -0.078125,0.039063 -0.1171875,0.039063 z m 0,0" style="fill:#989898;fill-opacity:1;fill-rule:nonzero;stroke:none" aria-label="•" transform="matrix(0.4,0,0,0.4,21.553333,133.63733)"/><path id="path122" d="m -16.04295,-44.17175 0.24615,-1.39586 c 0.03397,-0.1927 0.21774,-0.32139 0.41045,-0.28743 l 1.67505,0.29538 c 0.19268,0.03395 0.32138,0.21773 0.28741,0.41043 l -0.24617,1.39586 c -0.03395,0.1927 -0.21773,0.32139 -0.41043,0.28743 l -1.67505,-0.29538 c -0.1927,-0.03397 -0.32138,-0.21774 -0.28741,-0.41043 z" style="fill:#9f9f9f;fill-opacity:1;fill-rule:nonzero;stroke:none" transform="matrix(1.3333333,0,0,-1.3333333,45.897333,72.565333)"/><path id="path123" d="M 2.3449479,-4.413125 C 1.7980729,-4.374062 1.2902604,-4.1396875 0.97776042,-3.71 c -0.2734375,0.3515625 -0.4296875,0.78125 -0.4296875,1.2109375 0,1.0546875 0.85937498,1.953125 1.91406248,1.953125 1.0546875,0 1.953125,-0.8984375 1.953125,-1.953125 0,-0.9765625 -0.7421875,-1.953125 -1.953125,-1.953125 -0.039063,0 -0.078125,0.039063 -0.1171875,0.039063 z m 0,0" style="fill:#989898;fill-opacity:1;fill-rule:nonzero;stroke:none" aria-label="•" transform="matrix(0.4,0,0,0.4,25.257333,132.984)"/><path id="path124" d="m -13.26523,-43.68199 0.24617,-1.39586 c 0.03397,-0.1927 0.21774,-0.3214 0.41045,-0.28743 l 1.67501,0.29539 c 0.19271,0.03396 0.3214,0.21773 0.28744,0.41044 l -0.24617,1.39585 c -0.03397,0.19271 -0.21775,0.3214 -0.41043,0.28743 l -1.67504,-0.29539 c -0.1927,-0.03395 -0.32138,-0.21773 -0.28743,-0.41043 z" style="fill:#9f9f9f;fill-opacity:1;fill-rule:nonzero;stroke:none" transform="matrix(1.3333333,0,0,-1.3333333,45.897333,72.565333)"/><path id="path125" d="m 2.3460937,-4.410651 c -0.546875,0.039063 -1.0546875,0.2734375 -1.36718745,0.703125 -0.2734375,0.3515625 -0.4296875,0.78125 -0.4296875,1.2109375 0,1.0546875 0.85937495,1.95312496 1.91406245,1.95312496 1.0546875,0 1.953125,-0.89843746 1.953125,-1.95312496 0,-0.9765625 -0.7421875,-1.953125 -1.953125,-1.953125 -0.039063,0 -0.078125,0.039063 -0.1171875,0.039063 z m 0,0" style="fill:#989898;fill-opacity:1;fill-rule:nonzero;stroke:none" aria-label="•" transform="matrix(0.4,0,0,0.4,28.96,132.33067)"/><path id="path126" d="m -10.4875,-43.19221 0.24617,-1.39586 c 0.03395,-0.19271 0.21773,-0.3214 0.41043,-0.28743 l 1.67503,0.29538 c 0.1927,0.03395 0.32138,0.21772 0.28743,0.41042 l -0.24617,1.39587 c -0.03396,0.1927 -0.21774,0.32139 -0.41044,0.28743 l -1.67502,-0.29538 c -0.19271,-0.03395 -0.3214,-0.21773 -0.28743,-0.41043 z" style="fill:#9f9f9f;fill-opacity:1;fill-rule:nonzero;stroke:none" transform="matrix(1.3333333,0,0,-1.3333333,45.897333,72.565333)"/><path id="path127" d="m 2.3439063,-4.4179427 c -0.546875,0.039063 -1.0546875,0.2734375 -1.36718755,0.703125 -0.2734375,0.3515625 -0.4296875,0.78125 -0.4296875,1.2109375 0,1.0546875 0.85937505,1.95312499 1.91406255,1.95312499 1.0546875,0 1.953125,-0.89843749 1.953125,-1.95312499 0,-0.9765625 -0.7421875,-1.953125 -1.953125,-1.953125 -0.039063,0 -0.078125,0.039063 -0.1171875,0.039063 z m 0,0" style="fill:#989898;fill-opacity:1;fill-rule:nonzero;stroke:none" aria-label="•" transform="matrix(0.4,0,0,0.4,32.664,131.67733)"/><path id="path128" d="m -7.70978,-42.70244 0.24616,-1.39586 c 0.03396,-0.1927 0.21774,-0.3214 0.41044,-0.28743 l 10.26493,1.80995 c 0.1927,0.03396 0.32138,0.21773 0.28743,0.41044 L 3.253,-40.76949 c -0.03396,0.19271 -0.21774,0.3214 -0.41044,0.28743 L -7.42236,-42.292 c -0.19269,-0.03396 -0.32138,-0.21774 -0.28742,-0.41044 z" style="fill:#9f9f9f;fill-opacity:1;fill-rule:nonzero;stroke:none" transform="matrix(1.3333333,0,0,-1.3333333,45.897333,72.565333)"/><path id="path129" d="m 2.3414583,-4.4116667 c -0.546875,0.039063 -1.0546875,0.2734375 -1.36718747,0.703125 -0.2734375,0.3515625 -0.4296875,0.78125 -0.4296875,1.2109375 0,1.0546875 0.85937497,1.95312503 1.91406247,1.95312503 1.0546875,0 1.953125,-0.89843753 1.953125,-1.95312503 0,-0.9765625 -0.7421875,-1.953125 -1.953125,-1.953125 -0.039063,0 -0.078125,0.039063 -0.1171875,0.039063 z m 0,0" style="fill:#989898;fill-opacity:1;fill-rule:nonzero;stroke:none" aria-label="•" transform="matrix(0.4,0,0,0.4,42.094667,130.01467)"/><path id="path130" d="m 3.65784,-40.69809 0.24615,-1.39586 c 0.03397,-0.1927 0.21774,-0.32138 0.41045,-0.28743 l 1.67503,0.29538 c 0.19269,0.03397 0.32138,0.21774 0.28742,0.41043 l -0.24616,1.39586 c -0.03396,0.19271 -0.21774,0.3214 -0.41044,0.28743 l -1.67504,-0.29538 c -0.1927,-0.03395 -0.32138,-0.21773 -0.28741,-0.41043 z" style="fill:#9f9f9f;fill-opacity:1;fill-rule:nonzero;stroke:none" transform="matrix(1.3333333,0,0,-1.3333333,45.897333,72.565333)"/><path id="path131" d="m 2.3423437,-4.4151562 c -0.546875,0.039063 -1.0546875,0.2734375 -1.36718745,0.703125 -0.2734375,0.3515625 -0.4296875,0.78125 -0.4296875,1.2109375 0,1.0546875 0.85937495,1.95312495 1.91406245,1.95312495 1.0546875,0 1.953125,-0.89843745 1.953125,-1.95312495 0,-0.9765625 -0.7421875,-1.953125 -1.953125,-1.953125 -0.039063,0 -0.078125,0.039063 -0.1171875,0.039063 z m 0,0" style="fill:#989898;fill-opacity:1;fill-rule:nonzero;stroke:none" aria-label="•" transform="matrix(0.4,0,0,0.4,51.524,128.352)"/><path id="path132" d="m 6.43555,-40.20831 0.24617,-1.39586 c 0.03396,-0.19271 0.21774,-0.32138 0.41044,-0.28743 l 1.67502,0.29538 c 0.1927,0.03396 0.3214,0.21774 0.28743,0.41043 l -0.24617,1.39587 c -0.03395,0.19269 -0.21773,0.32138 -0.41043,0.28742 L 6.72298,-39.79788 C 6.53027,-39.83183 6.4016,-40.01561 6.43555,-40.20831 Z" style="fill:#9f9f9f;fill-opacity:1;fill-rule:nonzero;stroke:none" transform="matrix(1.3333333,0,0,-1.3333333,45.897333,72.565333)"/><path id="path133" d="m 2.3401563,-4.4160156 c -0.546875,0.039063 -1.0546875,0.2734375 -1.36718755,0.703125 -0.2734375,0.3515625 -0.4296875,0.78125 -0.4296875,1.2109375 0,1.0546875 0.85937505,1.95312498 1.91406255,1.95312498 1.0546875,0 1.953125,-0.89843748 1.953125,-1.95312498 0,-0.9765625 -0.7421875,-1.953125 -1.953125,-1.953125 -0.039063,0 -0.078125,0.039063 -0.1171875,0.039063 z m 0,0" style="fill:#989898;fill-opacity:1;fill-rule:nonzero;stroke:none" aria-label="•" transform="matrix(0.4,0,0,0.4,55.228,127.7)"/><path id="path134" d="m 9.21327,-39.71855 0.24617,-1.39586 c 0.03396,-0.1927 0.21773,-0.32138 0.41043,-0.28743 l 1.67503,0.29539 c 0.19271,0.03397 0.32139,0.21775 0.28744,0.41044 l -0.24617,1.39587 c -0.03397,0.19269 -0.21775,0.32138 -0.41045,0.28741 L 9.5007,-39.3081 C 9.308,-39.34207 9.1793,-39.52585 9.21327,-39.71855 Z" style="fill:#9f9f9f;fill-opacity:1;fill-rule:nonzero;stroke:none" transform="matrix(1.3333333,0,0,-1.3333333,45.897333,72.565333)"/><path id="path135" d="m 2.3477344,-4.4135417 c -0.546875,0.039063 -1.0546875,0.2734375 -1.36718753,0.703125 -0.2734375,0.3515625 -0.4296875,0.78125 -0.4296875,1.2109375 0,1.0546875 0.85937503,1.95312503 1.91406253,1.95312503 1.0546875,0 1.953125,-0.89843753 1.953125,-1.95312503 0,-0.9765625 -0.7421875,-1.953125 -1.953125,-1.953125 -0.039063,0 -0.078125,0.039063 -0.1171875,0.039063 z m 0,0" style="fill:#989898;fill-opacity:1;fill-rule:nonzero;stroke:none" aria-label="•" transform="matrix(0.4,0,0,0.4,58.932,127.04667)"/><path id="path136" d="m 11.991,-39.22878 0.24615,-1.39585 c 0.03397,-0.19271 0.21775,-0.32138 0.41045,-0.28743 l 1.67503,0.29538 c 0.19271,0.03396 0.32138,0.21774 0.28742,0.41043 l -0.24616,1.39587 c -0.03396,0.19269 -0.21774,0.32138 -0.41044,0.28742 l -1.67504,-0.29537 c -0.19269,-0.03397 -0.32138,-0.21774 -0.28741,-0.41045 z" style="fill:#9f9f9f;fill-opacity:1;fill-rule:nonzero;stroke:none" transform="matrix(1.3333333,0,0,-1.3333333,45.897333,72.565333)"/><path id="path137" d="m 2.3391146,-4.4110677 c -0.546875,0.039063 -1.0546875,0.2734375 -1.36718752,0.703125 -0.2734375,0.3515625 -0.4296875,0.78125 -0.4296875,1.2109375 0,1.0546875 0.85937502,1.95312499 1.91406252,1.95312499 1.0546875,0 1.953125,-0.89843749 1.953125,-1.95312499 0,-0.9765625 -0.7421875,-1.953125 -1.953125,-1.953125 -0.039063,0 -0.078125,0.039063 -0.1171875,0.039063 z m 0,0" style="fill:#989898;fill-opacity:1;fill-rule:nonzero;stroke:none" aria-label="•" transform="matrix(0.4,0,0,0.4,62.634667,126.39333)"/><path id="path138" d="m -24.52689,-33.35828 -2.8289,16.04383 c -0.09552,0.54185 0.26629,1.05859 0.80815,1.15411 l 35.4457,6.24988 c 0.54187,0.09552 1.05859,-0.2663 1.15413,-0.80815 l 2.8289,-16.04383 c 0.09552,-0.54185 -0.2663,-1.05859 -0.80815,-1.15411 l -35.4457,-6.24988 c -0.54187,-0.09552 -1.05859,0.2663 -1.15413,0.80815 z" style="fill:#d9d9d9;fill-opacity:1;fill-rule:nonzero;stroke:none" transform="matrix(1.3333333,0,0,-1.3333333,45.897333,72.565333)"/><path id="path139" d="m 3.7040649,-1.7035741 0.9863758,0.00733 -8.26e-5,-0.6068954 -0.9863758,-0.00733 -0.00261,-4.236727 -0.9035552,-0.00463 -2.50982388,4.2458942 8.262e-5,0.6068954 2.62988006,-3.58e-4 -0.00248,1.70120826 0.7861123,-0.00418014 z M 1.0625614,-2.3121465 c 0.5069881,-0.850673 1.912572,-3.2207434 1.9158902,-3.7794406 L 2.977609,-2.3076552 Z M 9.5268945,-3.2441772 C 9.5227144,-4.0302895 9.496791,-4.9630313 9.0805431,-5.774205 8.665661,-6.5256399 7.9779525,-6.7421007 7.4789943,-6.7467847 c -0.5953547,0.00212 -1.295218,0.2594985 -1.700374,1.1400272 -0.3305028,0.7270976 -0.3826608,1.5627739 -0.3805157,2.360427 0.00418,0.7861122 0.032111,1.5050148 0.3431259,2.2381347 0.389793,0.96120408 1.1501471,1.23807297 1.7224202,1.23188538 C 8.190024,0.22087528 8.8104401,-0.19331008 9.132803,-0.87424446 9.4259794,-1.5246264 9.5283981,-2.1729459 9.5268945,-3.2441772 Z M 7.4751088,-0.38117083 C 6.9394932,-0.38041906 6.542312,-0.75984434 6.3371992,-1.4861901 6.1864171,-2.0482607 6.1761596,-2.5974521 6.1699444,-3.3720236 c 0.00399,-0.629977 0.00187,-1.2253316 0.1687941,-1.7670798 0.069217,-0.1900885 0.3196037,-1.0027107 1.1287976,-1.0028209 0.7725365,0.00533 1.0217774,0.7513522 1.0971547,0.9312382 0.1874395,0.5566348 0.1888879,1.2232691 0.1869356,1.8417053 0.00145,0.6666344 -5.04e-4,1.2850706 -0.1837082,1.9191451 -0.2435848,0.90901858 -0.7825738,1.06387066 -1.0928094,1.06866487 z m 6.1916472,-1.32087437 0.986376,0.00733 -8.3e-5,-0.6068954 -0.986376,-0.00733 -0.0026,-4.2367271 -0.903555,-0.00463 -2.509824,4.2458941 8.2e-5,0.6068955 2.62988,-3.581e-4 -0.0025,1.70120834 0.786112,-0.004180137 z m -2.641504,-0.6085724 c 0.506988,-0.850673 1.912572,-3.2207434 1.91589,-3.7794407 l -8.42e-4,3.783932 z m 0,0" style="fill:#000;fill-opacity:1;fill-rule:nonzero;stroke:none" aria-label="404" transform="matrix(1.3130667,-0.23153333,0.23153333,1.3130667,26.812,106.47733)"/><path id="path140" d="M 57.78308,-9.93639 C 68.78258,2.27962 75.5771,14.09315 72.95932,16.45024 70.34154,18.80731 59.30287,10.81529 48.30336,-1.40071 37.30386,-13.61674 30.50934,-25.43027 33.12712,-27.78735 c 2.61778,-2.35709 13.65646,5.63495 24.65596,17.85096 z" style="fill:#030e1d;fill-opacity:1;fill-rule:nonzero;stroke:none" clip-path="url(#clipPath141)" transform="matrix(1.3333333,0,0,-1.3333333,45.897333,72.565333)"/></g></svg>