<svg xmlns="http://www.w3.org/2000/svg" xmlns:svg="http://www.w3.org/2000/svg" id="svg1" width="35.077" height="35.439" version="1.1" viewBox="0 0 35.077 35.439"><defs id="defs1"><clipPath id="clipPath1" clipPathUnits="userSpaceOnUse"><path id="path1" d="M 0,0 H 126.8 V 127.533 H 0 Z" transform="translate(-63.767,-63.767)"/></clipPath><linearGradient id="linearGradient5" x1="0" x2="0" y1="0" y2="100.001" gradientUnits="userSpaceOnUse"><stop style="stop-opacity:1;stop-color:#0098ff" id="stop1" offset="0"/><stop style="stop-opacity:1;stop-color:#0098ff" id="stop2" offset=".25"/><stop style="stop-opacity:1;stop-color:#3db1ff" id="stop3" offset=".5"/><stop style="stop-opacity:1;stop-color:#7ac9ff" id="stop4" offset=".75"/><stop style="stop-opacity:1;stop-color:#7ac9ff" id="stop5" offset="1"/></linearGradient><clipPath id="clipPath5" clipPathUnits="userSpaceOnUse"><path id="path5" d="m 0,0 c 11.31586,-0.18292 17.64531,0.15697 28.87651,1.55084 3.28061,0.33719 5.71114,3.16766 5.42879,6.32212 -0.18265,2.04029 -1.48381,3.80986 -3.41274,4.64115 -1.53015,0.65941 -3.29295,0.65639 -4.84903,-0.0083 C 15.54462,8.28027 9.8439,5.50911 0.03531,-0.13658 Z" transform="matrix(0.49264,0,0,-0.49264,17.719135,17.719532)"/></clipPath><clipPath id="clipPath6" clipPathUnits="userSpaceOnUse"><path id="path6" d="M 0,0 H 126.8 V 127.533 H 0 Z" transform="translate(-63.767,-63.767)"/></clipPath><clipPath id="clipPath7" clipPathUnits="userSpaceOnUse"><path id="path7" d="M 0,0 H 126.8 V 127.533 H 0 Z" transform="translate(-63.767,-63.767)"/></clipPath><linearGradient id="linearGradient11" x1="0" x2="0" y1="0" y2="100.001" gradientUnits="userSpaceOnUse"><stop style="stop-opacity:1;stop-color:#0098ff" id="stop7" offset="0"/><stop style="stop-opacity:1;stop-color:#0098ff" id="stop8" offset=".25"/><stop style="stop-opacity:1;stop-color:#3db1ff" id="stop9" offset=".5"/><stop style="stop-opacity:1;stop-color:#7ac9ff" id="stop10" offset=".75"/><stop style="stop-opacity:1;stop-color:#7ac9ff" id="stop11" offset="1"/></linearGradient><clipPath id="clipPath11" clipPathUnits="userSpaceOnUse"><path id="path11" d="m 0,0 c 10.52481,4.16176 16.24255,6.8982 26.08566,12.48436 2.90192,1.56708 4.06423,5.11241 2.59609,7.91878 -0.9496,1.81514 -2.829,2.95206 -4.92929,2.98182 -1.66608,0.02362 -3.29361,-0.6538 -4.47689,-1.86341 C 11.19278,13.59938 6.98639,8.85733 0.0849,-0.11267 Z" transform="matrix(0.49264,0,0,-0.49264,17.719135,17.719532)"/></clipPath><clipPath id="clipPath12" clipPathUnits="userSpaceOnUse"><path id="path12" d="M 0,0 H 126.8 V 127.533 H 0 Z" transform="translate(-63.767,-63.767)"/></clipPath><clipPath id="clipPath13" clipPathUnits="userSpaceOnUse"><path id="path13" d="M 0,0 H 126.8 V 127.533 H 0 Z" transform="translate(-63.767,-63.767)"/></clipPath><linearGradient id="linearGradient17" x1="0" x2="0" y1="0" y2="100.001" gradientUnits="userSpaceOnUse"><stop style="stop-opacity:1;stop-color:#7ac9ff" id="stop13" offset="0"/><stop style="stop-opacity:1;stop-color:#7ac9ff" id="stop14" offset=".25"/><stop style="stop-opacity:1;stop-color:#3db1ff" id="stop15" offset=".5"/><stop style="stop-opacity:1;stop-color:#0098ff" id="stop16" offset=".75"/><stop style="stop-opacity:1;stop-color:#0098ff" id="stop17" offset="1"/></linearGradient><clipPath id="clipPath17" clipPathUnits="userSpaceOnUse"><path id="path17" d="m 0,0 c 8.13058,7.87245 12.36569,12.58853 19.32143,21.51604 2.08122,2.55824 1.79827,6.27832 -0.63201,8.30912 -1.5719,1.31351 -3.74325,1.64463 -5.69497,0.8684 C 11.44623,30.0778 10.20192,28.82915 9.57164,27.25882 5.13611,16.8469 3.06476,10.85634 0.12157,-0.0716 Z" transform="matrix(0.49264,0,0,-0.49264,17.719135,17.719532)"/></clipPath><clipPath id="clipPath18" clipPathUnits="userSpaceOnUse"><path id="path18" d="M 0,0 H 126.8 V 127.533 H 0 Z" transform="translate(-63.767,-63.767)"/></clipPath><clipPath id="clipPath19" clipPathUnits="userSpaceOnUse"><path id="path19" d="M 0,0 H 126.8 V 127.533 H 0 Z" transform="translate(-63.767,-63.767)"/></clipPath><linearGradient id="linearGradient23" x1="0" x2="0" y1="0" y2="100.001" gradientUnits="userSpaceOnUse"><stop style="stop-opacity:1;stop-color:#7ac9ff" id="stop19" offset="0"/><stop style="stop-opacity:1;stop-color:#7ac9ff" id="stop20" offset=".25"/><stop style="stop-opacity:1;stop-color:#3db1ff" id="stop21" offset=".5"/><stop style="stop-opacity:1;stop-color:#0098ff" id="stop22" offset=".75"/><stop style="stop-opacity:1;stop-color:#0098ff" id="stop23" offset="1"/></linearGradient><clipPath id="clipPath23" clipPathUnits="userSpaceOnUse"><path id="path23" d="m 0,0 c 4.49953,10.38515 6.60771,16.36324 9.61798,27.27357 0.94392,3.16012 -0.74113,6.489 -3.7637,7.43531 -1.955,0.61207 -4.08794,0.08703 -5.59416,-1.37706 C -0.9347,32.17043 -1.60652,30.54053 -1.5879,28.84846 -1.70161,17.53105 -1.32289,11.20345 0.13971,-0.01962 Z" transform="matrix(0.49264,0,0,-0.49264,17.719135,17.719532)"/></clipPath><clipPath id="clipPath24" clipPathUnits="userSpaceOnUse"><path id="path24" d="M 0,0 H 126.8 V 127.533 H 0 Z" transform="translate(-63.767,-63.767)"/></clipPath><clipPath id="clipPath25" clipPathUnits="userSpaceOnUse"><path id="path25" d="M 0,0 H 126.8 V 127.533 H 0 Z" transform="translate(-63.767,-63.767)"/></clipPath><linearGradient id="linearGradient29" x1="0" x2="0" y1="0" y2="100.001" gradientUnits="userSpaceOnUse"><stop style="stop-opacity:1;stop-color:#7ac9ff" id="stop25" offset="0"/><stop style="stop-opacity:1;stop-color:#7ac9ff" id="stop26" offset=".25"/><stop style="stop-opacity:1;stop-color:#3db1ff" id="stop27" offset=".5"/><stop style="stop-opacity:1;stop-color:#0098ff" id="stop28" offset=".75"/><stop style="stop-opacity:1;stop-color:#0098ff" id="stop29" offset="1"/></linearGradient><clipPath id="clipPath29" clipPathUnits="userSpaceOnUse"><path id="path29" d="m 0,0 c 0.18292,11.31586 -0.15697,17.64531 -1.55084,28.87651 -0.33719,3.28061 -3.16766,5.71114 -6.32212,5.42879 -2.04029,-0.18265 -3.80986,-1.48381 -4.64115,-3.41274 -0.65941,-1.53015 -0.65639,-3.29295 0.0083,-4.84903 C -8.28027,15.54462 -5.50911,9.8439 0.13658,0.03531 Z" transform="matrix(0.49264,0,0,-0.49264,17.719135,17.719532)"/></clipPath><clipPath id="clipPath30" clipPathUnits="userSpaceOnUse"><path id="path30" d="M 0,0 H 126.8 V 127.533 H 0 Z" transform="translate(-63.767,-63.767)"/></clipPath><clipPath id="clipPath31" clipPathUnits="userSpaceOnUse"><path id="path31" d="M 0,0 H 126.8 V 127.533 H 0 Z" transform="translate(-63.767,-63.767)"/></clipPath><linearGradient id="linearGradient35" x1="0" x2="0" y1="0" y2="100.001" gradientUnits="userSpaceOnUse"><stop style="stop-opacity:1;stop-color:#7ac9ff" id="stop31" offset="0"/><stop style="stop-opacity:1;stop-color:#7ac9ff" id="stop32" offset=".25"/><stop style="stop-opacity:1;stop-color:#3db1ff" id="stop33" offset=".5"/><stop style="stop-opacity:1;stop-color:#0098ff" id="stop34" offset=".75"/><stop style="stop-opacity:1;stop-color:#0098ff" id="stop35" offset="1"/></linearGradient><clipPath id="clipPath35" clipPathUnits="userSpaceOnUse"><path id="path35" d="m 0,0 c -4.16176,10.52481 -6.8982,16.24255 -12.48436,26.08566 -1.56708,2.90192 -5.11241,4.06423 -7.91878,2.59609 -1.81514,-0.9496 -2.95206,-2.829 -2.98182,-4.92929 -0.02362,-1.66608 0.6538,-3.29361 1.86341,-4.47689 C -13.59938,11.19278 -8.85733,6.98639 0.11267,0.0849 Z" transform="matrix(0.49264,0,0,-0.49264,17.719135,17.719532)"/></clipPath><clipPath id="clipPath36" clipPathUnits="userSpaceOnUse"><path id="path36" d="M 0,0 H 126.8 V 127.533 H 0 Z" transform="translate(-63.767,-63.767)"/></clipPath><clipPath id="clipPath37" clipPathUnits="userSpaceOnUse"><path id="path37" d="M 0,0 H 126.8 V 127.533 H 0 Z" transform="translate(-63.767,-63.767)"/></clipPath><linearGradient id="linearGradient41" x1="0" x2="0" y1="0" y2="100.001" gradientUnits="userSpaceOnUse"><stop style="stop-opacity:1;stop-color:#7ac9ff" id="stop37" offset="0"/><stop style="stop-opacity:1;stop-color:#7ac9ff" id="stop38" offset=".25"/><stop style="stop-opacity:1;stop-color:#3db1ff" id="stop39" offset=".5"/><stop style="stop-opacity:1;stop-color:#0098ff" id="stop40" offset=".75"/><stop style="stop-opacity:1;stop-color:#0098ff" id="stop41" offset="1"/></linearGradient><clipPath id="clipPath41" clipPathUnits="userSpaceOnUse"><path id="path41" d="m 0,0 c -7.87245,8.13058 -12.58853,12.36569 -21.51604,19.32143 -2.55824,2.08122 -6.27832,1.79827 -8.30912,-0.63201 -1.31351,-1.5719 -1.64463,-3.74325 -0.8684,-5.69497 0.61576,-1.54822 1.86441,-2.79253 3.43474,-3.42281 C -16.8469,5.13611 -10.85634,3.06476 0.0716,0.12157 Z" transform="matrix(0.49264,0,0,-0.49264,17.719135,17.719532)"/></clipPath><clipPath id="clipPath42" clipPathUnits="userSpaceOnUse"><path id="path42" d="M 0,0 H 126.8 V 127.533 H 0 Z" transform="translate(-63.767,-63.767)"/></clipPath><clipPath id="clipPath43" clipPathUnits="userSpaceOnUse"><path id="path43" d="M 0,0 H 126.8 V 127.533 H 0 Z" transform="translate(-63.767,-63.767)"/></clipPath><linearGradient id="linearGradient47" x1="0" x2="0" y1="0" y2="100.001" gradientUnits="userSpaceOnUse"><stop style="stop-opacity:1;stop-color:#7ac9ff" id="stop43" offset="0"/><stop style="stop-opacity:1;stop-color:#7ac9ff" id="stop44" offset=".25"/><stop style="stop-opacity:1;stop-color:#3db1ff" id="stop45" offset=".5"/><stop style="stop-opacity:1;stop-color:#0098ff" id="stop46" offset=".75"/><stop style="stop-opacity:1;stop-color:#0098ff" id="stop47" offset="1"/></linearGradient><clipPath id="clipPath47" clipPathUnits="userSpaceOnUse"><path id="path47" d="m 0,0 c -10.38515,4.49953 -16.36324,6.60771 -27.27357,9.61798 -3.16012,0.94392 -6.489,-0.74113 -7.43531,-3.7637 -0.61207,-1.955 -0.08703,-4.08794 1.37706,-5.59416 1.16139,-1.19482 2.79129,-1.86664 4.48336,-1.84802 11.31741,-0.11371 17.64501,0.26501 28.86808,1.72761 z" transform="matrix(0.49264,0,0,-0.49264,17.719135,17.719532)"/></clipPath><clipPath id="clipPath48" clipPathUnits="userSpaceOnUse"><path id="path48" d="M 0,0 H 126.8 V 127.533 H 0 Z" transform="translate(-63.767,-63.767)"/></clipPath><clipPath id="clipPath49" clipPathUnits="userSpaceOnUse"><path id="path49" d="M 0,0 H 126.8 V 127.533 H 0 Z" transform="translate(-63.767,-63.767)"/></clipPath><linearGradient id="linearGradient53" x1="0" x2="0" y1="0" y2="100.001" gradientUnits="userSpaceOnUse"><stop style="stop-opacity:1;stop-color:#7ac9ff" id="stop49" offset="0"/><stop style="stop-opacity:1;stop-color:#7ac9ff" id="stop50" offset=".25"/><stop style="stop-opacity:1;stop-color:#3db1ff" id="stop51" offset=".5"/><stop style="stop-opacity:1;stop-color:#0098ff" id="stop52" offset=".75"/><stop style="stop-opacity:1;stop-color:#0098ff" id="stop53" offset="1"/></linearGradient><clipPath id="clipPath53" clipPathUnits="userSpaceOnUse"><path id="path53" d="m 0,0 c -11.31586,0.18292 -17.64531,-0.15697 -28.87651,-1.55084 -3.28061,-0.33719 -5.71114,-3.16766 -5.42879,-6.32212 0.18265,-2.04029 1.48381,-3.80986 3.41274,-4.64115 1.53015,-0.65941 3.29295,-0.65639 4.84903,0.0083 10.49891,4.22557 16.19963,6.99673 26.00822,12.64242 z" transform="matrix(0.49264,0,0,-0.49264,17.719135,17.719532)"/></clipPath><clipPath id="clipPath54" clipPathUnits="userSpaceOnUse"><path id="path54" d="M 0,0 H 126.8 V 127.533 H 0 Z" transform="translate(-63.767,-63.767)"/></clipPath><clipPath id="clipPath55" clipPathUnits="userSpaceOnUse"><path id="path55" d="M 0,0 H 126.8 V 127.533 H 0 Z" transform="translate(-63.767,-63.767)"/></clipPath><linearGradient id="linearGradient59" x1="0" x2="0" y1="0" y2="100.001" gradientUnits="userSpaceOnUse"><stop style="stop-opacity:1;stop-color:#0098ff" id="stop55" offset="0"/><stop style="stop-opacity:1;stop-color:#0098ff" id="stop56" offset=".25"/><stop style="stop-opacity:1;stop-color:#3db1ff" id="stop57" offset=".5"/><stop style="stop-opacity:1;stop-color:#7ac9ff" id="stop58" offset=".75"/><stop style="stop-opacity:1;stop-color:#7ac9ff" id="stop59" offset="1"/></linearGradient><clipPath id="clipPath59" clipPathUnits="userSpaceOnUse"><path id="path59" d="m 0,0 c -10.52481,-4.16176 -16.24255,-6.8982 -26.08566,-12.48436 -2.90192,-1.56708 -4.06423,-5.11241 -2.59609,-7.91878 0.9496,-1.81514 2.829,-2.95206 4.92929,-2.98182 1.66608,-0.02362 3.29361,0.6538 4.47689,1.86341 8.08279,7.92217 12.28918,12.66422 19.19067,21.63422 z" transform="matrix(0.49264,0,0,-0.49264,17.719135,17.719532)"/></clipPath><clipPath id="clipPath60" clipPathUnits="userSpaceOnUse"><path id="path60" d="M 0,0 H 126.8 V 127.533 H 0 Z" transform="translate(-63.767,-63.767)"/></clipPath><clipPath id="clipPath61" clipPathUnits="userSpaceOnUse"><path id="path61" d="M 0,0 H 126.8 V 127.533 H 0 Z" transform="translate(-63.767,-63.767)"/></clipPath><linearGradient id="linearGradient65" x1="0" x2="0" y1="0" y2="100.001" gradientUnits="userSpaceOnUse"><stop style="stop-opacity:1;stop-color:#0098ff" id="stop61" offset="0"/><stop style="stop-opacity:1;stop-color:#0098ff" id="stop62" offset=".25"/><stop style="stop-opacity:1;stop-color:#3db1ff" id="stop63" offset=".5"/><stop style="stop-opacity:1;stop-color:#7ac9ff" id="stop64" offset=".75"/><stop style="stop-opacity:1;stop-color:#7ac9ff" id="stop65" offset="1"/></linearGradient><clipPath id="clipPath65" clipPathUnits="userSpaceOnUse"><path id="path65" d="m 0,0 c -8.13058,-7.87245 -12.36569,-12.58853 -19.32143,-21.51604 -2.08122,-2.55824 -1.79827,-6.27832 0.63201,-8.30912 1.5719,-1.31351 3.74325,-1.64463 5.69497,-0.8684 1.54822,0.61576 2.79253,1.86441 3.42281,3.43474 4.43553,10.41192 6.50688,16.40248 9.45007,27.33042 z" transform="matrix(0.49264,0,0,-0.49264,17.719135,17.719532)"/></clipPath><clipPath id="clipPath66" clipPathUnits="userSpaceOnUse"><path id="path66" d="M 0,0 H 126.8 V 127.533 H 0 Z" transform="translate(-63.767,-63.767)"/></clipPath><clipPath id="clipPath67" clipPathUnits="userSpaceOnUse"><path id="path67" d="M 0,0 H 126.8 V 127.533 H 0 Z" transform="translate(-63.767,-63.767)"/></clipPath><linearGradient id="linearGradient71" x1="0" x2="0" y1="0" y2="100.001" gradientUnits="userSpaceOnUse"><stop style="stop-opacity:1;stop-color:#0098ff" id="stop67" offset="0"/><stop style="stop-opacity:1;stop-color:#0098ff" id="stop68" offset=".25"/><stop style="stop-opacity:1;stop-color:#3db1ff" id="stop69" offset=".5"/><stop style="stop-opacity:1;stop-color:#7ac9ff" id="stop70" offset=".75"/><stop style="stop-opacity:1;stop-color:#7ac9ff" id="stop71" offset="1"/></linearGradient><clipPath id="clipPath71" clipPathUnits="userSpaceOnUse"><path id="path71" d="m 0,0 c -4.49953,-10.38515 -6.60771,-16.36324 -9.61798,-27.27357 -0.94392,-3.16012 0.74113,-6.489 3.7637,-7.43531 1.955,-0.61207 4.08794,-0.08703 5.59416,1.37706 1.19482,1.16139 1.86664,2.79129 1.84802,4.48336 0.11371,11.31741 -0.26501,17.64501 -1.72761,28.86808 z" transform="matrix(0.49264,0,0,-0.49264,17.719135,17.719532)"/></clipPath><clipPath id="clipPath72" clipPathUnits="userSpaceOnUse"><path id="path72" d="M 0,0 H 126.8 V 127.533 H 0 Z" transform="translate(-63.767,-63.767)"/></clipPath><clipPath id="clipPath73" clipPathUnits="userSpaceOnUse"><path id="path73" d="M 0,0 H 126.8 V 127.533 H 0 Z" transform="translate(-63.767,-63.767)"/></clipPath><linearGradient id="linearGradient77" x1="0" x2="0" y1="0" y2="100.001" gradientUnits="userSpaceOnUse"><stop style="stop-opacity:1;stop-color:#0098ff" id="stop73" offset="0"/><stop style="stop-opacity:1;stop-color:#0098ff" id="stop74" offset=".25"/><stop style="stop-opacity:1;stop-color:#3db1ff" id="stop75" offset=".5"/><stop style="stop-opacity:1;stop-color:#7ac9ff" id="stop76" offset=".75"/><stop style="stop-opacity:1;stop-color:#7ac9ff" id="stop77" offset="1"/></linearGradient><clipPath id="clipPath77" clipPathUnits="userSpaceOnUse"><path id="path77" d="m 0,0 c -0.18292,-11.31586 0.15697,-17.64531 1.55084,-28.87651 0.33719,-3.28061 3.16766,-5.71114 6.32212,-5.42879 2.04029,0.18265 3.80986,1.48381 4.64115,3.41274 0.65941,1.53015 0.65639,3.29295 -0.0083,4.84903 -4.22554,10.49891 -6.9967,16.19963 -12.64239,26.00822 z" transform="matrix(0.49264,0,0,-0.49264,17.719135,17.719532)"/></clipPath><clipPath id="clipPath78" clipPathUnits="userSpaceOnUse"><path id="path78" d="M 0,0 H 126.8 V 127.533 H 0 Z" transform="translate(-63.767,-63.767)"/></clipPath><linearGradient id="linearGradient82" x1="0" x2="0" y1="0" y2="100.001" gradientUnits="userSpaceOnUse"><stop style="stop-opacity:1;stop-color:#0098ff" id="stop78" offset="0"/><stop style="stop-opacity:1;stop-color:#0098ff" id="stop79" offset=".25"/><stop style="stop-opacity:1;stop-color:#3db1ff" id="stop80" offset=".5"/><stop style="stop-opacity:1;stop-color:#7ac9ff" id="stop81" offset=".75"/><stop style="stop-opacity:1;stop-color:#7ac9ff" id="stop82" offset="1"/></linearGradient><clipPath id="clipPath82" clipPathUnits="userSpaceOnUse"><path id="path82" d="m 0,0 c 4.16176,-10.52481 6.8982,-16.24255 12.48436,-26.08566 1.56708,-2.90192 5.11241,-4.06423 7.91878,-2.59609 1.81514,0.9496 2.95206,2.829 2.98182,4.92929 0.02362,1.66608 -0.6538,3.29361 -1.86341,4.47689 -7.92217,8.08279 -12.66422,12.28918 -21.63422,19.19067 z" transform="matrix(0.49264,0,0,-0.49264,17.719135,17.719532)"/></clipPath><clipPath id="clipPath83" clipPathUnits="userSpaceOnUse"><path id="path83" d="M -170.08092,-170.08092 V 170.08092 H 170.08092 V -170.08092 Z M 0,0 c 11.31586,-0.18292 17.64531,0.15697 28.87651,1.55084 3.28061,0.33719 5.71114,3.16766 5.42879,6.32212 -0.18265,2.04029 -1.48381,3.80986 -3.41274,4.64115 -1.53015,0.65941 -3.29295,0.65639 -4.84903,-0.0083 C 15.54462,8.28027 9.8439,5.50911 0.03531,-0.13658 Z"/></clipPath><linearGradient id="linearGradient87" x1="0" x2="0" y1="0" y2="100.001" gradientUnits="userSpaceOnUse"><stop style="stop-opacity:1;stop-color:#0098ff" id="stop83" offset="0"/><stop style="stop-opacity:1;stop-color:#0098ff" id="stop84" offset=".25"/><stop style="stop-opacity:1;stop-color:#3db1ff" id="stop85" offset=".5"/><stop style="stop-opacity:1;stop-color:#7ac9ff" id="stop86" offset=".75"/><stop style="stop-opacity:1;stop-color:#7ac9ff" id="stop87" offset="1"/></linearGradient><clipPath id="clipPath87" clipPathUnits="userSpaceOnUse"><path id="path87" d="m 0,0 c 7.80153,-8.19934 12.48068,-12.47565 21.34749,-19.50932 2.5401,-2.10356 6.26266,-1.85309 8.3147,0.55948 1.32724,1.56044 1.67731,3.72889 0.9181,5.68742 -0.60225,1.5536 -1.84006,2.80885 -3.40487,3.4528 -10.37325,4.52643 -16.3458,6.65009 -27.24808,9.68868 z" transform="matrix(0.49264,0,0,-0.49264,17.719135,17.719532)"/></clipPath><clipPath id="clipPath88" clipPathUnits="userSpaceOnUse"><path id="path88" d="M -170.08092,-170.08092 V 170.08092 H 170.08092 V -170.08092 Z M 0,0 c 11.31586,-0.18292 17.64531,0.15697 28.87651,1.55084 3.28061,0.33719 5.71114,3.16766 5.42879,6.32212 -0.18265,2.04029 -1.48381,3.80986 -3.41274,4.64115 -1.53015,0.65941 -3.29295,0.65639 -4.84903,-0.0083 C 15.54462,8.28027 9.8439,5.50911 0.03531,-0.13658 Z"/></clipPath><linearGradient id="linearGradient92" x1="0" x2="0" y1="0" y2="100.001" gradientUnits="userSpaceOnUse"><stop style="stop-opacity:1;stop-color:#0098ff" id="stop88" offset="0"/><stop style="stop-opacity:1;stop-color:#0098ff" id="stop89" offset=".25"/><stop style="stop-opacity:1;stop-color:#3db1ff" id="stop90" offset=".5"/><stop style="stop-opacity:1;stop-color:#7ac9ff" id="stop91" offset=".75"/><stop style="stop-opacity:1;stop-color:#7ac9ff" id="stop92" offset="1"/></linearGradient><clipPath id="clipPath92" clipPathUnits="userSpaceOnUse"><path id="path92" d="m 0,0 c 10.38515,-4.49953 16.36324,-6.60771 27.27357,-9.61798 3.16012,-0.94392 6.489,0.74113 7.43531,3.7637 0.61207,1.955 0.08703,4.08794 -1.37706,5.59416 C 32.17043,0.9347 30.54053,1.60652 28.84846,1.5879 17.53105,1.70161 11.20345,1.32289 -0.01962,-0.13971 Z" transform="matrix(0.49264,0,0,-0.49264,17.719135,17.719532)"/></clipPath><clipPath id="clipPath93" clipPathUnits="userSpaceOnUse"><path id="path93" d="M -170.08092,-170.08092 V 170.08092 H 170.08092 V -170.08092 Z M 0,0 c 11.31586,-0.18292 17.64531,0.15697 28.87651,1.55084 3.28061,0.33719 5.71114,3.16766 5.42879,6.32212 -0.18265,2.04029 -1.48381,3.80986 -3.41274,4.64115 -1.53015,0.65941 -3.29295,0.65639 -4.84903,-0.0083 C 15.54462,8.28027 9.8439,5.50911 0.03531,-0.13658 Z"/></clipPath><clipPath id="clipPath94" clipPathUnits="userSpaceOnUse"><path id="path94" d="M -170.08092,-170.08092 V 170.08092 H 170.08092 V -170.08092 Z M 0,0 c 10.52481,4.16176 16.24255,6.8982 26.08566,12.48436 2.90192,1.56708 4.06423,5.11241 2.59609,7.91878 -0.9496,1.81514 -2.829,2.95206 -4.92929,2.98182 -1.66608,0.02362 -3.29361,-0.6538 -4.47689,-1.86341 C 11.19278,13.59938 6.98639,8.85733 0.0849,-0.11267 Z"/></clipPath><clipPath id="clipPath95" clipPathUnits="userSpaceOnUse"><path id="path95" d="M 0,0 H 126.8 V 127.533 H 0 Z" transform="matrix(0.49264,0,0,-0.49264,-13.69504,49.133707)"/></clipPath><clipPath id="clipPath96" clipPathUnits="userSpaceOnUse"><path id="path96" d="M 0,0 H 126.8 V 127.533 H 0 Z" transform="translate(-63.767,-63.767)"/></clipPath><linearGradient id="linearGradient100" x1="0" x2="0" y1="0" y2="100.001" gradientUnits="userSpaceOnUse"><stop style="stop-opacity:1;stop-color:#0098ff" id="stop96" offset="0"/><stop style="stop-opacity:1;stop-color:#0098ff" id="stop97" offset=".25"/><stop style="stop-opacity:1;stop-color:#3caffd" id="stop98" offset=".5"/><stop style="stop-opacity:1;stop-color:#78c6fa" id="stop99" offset=".75"/><stop style="stop-opacity:1;stop-color:#78c6fa" id="stop100" offset="1"/></linearGradient><clipPath id="clipPath100" clipPathUnits="userSpaceOnUse"><path id="path100" d="m 0,0 c 8.2193,2.50052 12.77573,4.24164 20.56702,7.86177 2.92891,1.51621 4.15298,5.04077 2.73405,7.87241 -0.91777,1.83149 -2.7771,3.00108 -4.8766,3.06755 C 16.75902,18.85445 15.11989,18.2055 13.91563,17.01671 8.06496,10.72548 5.00104,6.93013 0.08292,-0.11415 Z" transform="matrix(0.49264,0,0,-0.49264,17.719135,17.719532)"/></clipPath><clipPath id="clipPath101" clipPathUnits="userSpaceOnUse"><path id="path101" d="M 0,0 H 126.8 V 127.533 H 0 Z" transform="translate(-63.767,-63.767)"/></clipPath><clipPath id="clipPath102" clipPathUnits="userSpaceOnUse"><path id="path102" d="M 0,0 H 126.8 V 127.533 H 0 Z" transform="translate(-63.767,-63.767)"/></clipPath><linearGradient id="linearGradient106" x1="0" x2="0" y1="0" y2="100.001" gradientUnits="userSpaceOnUse"><stop style="stop-opacity:1;stop-color:#78c6fa" id="stop102" offset="0"/><stop style="stop-opacity:1;stop-color:#78c6fa" id="stop103" offset=".25"/><stop style="stop-opacity:1;stop-color:#3caffd" id="stop104" offset=".5"/><stop style="stop-opacity:1;stop-color:#0098ff" id="stop105" offset=".75"/><stop style="stop-opacity:1;stop-color:#0098ff" id="stop106" offset="1"/></linearGradient><clipPath id="clipPath106" clipPathUnits="userSpaceOnUse"><path id="path106" d="M 0,0 C 5.17981,6.85422 7.84262,10.94102 12.01805,18.44948 13.49638,21.39772 12.415,24.96864 9.60262,26.42546 7.78357,27.3677 5.59186,27.22105 3.85426,26.04074 2.47589,25.10445 1.53123,23.61597 1.25575,21.94637 0.22038,13.41763 -0.02753,8.54617 0.13419,-0.0436 Z" transform="matrix(0.49264,0,0,-0.49264,17.719135,17.719532)"/></clipPath><clipPath id="clipPath107" clipPathUnits="userSpaceOnUse"><path id="path107" d="M 0,0 H 126.8 V 127.533 H 0 Z" transform="translate(-63.767,-63.767)"/></clipPath><clipPath id="clipPath108" clipPathUnits="userSpaceOnUse"><path id="path108" d="M 0,0 H 126.8 V 127.533 H 0 Z" transform="translate(-63.767,-63.767)"/></clipPath><linearGradient id="linearGradient112" x1="0" x2="0" y1="0" y2="100.001" gradientUnits="userSpaceOnUse"><stop style="stop-opacity:1;stop-color:#78c6fa" id="stop108" offset="0"/><stop style="stop-opacity:1;stop-color:#78c6fa" id="stop109" offset=".25"/><stop style="stop-opacity:1;stop-color:#3caffd" id="stop110" offset=".5"/><stop style="stop-opacity:1;stop-color:#0098ff" id="stop111" offset=".75"/><stop style="stop-opacity:1;stop-color:#0098ff" id="stop112" offset="1"/></linearGradient><clipPath id="clipPath112" clipPathUnits="userSpaceOnUse"><path id="path112" d="m 0,0 c 0.16173,8.5898 -0.08617,13.46124 -1.12155,21.98999 -0.53693,3.25411 -3.51073,5.50741 -6.64229,5.03293 -2.02548,-0.3069 -3.7124,-1.71379 -4.42438,-3.69002 -0.56478,-1.56766 -0.45411,-3.3271 0.30437,-4.8398 C -7.70842,10.98462 -5.04561,6.89783 0.13419,0.0436 Z" transform="matrix(0.49264,0,0,-0.49264,17.719135,17.719532)"/></clipPath><clipPath id="clipPath113" clipPathUnits="userSpaceOnUse"><path id="path113" d="M 0,0 H 126.8 V 127.533 H 0 Z" transform="translate(-63.767,-63.767)"/></clipPath><clipPath id="clipPath114" clipPathUnits="userSpaceOnUse"><path id="path114" d="M 0,0 H 126.8 V 127.533 H 0 Z" transform="translate(-63.767,-63.767)"/></clipPath><linearGradient id="linearGradient118" x1="0" x2="0" y1="0" y2="100.001" gradientUnits="userSpaceOnUse"><stop style="stop-opacity:1;stop-color:#78c6fa" id="stop114" offset="0"/><stop style="stop-opacity:1;stop-color:#78c6fa" id="stop115" offset=".25"/><stop style="stop-opacity:1;stop-color:#3caffd" id="stop116" offset=".5"/><stop style="stop-opacity:1;stop-color:#0098ff" id="stop117" offset=".75"/><stop style="stop-opacity:1;stop-color:#0098ff" id="stop118" offset="1"/></linearGradient><clipPath id="clipPath118" clipPathUnits="userSpaceOnUse"><path id="path118" d="m 0,0 c -4.9181,7.0443 -7.98203,10.83963 -13.8327,17.13087 -2.3471,2.31701 -6.0774,2.39197 -8.33196,0.16744 -1.45824,-1.43884 -1.99602,-3.56857 -1.41043,-5.58585 0.46454,-1.60022 1.58824,-2.95857 3.091,-3.73652 7.79131,-3.62015 12.34771,-5.36125 20.56701,-7.86179 z" transform="matrix(0.49264,0,0,-0.49264,17.719135,17.719532)"/></clipPath><clipPath id="clipPath119" clipPathUnits="userSpaceOnUse"><path id="path119" d="M 0,0 H 126.8 V 127.533 H 0 Z" transform="translate(-63.767,-63.767)"/></clipPath><clipPath id="clipPath120" clipPathUnits="userSpaceOnUse"><path id="path120" d="M 0,0 H 126.8 V 127.533 H 0 Z" transform="translate(-63.767,-63.767)"/></clipPath><linearGradient id="linearGradient124" x1="0" x2="0" y1="0" y2="100.001" gradientUnits="userSpaceOnUse"><stop style="stop-opacity:1;stop-color:#78c6fa" id="stop120" offset="0"/><stop style="stop-opacity:1;stop-color:#78c6fa" id="stop121" offset=".25"/><stop style="stop-opacity:1;stop-color:#3caffd" id="stop122" offset=".5"/><stop style="stop-opacity:1;stop-color:#0098ff" id="stop123" offset=".75"/><stop style="stop-opacity:1;stop-color:#0098ff" id="stop124" offset="1"/></linearGradient><clipPath id="clipPath124" clipPathUnits="userSpaceOnUse"><path id="path124" d="m 0,0 c -8.11934,2.8082 -12.82893,4.07777 -21.2601,5.72859 -3.26074,0.49492 -6.32271,-1.63702 -6.83916,-4.7619 -0.33403,-2.02116 0.48273,-4.06026 2.14221,-5.34807 1.31639,-1.02157 3.02393,-1.46004 4.69695,-1.2061 8.43117,1.65082 13.14076,2.9204 21.2601,5.72858 z" transform="matrix(0.49264,0,0,-0.49264,17.719135,17.719532)"/></clipPath><clipPath id="clipPath125" clipPathUnits="userSpaceOnUse"><path id="path125" d="M 0,0 H 126.8 V 127.533 H 0 Z" transform="translate(-63.767,-63.767)"/></clipPath><clipPath id="clipPath126" clipPathUnits="userSpaceOnUse"><path id="path126" d="M 0,0 H 126.8 V 127.533 H 0 Z" transform="translate(-63.767,-63.767)"/></clipPath><linearGradient id="linearGradient130" x1="0" x2="0" y1="0" y2="100.001" gradientUnits="userSpaceOnUse"><stop style="stop-opacity:1;stop-color:#78c6fa" id="stop126" offset="0"/><stop style="stop-opacity:1;stop-color:#78c6fa" id="stop127" offset=".25"/><stop style="stop-opacity:1;stop-color:#3caffd" id="stop128" offset=".5"/><stop style="stop-opacity:1;stop-color:#0098ff" id="stop129" offset=".75"/><stop style="stop-opacity:1;stop-color:#0098ff" id="stop130" offset="1"/></linearGradient><clipPath id="clipPath130" clipPathUnits="userSpaceOnUse"><path id="path130" d="m 0,0 c -8.2193,-2.50052 -12.77573,-4.24164 -20.56702,-7.86177 -2.92891,-1.51621 -4.15298,-5.04077 -2.73405,-7.87241 0.91777,-1.83149 2.7771,-3.00108 4.8766,-3.06755 1.66545,-0.05272 3.30458,0.59623 4.50884,1.78502 5.85067,6.29123 8.91459,10.08658 13.83271,17.13086 z" transform="matrix(0.49264,0,0,-0.49264,17.719135,17.719532)"/></clipPath><clipPath id="clipPath131" clipPathUnits="userSpaceOnUse"><path id="path131" d="M 0,0 H 126.8 V 127.533 H 0 Z" transform="translate(-63.767,-63.767)"/></clipPath><clipPath id="clipPath132" clipPathUnits="userSpaceOnUse"><path id="path132" d="M 0,0 H 126.8 V 127.533 H 0 Z" transform="translate(-63.767,-63.767)"/></clipPath><linearGradient id="linearGradient136" x1="0" x2="0" y1="0" y2="100.001" gradientUnits="userSpaceOnUse"><stop style="stop-opacity:1;stop-color:#0098ff" id="stop132" offset="0"/><stop style="stop-opacity:1;stop-color:#0098ff" id="stop133" offset=".25"/><stop style="stop-opacity:1;stop-color:#3caffd" id="stop134" offset=".5"/><stop style="stop-opacity:1;stop-color:#78c6fa" id="stop135" offset=".75"/><stop style="stop-opacity:1;stop-color:#78c6fa" id="stop136" offset="1"/></linearGradient><clipPath id="clipPath136" clipPathUnits="userSpaceOnUse"><path id="path136" d="m 0,0 c -5.17981,-6.85422 -7.84262,-10.94102 -12.01805,-18.44948 -1.47833,-2.94824 -0.39695,-6.51916 2.41543,-7.97598 1.81905,-0.94224 4.01076,-0.79559 5.74836,0.38472 1.37837,0.93629 2.32303,2.42477 2.59851,4.09437 1.03537,8.52874 1.28328,13.4002 1.12156,21.98997 z" transform="matrix(0.49264,0,0,-0.49264,17.719135,17.719532)"/></clipPath><clipPath id="clipPath137" clipPathUnits="userSpaceOnUse"><path id="path137" d="M 0,0 H 126.8 V 127.533 H 0 Z" transform="translate(-63.767,-63.767)"/></clipPath><linearGradient id="linearGradient141" x1="0" x2="0" y1="0" y2="100.001" gradientUnits="userSpaceOnUse"><stop style="stop-opacity:1;stop-color:#0098ff" id="stop137" offset="0"/><stop style="stop-opacity:1;stop-color:#0098ff" id="stop138" offset=".25"/><stop style="stop-opacity:1;stop-color:#3caffd" id="stop139" offset=".5"/><stop style="stop-opacity:1;stop-color:#78c6fa" id="stop140" offset=".75"/><stop style="stop-opacity:1;stop-color:#78c6fa" id="stop141" offset="1"/></linearGradient><clipPath id="clipPath141" clipPathUnits="userSpaceOnUse"><path id="path141" d="m 0,0 c -0.16173,-8.5898 0.08617,-13.46124 1.12155,-21.98999 0.53693,-3.25411 3.51073,-5.50741 6.64229,-5.03293 2.02548,0.3069 3.7124,1.71379 4.42438,3.69002 0.56478,1.56766 0.45411,3.3271 -0.30437,4.8398 -4.17543,7.50848 -6.83824,11.59527 -12.01804,18.4495 z" transform="matrix(0.49264,0,0,-0.49264,17.719135,17.719532)"/></clipPath><clipPath id="clipPath142" clipPathUnits="userSpaceOnUse"><path id="path142" d="M -170.08092,-170.08092 V 170.08092 H 170.08092 V -170.08092 Z M 0,0 c 8.2193,2.50052 12.77573,4.24164 20.56702,7.86177 2.92891,1.51621 4.15298,5.04077 2.73405,7.87241 -0.91777,1.83149 -2.7771,3.00108 -4.8766,3.06755 C 16.75902,18.85445 15.11989,18.2055 13.91563,17.01671 8.06496,10.72548 5.00104,6.93013 0.08292,-0.11415 Z"/></clipPath><linearGradient id="linearGradient146" x1="0" x2="0" y1="0" y2="100.001" gradientUnits="userSpaceOnUse"><stop style="stop-opacity:1;stop-color:#0098ff" id="stop142" offset="0"/><stop style="stop-opacity:1;stop-color:#0098ff" id="stop143" offset=".25"/><stop style="stop-opacity:1;stop-color:#3caffd" id="stop144" offset=".5"/><stop style="stop-opacity:1;stop-color:#78c6fa" id="stop145" offset=".75"/><stop style="stop-opacity:1;stop-color:#78c6fa" id="stop146" offset="1"/></linearGradient><clipPath id="clipPath146" clipPathUnits="userSpaceOnUse"><path id="path146" d="m 0,0 c 4.9181,-7.0443 7.98203,-10.83963 13.8327,-17.13087 2.3471,-2.31701 6.0774,-2.39197 8.33196,-0.16744 1.45824,1.43884 1.99602,3.56857 1.41043,5.58585 -0.46454,1.60022 -1.58824,2.95857 -3.091,3.73652 -7.79131,3.62015 -12.34771,5.36125 -20.56701,7.86179 z" transform="matrix(0.49264,0,0,-0.49264,17.719135,17.719532)"/></clipPath><clipPath id="clipPath147" clipPathUnits="userSpaceOnUse"><path id="path147" d="M -170.08092,-170.08092 V 170.08092 H 170.08092 V -170.08092 Z M 0,0 c 8.2193,2.50052 12.77573,4.24164 20.56702,7.86177 2.92891,1.51621 4.15298,5.04077 2.73405,7.87241 -0.91777,1.83149 -2.7771,3.00108 -4.8766,3.06755 C 16.75902,18.85445 15.11989,18.2055 13.91563,17.01671 8.06496,10.72548 5.00104,6.93013 0.08292,-0.11415 Z"/></clipPath><linearGradient id="linearGradient151" x1="0" x2="0" y1="0" y2="100.001" gradientUnits="userSpaceOnUse"><stop style="stop-opacity:1;stop-color:#0098ff" id="stop147" offset="0"/><stop style="stop-opacity:1;stop-color:#0098ff" id="stop148" offset=".25"/><stop style="stop-opacity:1;stop-color:#3caffd" id="stop149" offset=".5"/><stop style="stop-opacity:1;stop-color:#78c6fa" id="stop150" offset=".75"/><stop style="stop-opacity:1;stop-color:#78c6fa" id="stop151" offset="1"/></linearGradient><clipPath id="clipPath151" clipPathUnits="userSpaceOnUse"><path id="path151" d="m 0,0 c 8.11934,-2.8082 12.82893,-4.07777 21.2601,-5.72859 3.26074,-0.49492 6.32271,1.63702 6.83916,4.7619 0.33403,2.02116 -0.48273,4.06026 -2.14221,5.34807 C 24.64066,5.40295 22.93312,5.84142 21.2601,5.58748 12.82893,3.93666 8.11934,2.66708 0,-0.1411 Z" transform="matrix(0.49264,0,0,-0.49264,17.719135,17.719532)"/></clipPath><clipPath id="clipPath152" clipPathUnits="userSpaceOnUse"><path id="path152" d="M -170.08092,-170.08092 V 170.08092 H 170.08092 V -170.08092 Z M 0,0 c 8.2193,2.50052 12.77573,4.24164 20.56702,7.86177 2.92891,1.51621 4.15298,5.04077 2.73405,7.87241 -0.91777,1.83149 -2.7771,3.00108 -4.8766,3.06755 C 16.75902,18.85445 15.11989,18.2055 13.91563,17.01671 8.06496,10.72548 5.00104,6.93013 0.08292,-0.11415 Z"/></clipPath><clipPath id="clipPath153" clipPathUnits="userSpaceOnUse"><path id="path153" d="M -170.08092,-170.08092 V 170.08092 H 170.08092 V -170.08092 Z M 0,0 C 5.17981,6.85422 7.84262,10.94102 12.01805,18.44948 13.49638,21.39772 12.415,24.96864 9.60262,26.42546 7.78357,27.3677 5.59186,27.22105 3.85426,26.04074 2.47589,25.10445 1.53123,23.61597 1.25575,21.94637 0.22038,13.41763 -0.02753,8.54617 0.13419,-0.0436 Z"/></clipPath><radialGradient id="radialGradient230" cx="50.001" cy="50.001" r="50.001" fx="50.001" fy="50.001" gradientUnits="userSpaceOnUse"><stop style="stop-opacity:1;stop-color:#0d1419" id="stop228" offset="0"/><stop style="stop-opacity:1;stop-color:#030405" id="stop229" offset=".5"/><stop style="stop-opacity:1;stop-color:#030405" id="stop230" offset="1"/></radialGradient><clipPath id="clipPath231" clipPathUnits="userSpaceOnUse"><path id="path231" d="M 5.44464,0 C 5.44464,3.00702 3.00702,5.44464 0,5.44464 -3.00702,5.44464 -5.44464,3.00702 -5.44464,0 c 0,-3.00702 2.43762,-5.44464 5.44464,-5.44464 3.00702,0 5.44464,2.43762 5.44464,5.44464 z" transform="matrix(0.49264,0,0,-0.49264,17.719135,17.719532)"/></clipPath></defs><g id="g1"><g id="g227" opacity=".755"><g id="g199" clip-path="url(#clipPath95)" opacity=".685"><path d="m 0,0 c 11.31586,-0.18292 17.64531,0.15697 28.87651,1.55084 3.28061,0.33719 5.71114,3.16766 5.42879,6.32212 -0.18265,2.04029 -1.48381,3.80986 -3.41274,4.64115 -1.53015,0.65941 -3.29295,0.65639 -4.84903,-0.0083 C 15.54462,8.28027 9.8439,5.50911 0.03531,-0.13658 Z" style="fill:#000;fill-opacity:1;fill-rule:nonzero;stroke:none" id="path154" clip-path="url(#clipPath1)" transform="matrix(0.49264,0,0,-0.49264,17.719135,17.719532)"/><g id="g155" clip-path="url(#clipPath5)"><path d="M 0,0 H 100 V 100 H 0 Z" transform="matrix(0,-0.13160878,-0.34082313,0,43.279914,21.100126)" style="fill:url(#linearGradient5);stroke:none" id="path155"/></g><path d="m 0,0 c 11.31586,-0.18292 17.64531,0.15697 28.87651,1.55084 3.28061,0.33719 5.71114,3.16766 5.42879,6.32212 -0.18265,2.04029 -1.48381,3.80986 -3.41274,4.64115 -1.53015,0.65941 -3.29295,0.65639 -4.84903,-0.0083 C 15.54462,8.28027 9.8439,5.50911 0.03531,-0.13658 Z" style="fill:none;stroke:#000;stroke-width:.19925;stroke-linecap:butt;stroke-linejoin:miter;stroke-miterlimit:10;stroke-dasharray:none;stroke-opacity:1" id="path156" clip-path="url(#clipPath6)" transform="matrix(0.49264,0,0,-0.49264,17.719135,17.719532)"/><path d="m 0,0 c 10.52481,4.16176 16.24255,6.8982 26.08566,12.48436 2.90192,1.56708 4.06423,5.11241 2.59609,7.91878 -0.9496,1.81514 -2.829,2.95206 -4.92929,2.98182 -1.66608,0.02362 -3.29361,-0.6538 -4.47689,-1.86341 C 11.19278,13.59938 6.98639,8.85733 0.0849,-0.11267 Z" style="fill:#000;fill-opacity:1;fill-rule:nonzero;stroke:none" id="path157" clip-path="url(#clipPath7)" transform="matrix(0.49264,0,0,-0.49264,17.719135,17.719532)"/><g id="g158" clip-path="url(#clipPath11)"><path d="M 0,0 H 100 V 100 H 0 Z" transform="matrix(0,-0.23177234,-0.29709148,0,40.000227,23.569903)" style="fill:url(#linearGradient11);stroke:none" id="path158"/></g><path d="m 0,0 c 10.52481,4.16176 16.24255,6.8982 26.08566,12.48436 2.90192,1.56708 4.06423,5.11241 2.59609,7.91878 -0.9496,1.81514 -2.829,2.95206 -4.92929,2.98182 -1.66608,0.02362 -3.29361,-0.6538 -4.47689,-1.86341 C 11.19278,13.59938 6.98639,8.85733 0.0849,-0.11267 Z" style="fill:none;stroke:#000;stroke-width:.19925;stroke-linecap:butt;stroke-linejoin:miter;stroke-miterlimit:10;stroke-dasharray:none;stroke-opacity:1" id="path159" clip-path="url(#clipPath12)" transform="matrix(0.49264,0,0,-0.49264,17.719135,17.719532)"/><path d="m 0,0 c 8.13058,7.87245 12.36569,12.58853 19.32143,21.51604 2.08122,2.55824 1.79827,6.27832 -0.63201,8.30912 -1.5719,1.31351 -3.74325,1.64463 -5.69497,0.8684 C 11.44623,30.0778 10.20192,28.82915 9.57164,27.25882 5.13611,16.8469 3.06476,10.85634 0.12157,-0.0716 Z" style="fill:#000;fill-opacity:1;fill-rule:nonzero;stroke:none" id="path160" clip-path="url(#clipPath13)" transform="matrix(0.49264,0,0,-0.49264,17.719135,17.719532)"/><g id="g161" clip-path="url(#clipPath17)"><path d="M 0,0 H 100 V 100 H 0 Z" transform="matrix(0.21089918,0,0,-0.31080658,12.446074,25.525856)" style="fill:url(#linearGradient17);stroke:none" id="path161"/></g><path d="m 0,0 c 8.13058,7.87245 12.36569,12.58853 19.32143,21.51604 2.08122,2.55824 1.79827,6.27832 -0.63201,8.30912 -1.5719,1.31351 -3.74325,1.64463 -5.69497,0.8684 C 11.44623,30.0778 10.20192,28.82915 9.57164,27.25882 5.13611,16.8469 3.06476,10.85634 0.12157,-0.0716 Z" style="fill:none;stroke:#000;stroke-width:.19925;stroke-linecap:butt;stroke-linejoin:miter;stroke-miterlimit:10;stroke-dasharray:none;stroke-opacity:1" id="path162" clip-path="url(#clipPath18)" transform="matrix(0.49264,0,0,-0.49264,17.719135,17.719532)"/><path d="m 0,0 c 4.49953,10.38515 6.60771,16.36324 9.61798,27.27357 0.94392,3.16012 -0.74113,6.489 -3.7637,7.43531 -1.955,0.61207 -4.08794,0.08703 -5.59416,-1.37706 C -0.9347,32.17043 -1.60652,30.54053 -1.5879,28.84846 -1.70161,17.53105 -1.32289,11.20345 0.13971,-0.01962 Z" style="fill:#000;fill-opacity:1;fill-rule:nonzero;stroke:none" id="path163" clip-path="url(#clipPath19)" transform="matrix(0.49264,0,0,-0.49264,17.719135,17.719532)"/><g id="g164" clip-path="url(#clipPath23)"><path d="M 0,0 H 100 V 100 H 0 Z" transform="matrix(0.12084459,0,0,-0.34824722,13.859374,26.436467)" style="fill:url(#linearGradient23);stroke:none" id="path164"/></g><path d="m 0,0 c 4.49953,10.38515 6.60771,16.36324 9.61798,27.27357 0.94392,3.16012 -0.74113,6.489 -3.7637,7.43531 -1.955,0.61207 -4.08794,0.08703 -5.59416,-1.37706 C -0.9347,32.17043 -1.60652,30.54053 -1.5879,28.84846 -1.70161,17.53105 -1.32289,11.20345 0.13971,-0.01962 Z" style="fill:none;stroke:#000;stroke-width:.19925;stroke-linecap:butt;stroke-linejoin:miter;stroke-miterlimit:10;stroke-dasharray:none;stroke-opacity:1" id="path165" clip-path="url(#clipPath24)" transform="matrix(0.49264,0,0,-0.49264,17.719135,17.719532)"/><path d="m 0,0 c 0.18292,11.31586 -0.15697,17.64531 -1.55084,28.87651 -0.33719,3.28061 -3.16766,5.71114 -6.32212,5.42879 -2.04029,-0.18265 -3.80986,-1.48381 -4.64115,-3.41274 -0.65941,-1.53015 -0.65639,-3.29295 0.0083,-4.84903 C -8.28027,15.54462 -5.50911,9.8439 0.13658,0.03531 Z" style="fill:#000;fill-opacity:1;fill-rule:nonzero;stroke:none" id="path166" clip-path="url(#clipPath25)" transform="matrix(0.49264,0,0,-0.49264,17.719135,17.719532)"/><g id="g167" clip-path="url(#clipPath29)"><path d="M 0,0 H 100 V 100 H 0 Z" transform="matrix(0.13160878,0,0,-0.34082313,7.9388514,26.241066)" style="fill:url(#linearGradient29);stroke:none" id="path167"/></g><path d="m 0,0 c 0.18292,11.31586 -0.15697,17.64531 -1.55084,28.87651 -0.33719,3.28061 -3.16766,5.71114 -6.32212,5.42879 -2.04029,-0.18265 -3.80986,-1.48381 -4.64115,-3.41274 -0.65941,-1.53015 -0.65639,-3.29295 0.0083,-4.84903 C -8.28027,15.54462 -5.50911,9.8439 0.13658,0.03531 Z" style="fill:none;stroke:#000;stroke-width:.19925;stroke-linecap:butt;stroke-linejoin:miter;stroke-miterlimit:10;stroke-dasharray:none;stroke-opacity:1" id="path168" clip-path="url(#clipPath30)" transform="matrix(0.49264,0,0,-0.49264,17.719135,17.719532)"/><path d="m 0,0 c -4.16176,10.52481 -6.8982,16.24255 -12.48436,26.08566 -1.56708,2.90192 -5.11241,4.06423 -7.91878,2.59609 -1.81514,-0.9496 -2.95206,-2.829 -2.98182,-4.92929 -0.02362,-1.66608 0.6538,-3.29361 1.86341,-4.47689 C -13.59938,11.19278 -8.85733,6.98639 0.11267,0.0849 Z" style="fill:#000;fill-opacity:1;fill-rule:nonzero;stroke:none" id="path169" clip-path="url(#clipPath31)" transform="matrix(0.49264,0,0,-0.49264,17.719135,17.719532)"/><g id="g170" clip-path="url(#clipPath35)"><path d="M 0,0 H 100 V 100 H 0 Z" transform="matrix(0.23177234,0,0,-0.29709148,0.39227165,25.147587)" style="fill:url(#linearGradient35);stroke:none" id="path170"/></g><path d="m 0,0 c -4.16176,10.52481 -6.8982,16.24255 -12.48436,26.08566 -1.56708,2.90192 -5.11241,4.06423 -7.91878,2.59609 -1.81514,-0.9496 -2.95206,-2.829 -2.98182,-4.92929 -0.02362,-1.66608 0.6538,-3.29361 1.86341,-4.47689 C -13.59938,11.19278 -8.85733,6.98639 0.11267,0.0849 Z" style="fill:none;stroke:#000;stroke-width:.19925;stroke-linecap:butt;stroke-linejoin:miter;stroke-miterlimit:10;stroke-dasharray:none;stroke-opacity:1" id="path171" clip-path="url(#clipPath36)" transform="matrix(0.49264,0,0,-0.49264,17.719135,17.719532)"/><path d="m 0,0 c -7.87245,8.13058 -12.58853,12.36569 -21.51604,19.32143 -2.55824,2.08122 -6.27832,1.79827 -8.30912,-0.63201 -1.31351,-1.5719 -1.64463,-3.74325 -0.8684,-5.69497 0.61576,-1.54822 1.86441,-2.79253 3.43474,-3.42281 C -16.8469,5.13611 -10.85634,3.06476 0.0716,0.12157 Z" style="fill:#000;fill-opacity:1;fill-rule:nonzero;stroke:none" id="path172" clip-path="url(#clipPath37)" transform="matrix(0.49264,0,0,-0.49264,17.719135,17.719532)"/><g id="g173" clip-path="url(#clipPath41)"><path d="M 0,0 H 100 V 100 H 0 Z" transform="matrix(0,-0.21089918,-0.31080658,0,25.525459,22.992593)" style="fill:url(#linearGradient41);stroke:none" id="path173"/></g><path d="m 0,0 c -7.87245,8.13058 -12.58853,12.36569 -21.51604,19.32143 -2.55824,2.08122 -6.27832,1.79827 -8.30912,-0.63201 -1.31351,-1.5719 -1.64463,-3.74325 -0.8684,-5.69497 0.61576,-1.54822 1.86441,-2.79253 3.43474,-3.42281 C -16.8469,5.13611 -10.85634,3.06476 0.0716,0.12157 Z" style="fill:none;stroke:#000;stroke-width:.19925;stroke-linecap:butt;stroke-linejoin:miter;stroke-miterlimit:10;stroke-dasharray:none;stroke-opacity:1" id="path174" clip-path="url(#clipPath42)" transform="matrix(0.49264,0,0,-0.49264,17.719135,17.719532)"/><path d="m 0,0 c -10.38515,4.49953 -16.36324,6.60771 -27.27357,9.61798 -3.16012,0.94392 -6.489,-0.74113 -7.43531,-3.7637 -0.61207,-1.955 -0.08703,-4.08794 1.37706,-5.59416 1.16139,-1.19482 2.79129,-1.86664 4.48336,-1.84802 11.31741,-0.11371 17.64501,0.26501 28.86808,1.72761 z" style="fill:#000;fill-opacity:1;fill-rule:nonzero;stroke:none" id="path175" clip-path="url(#clipPath43)" transform="matrix(0.49264,0,0,-0.49264,17.719135,17.719532)"/><g id="g176" clip-path="url(#clipPath47)"><path d="M 0,0 H 100 V 100 H 0 Z" transform="matrix(0,-0.12084459,-0.34824722,0,26.43607,21.579292)" style="fill:url(#linearGradient47);stroke:none" id="path176"/></g><path d="m 0,0 c -10.38515,4.49953 -16.36324,6.60771 -27.27357,9.61798 -3.16012,0.94392 -6.489,-0.74113 -7.43531,-3.7637 -0.61207,-1.955 -0.08703,-4.08794 1.37706,-5.59416 1.16139,-1.19482 2.79129,-1.86664 4.48336,-1.84802 11.31741,-0.11371 17.64501,0.26501 28.86808,1.72761 z" style="fill:none;stroke:#000;stroke-width:.19925;stroke-linecap:butt;stroke-linejoin:miter;stroke-miterlimit:10;stroke-dasharray:none;stroke-opacity:1" id="path177" clip-path="url(#clipPath48)" transform="matrix(0.49264,0,0,-0.49264,17.719135,17.719532)"/><path d="m 0,0 c -11.31586,0.18292 -17.64531,-0.15697 -28.87651,-1.55084 -3.28061,-0.33719 -5.71114,-3.16766 -5.42879,-6.32212 0.18265,-2.04029 1.48381,-3.80986 3.41274,-4.64115 1.53015,-0.65941 3.29295,-0.65639 4.84903,0.0083 10.49891,4.22557 16.19963,6.99673 26.00822,12.64242 z" style="fill:#000;fill-opacity:1;fill-rule:nonzero;stroke:none" id="path178" clip-path="url(#clipPath49)" transform="matrix(0.49264,0,0,-0.49264,17.719135,17.719532)"/><g id="g179" clip-path="url(#clipPath53)"><path d="M 0,0 H 100 V 100 H 0 Z" transform="matrix(0,-0.13160878,-0.34082313,0,26.240669,27.499815)" style="fill:url(#linearGradient53);stroke:none" id="path179"/></g><path d="m 0,0 c -11.31586,0.18292 -17.64531,-0.15697 -28.87651,-1.55084 -3.28061,-0.33719 -5.71114,-3.16766 -5.42879,-6.32212 0.18265,-2.04029 1.48381,-3.80986 3.41274,-4.64115 1.53015,-0.65941 3.29295,-0.65639 4.84903,0.0083 10.49891,4.22557 16.19963,6.99673 26.00822,12.64242 z" style="fill:none;stroke:#000;stroke-width:.19925;stroke-linecap:butt;stroke-linejoin:miter;stroke-miterlimit:10;stroke-dasharray:none;stroke-opacity:1" id="path180" clip-path="url(#clipPath54)" transform="matrix(0.49264,0,0,-0.49264,17.719135,17.719532)"/><path d="m 0,0 c -10.52481,-4.16176 -16.24255,-6.8982 -26.08566,-12.48436 -2.90192,-1.56708 -4.06423,-5.11241 -2.59609,-7.91878 0.9496,-1.81514 2.829,-2.95206 4.92929,-2.98182 1.66608,-0.02362 3.29361,0.6538 4.47689,1.86341 8.08279,7.92217 12.28918,12.66422 19.19067,21.63422 z" style="fill:#000;fill-opacity:1;fill-rule:nonzero;stroke:none" id="path181" clip-path="url(#clipPath55)" transform="matrix(0.49264,0,0,-0.49264,17.719135,17.719532)"/><g id="g182" clip-path="url(#clipPath59)"><path d="M 0,0 H 100 V 100 H 0 Z" transform="matrix(0.29709148,0,0,-0.23177234,-4.5619576,35.046395)" style="fill:url(#linearGradient59);stroke:none" id="path182"/></g><path d="m 0,0 c -10.52481,-4.16176 -16.24255,-6.8982 -26.08566,-12.48436 -2.90192,-1.56708 -4.06423,-5.11241 -2.59609,-7.91878 0.9496,-1.81514 2.829,-2.95206 4.92929,-2.98182 1.66608,-0.02362 3.29361,0.6538 4.47689,1.86341 8.08279,7.92217 12.28918,12.66422 19.19067,21.63422 z" style="fill:none;stroke:#000;stroke-width:.19925;stroke-linecap:butt;stroke-linejoin:miter;stroke-miterlimit:10;stroke-dasharray:none;stroke-opacity:1" id="path183" clip-path="url(#clipPath60)" transform="matrix(0.49264,0,0,-0.49264,17.719135,17.719532)"/><path d="m 0,0 c -8.13058,-7.87245 -12.36569,-12.58853 -19.32143,-21.51604 -2.08122,-2.55824 -1.79827,-6.27832 0.63201,-8.30912 1.5719,-1.31351 3.74325,-1.64463 5.69497,-0.8684 1.54822,0.61576 2.79253,1.86441 3.42281,3.43474 4.43553,10.41192 6.50688,16.40248 9.45007,27.33042 z" style="fill:#000;fill-opacity:1;fill-rule:nonzero;stroke:none" id="path184" clip-path="url(#clipPath61)" transform="matrix(0.49264,0,0,-0.49264,17.719135,17.719532)"/><g id="g185" clip-path="url(#clipPath65)"><path d="M 0,0 H 100 V 100 H 0 Z" transform="matrix(0.21089918,0,0,-0.31080658,1.9022773,40.993865)" style="fill:url(#linearGradient65);stroke:none" id="path185"/></g><path d="m 0,0 c -8.13058,-7.87245 -12.36569,-12.58853 -19.32143,-21.51604 -2.08122,-2.55824 -1.79827,-6.27832 0.63201,-8.30912 1.5719,-1.31351 3.74325,-1.64463 5.69497,-0.8684 1.54822,0.61576 2.79253,1.86441 3.42281,3.43474 4.43553,10.41192 6.50688,16.40248 9.45007,27.33042 z" style="fill:none;stroke:#000;stroke-width:.19925;stroke-linecap:butt;stroke-linejoin:miter;stroke-miterlimit:10;stroke-dasharray:none;stroke-opacity:1" id="path186" clip-path="url(#clipPath66)" transform="matrix(0.49264,0,0,-0.49264,17.719135,17.719532)"/><path d="m 0,0 c -4.49953,-10.38515 -6.60771,-16.36324 -9.61798,-27.27357 -0.94392,-3.16012 0.74113,-6.489 3.7637,-7.43531 1.955,-0.61207 4.08794,-0.08703 5.59416,1.37706 1.19482,1.16139 1.86664,2.79129 1.84802,4.48336 0.11371,11.31741 -0.26501,17.64501 -1.72761,28.86808 z" style="fill:#000;fill-opacity:1;fill-rule:nonzero;stroke:none" id="path187" clip-path="url(#clipPath67)" transform="matrix(0.49264,0,0,-0.49264,17.719135,17.719532)"/><g id="g188" clip-path="url(#clipPath71)"><path d="M 0,0 H 100 V 100 H 0 Z" transform="matrix(0.12084459,0,0,-0.34824722,9.4944361,43.827319)" style="fill:url(#linearGradient71);stroke:none" id="path188"/></g><path d="m 0,0 c -4.49953,-10.38515 -6.60771,-16.36324 -9.61798,-27.27357 -0.94392,-3.16012 0.74113,-6.489 3.7637,-7.43531 1.955,-0.61207 4.08794,-0.08703 5.59416,1.37706 1.19482,1.16139 1.86664,2.79129 1.84802,4.48336 0.11371,11.31741 -0.26501,17.64501 -1.72761,28.86808 z" style="fill:none;stroke:#000;stroke-width:.19925;stroke-linecap:butt;stroke-linejoin:miter;stroke-miterlimit:10;stroke-dasharray:none;stroke-opacity:1" id="path189" clip-path="url(#clipPath72)" transform="matrix(0.49264,0,0,-0.49264,17.719135,17.719532)"/><path d="m 0,0 c -0.18292,-11.31586 0.15697,-17.64531 1.55084,-28.87651 0.33719,-3.28061 3.16766,-5.71114 6.32212,-5.42879 2.04029,0.18265 3.80986,1.48381 4.64115,3.41274 0.65941,1.53015 0.65639,3.29295 -0.0083,4.84903 -4.22554,10.49891 -6.9967,16.19963 -12.64239,26.00822 z" style="fill:#000;fill-opacity:1;fill-rule:nonzero;stroke:none" id="path190" clip-path="url(#clipPath73)" transform="matrix(0.49264,0,0,-0.49264,17.719135,17.719532)"/><g id="g191" clip-path="url(#clipPath77)"><path d="M 0,0 H 100 V 100 H 0 Z" transform="matrix(0.13160878,0,0,-0.34082313,14.338541,43.280311)" style="fill:url(#linearGradient77);stroke:none" id="path191"/></g><path d="m 0,0 c -0.18292,-11.31586 0.15697,-17.64531 1.55084,-28.87651 0.33719,-3.28061 3.16766,-5.71114 6.32212,-5.42879 2.04029,0.18265 3.80986,1.48381 4.64115,3.41274 0.65941,1.53015 0.65639,3.29295 -0.0083,4.84903 -4.22554,10.49891 -6.9967,16.19963 -12.64239,26.00822 z" style="fill:none;stroke:#000;stroke-width:.19925;stroke-linecap:butt;stroke-linejoin:miter;stroke-miterlimit:10;stroke-dasharray:none;stroke-opacity:1" id="path192" clip-path="url(#clipPath78)" transform="matrix(0.49264,0,0,-0.49264,17.719135,17.719532)"/><g id="g193" clip-path="url(#clipPath82)"><path d="M 0,0 H 100 V 100 H 0 Z" transform="matrix(0.23177234,0,0,-0.29709148,11.868764,40.000624)" style="fill:url(#linearGradient82);stroke:none" id="path193"/></g><path d="m 0,0 c 4.16176,-10.52481 6.8982,-16.24255 12.48436,-26.08566 1.56708,-2.90192 5.11241,-4.06423 7.91878,-2.59609 1.81514,0.9496 2.95206,2.829 2.98182,4.92929 0.02362,1.66608 -0.6538,3.29361 -1.86341,4.47689 -7.92217,8.08279 -12.66422,12.28918 -21.63422,19.19067 z" style="fill:none;stroke:#000;stroke-width:.19925;stroke-linecap:butt;stroke-linejoin:miter;stroke-miterlimit:10;stroke-dasharray:none;stroke-opacity:1" id="path194" clip-path="url(#clipPath83)" transform="matrix(0.49264,0,0,-0.49264,17.719135,17.719532)"/><g id="g195" clip-path="url(#clipPath87)"><path d="M 0,0 H 100 V 100 H 0 Z" transform="matrix(0,-0.21296827,-0.30953064,0,40.897305,33.69163)" style="fill:url(#linearGradient87);stroke:none" id="path195"/></g><path d="m 0,0 c 7.80153,-8.19934 12.48068,-12.47565 21.34749,-19.50932 2.5401,-2.10356 6.26266,-1.85309 8.3147,0.55948 1.32724,1.56044 1.67731,3.72889 0.9181,5.68742 -0.60225,1.5536 -1.84006,2.80885 -3.40487,3.4528 -10.37325,4.52643 -16.3458,6.65009 -27.24808,9.68868 z" style="fill:none;stroke:#000;stroke-width:.19925;stroke-linecap:butt;stroke-linejoin:miter;stroke-miterlimit:10;stroke-dasharray:none;stroke-opacity:1" id="path196" clip-path="url(#clipPath88)" transform="matrix(0.49264,0,0,-0.49264,17.719135,17.719532)"/><g id="g197" clip-path="url(#clipPath92)"><path d="M 0,0 H 100 V 100 H 0 Z" transform="matrix(0,-0.12084459,-0.34824722,0,43.826922,25.944231)" style="fill:url(#linearGradient92);stroke:none" id="path197"/></g><path d="m 0,0 c 10.38515,-4.49953 16.36324,-6.60771 27.27357,-9.61798 3.16012,-0.94392 6.489,0.74113 7.43531,3.7637 0.61207,1.955 0.08703,4.08794 -1.37706,5.59416 C 32.17043,0.9347 30.54053,1.60652 28.84846,1.5879 17.53105,1.70161 11.20345,1.32289 -0.01962,-0.13971 Z" style="fill:none;stroke:#000;stroke-width:.19925;stroke-linecap:butt;stroke-linejoin:miter;stroke-miterlimit:10;stroke-dasharray:none;stroke-opacity:1" id="path198" clip-path="url(#clipPath93)" transform="matrix(0.49264,0,0,-0.49264,17.719135,17.719532)"/><path d="m 0,0 c 11.31586,-0.18292 17.64531,0.15697 28.87651,1.55084 3.28061,0.33719 5.71114,3.16766 5.42879,6.32212 -0.18265,2.04029 -1.48381,3.80986 -3.41274,4.64115 -1.53015,0.65941 -3.29295,0.65639 -4.84903,-0.0083" style="fill:none;stroke:#000;stroke-width:.19925;stroke-linecap:butt;stroke-linejoin:miter;stroke-miterlimit:10;stroke-dasharray:none;stroke-opacity:1" id="path199" clip-path="url(#clipPath94)" transform="matrix(0.49264,0,0,-0.49264,17.719135,17.719532)"/></g><path d="m 0,0 c 8.2193,2.50052 12.77573,4.24164 20.56702,7.86177 2.92891,1.51621 4.15298,5.04077 2.73405,7.87241 -0.91777,1.83149 -2.7771,3.00108 -4.8766,3.06755 C 16.75902,18.85445 15.11989,18.2055 13.91563,17.01671 8.06496,10.72548 5.00104,6.93013 0.08292,-0.11415 Z" style="fill:#000;fill-opacity:1;fill-rule:nonzero;stroke:none" id="path200" clip-path="url(#clipPath96)" transform="matrix(0.49264,0,0,-0.49264,17.719135,17.719532)"/><g id="g201" clip-path="url(#clipPath100)"><path d="M 0,0 H 100 V 100 H 0 Z" transform="matrix(0,-0.18691254,-0.24358585,0,35.987453,22.449048)" style="fill:url(#linearGradient100);stroke:none" id="path201"/></g><path d="m 0,0 c 8.2193,2.50052 12.77573,4.24164 20.56702,7.86177 2.92891,1.51621 4.15298,5.04077 2.73405,7.87241 -0.91777,1.83149 -2.7771,3.00108 -4.8766,3.06755 C 16.75902,18.85445 15.11989,18.2055 13.91563,17.01671 8.06496,10.72548 5.00104,6.93013 0.08292,-0.11415 Z" style="fill:none;stroke:#000;stroke-width:.19925;stroke-linecap:butt;stroke-linejoin:miter;stroke-miterlimit:10;stroke-dasharray:none;stroke-opacity:1" id="path202" clip-path="url(#clipPath101)" transform="matrix(0.49264,0,0,-0.49264,17.719135,17.719532)"/><path d="M 0,0 C 5.17981,6.85422 7.84262,10.94102 12.01805,18.44948 13.49638,21.39772 12.415,24.96864 9.60262,26.42546 7.78357,27.3677 5.59186,27.22105 3.85426,26.04074 2.47589,25.10445 1.53123,23.61597 1.25575,21.94637 0.22038,13.41763 -0.02753,8.54617 0.13419,-0.0436 Z" style="fill:#000;fill-opacity:1;fill-rule:nonzero;stroke:none" id="path203" clip-path="url(#clipPath102)" transform="matrix(0.49264,0,0,-0.49264,17.719135,17.719532)"/><g id="g204" clip-path="url(#clipPath106)"><path d="M 0,0 H 100 V 100 H 0 Z" transform="matrix(0.13326405,0,0,-0.27010466,14.373577,24.494293)" style="fill:url(#linearGradient106);stroke:none" id="path204"/></g><path d="M 0,0 C 5.17981,6.85422 7.84262,10.94102 12.01805,18.44948 13.49638,21.39772 12.415,24.96864 9.60262,26.42546 7.78357,27.3677 5.59186,27.22105 3.85426,26.04074 2.47589,25.10445 1.53123,23.61597 1.25575,21.94637 0.22038,13.41763 -0.02753,8.54617 0.13419,-0.0436 Z" style="fill:none;stroke:#000;stroke-width:.19925;stroke-linecap:butt;stroke-linejoin:miter;stroke-miterlimit:10;stroke-dasharray:none;stroke-opacity:1" id="path205" clip-path="url(#clipPath107)" transform="matrix(0.49264,0,0,-0.49264,17.719135,17.719532)"/><path d="m 0,0 c 0.16173,8.5898 -0.08617,13.46124 -1.12155,21.98999 -0.53693,3.25411 -3.51073,5.50741 -6.64229,5.03293 -2.02548,-0.3069 -3.7124,-1.71379 -4.42438,-3.69002 -0.56478,-1.56766 -0.45411,-3.3271 0.30437,-4.8398 C -7.70842,10.98462 -5.04561,6.89783 0.13419,0.0436 Z" style="fill:#000;fill-opacity:1;fill-rule:nonzero;stroke:none" id="path206" clip-path="url(#clipPath108)" transform="matrix(0.49264,0,0,-0.49264,17.719135,17.719532)"/><g id="g207" clip-path="url(#clipPath112)"><path d="M 0,0 H 100 V 100 H 0 Z" transform="matrix(0.12725876,0,0,-0.270952,8.2547124,24.493977)" style="fill:url(#linearGradient112);stroke:none" id="path207"/></g><path d="m 0,0 c 0.16173,8.5898 -0.08617,13.46124 -1.12155,21.98999 -0.53693,3.25411 -3.51073,5.50741 -6.64229,5.03293 -2.02548,-0.3069 -3.7124,-1.71379 -4.42438,-3.69002 -0.56478,-1.56766 -0.45411,-3.3271 0.30437,-4.8398 C -7.70842,10.98462 -5.04561,6.89783 0.13419,0.0436 Z" style="fill:none;stroke:#000;stroke-width:.19925;stroke-linecap:butt;stroke-linejoin:miter;stroke-miterlimit:10;stroke-dasharray:none;stroke-opacity:1" id="path208" clip-path="url(#clipPath113)" transform="matrix(0.49264,0,0,-0.49264,17.719135,17.719532)"/><path d="m 0,0 c -4.9181,7.0443 -7.98203,10.83963 -13.8327,17.13087 -2.3471,2.31701 -6.0774,2.39197 -8.33196,0.16744 -1.45824,-1.43884 -1.99602,-3.56857 -1.41043,-5.58585 0.46454,-1.60022 1.58824,-2.95857 3.091,-3.73652 7.79131,-3.62015 12.34771,-5.36125 20.56701,-7.86179 z" style="fill:#000;fill-opacity:1;fill-rule:nonzero;stroke:none" id="path209" clip-path="url(#clipPath114)" transform="matrix(0.49264,0,0,-0.49264,17.719135,17.719532)"/><g id="g210" clip-path="url(#clipPath118)"><path d="M 0,0 H 100 V 100 H 0 Z" transform="matrix(0,-0.19237592,-0.23889099,0,23.73285,22.529467)" style="fill:url(#linearGradient118);stroke:none" id="path210"/></g><path d="m 0,0 c -4.9181,7.0443 -7.98203,10.83963 -13.8327,17.13087 -2.3471,2.31701 -6.0774,2.39197 -8.33196,0.16744 -1.45824,-1.43884 -1.99602,-3.56857 -1.41043,-5.58585 0.46454,-1.60022 1.58824,-2.95857 3.091,-3.73652 7.79131,-3.62015 12.34771,-5.36125 20.56701,-7.86179 z" style="fill:none;stroke:#000;stroke-width:.19925;stroke-linecap:butt;stroke-linejoin:miter;stroke-miterlimit:10;stroke-dasharray:none;stroke-opacity:1" id="path211" clip-path="url(#clipPath119)" transform="matrix(0.49264,0,0,-0.49264,17.719135,17.719532)"/><path d="m 0,0 c -8.11934,2.8082 -12.82893,4.07777 -21.2601,5.72859 -3.26074,0.49492 -6.32271,-1.63702 -6.83916,-4.7619 -0.33403,-2.02116 0.48273,-4.06026 2.14221,-5.34807 1.31639,-1.02157 3.02393,-1.46004 4.69695,-1.2061 8.43117,1.65082 13.14076,2.9204 21.2601,5.72858 z" style="fill:#000;fill-opacity:1;fill-rule:nonzero;stroke:none" id="path212" clip-path="url(#clipPath120)" transform="matrix(0.49264,0,0,-0.49264,17.719135,17.719532)"/><g id="g213" clip-path="url(#clipPath124)"><path d="M 0,0 H 100 V 100 H 0 Z" transform="matrix(0,-0.11888388,-0.28017915,0,24.724407,23.569612)" style="fill:url(#linearGradient124);stroke:none" id="path213"/></g><path d="m 0,0 c -8.11934,2.8082 -12.82893,4.07777 -21.2601,5.72859 -3.26074,0.49492 -6.32271,-1.63702 -6.83916,-4.7619 -0.33403,-2.02116 0.48273,-4.06026 2.14221,-5.34807 1.31639,-1.02157 3.02393,-1.46004 4.69695,-1.2061 8.43117,1.65082 13.14076,2.9204 21.2601,5.72858 z" style="fill:none;stroke:#000;stroke-width:.19925;stroke-linecap:butt;stroke-linejoin:miter;stroke-miterlimit:10;stroke-dasharray:none;stroke-opacity:1" id="path214" clip-path="url(#clipPath125)" transform="matrix(0.49264,0,0,-0.49264,17.719135,17.719532)"/><path d="m 0,0 c -8.2193,-2.50052 -12.77573,-4.24164 -20.56702,-7.86177 -2.92891,-1.51621 -4.15298,-5.04077 -2.73405,-7.87241 0.91777,-1.83149 2.7771,-3.00108 4.8766,-3.06755 1.66545,-0.05272 3.30458,0.59623 4.50884,1.78502 5.85067,6.29123 8.91459,10.08658 13.83271,17.13086 z" style="fill:#000;fill-opacity:1;fill-rule:nonzero;stroke:none" id="path215" clip-path="url(#clipPath126)" transform="matrix(0.49264,0,0,-0.49264,17.719135,17.719532)"/><g id="g216" clip-path="url(#clipPath130)"><path d="M 0,0 H 100 V 100 H 0 Z" transform="matrix(0,-0.18691254,-0.24358585,0,23.809402,31.68127)" style="fill:url(#linearGradient130);stroke:none" id="path216"/></g><path d="m 0,0 c -8.2193,-2.50052 -12.77573,-4.24164 -20.56702,-7.86177 -2.92891,-1.51621 -4.15298,-5.04077 -2.73405,-7.87241 0.91777,-1.83149 2.7771,-3.00108 4.8766,-3.06755 1.66545,-0.05272 3.30458,0.59623 4.50884,1.78502 5.85067,6.29123 8.91459,10.08658 13.83271,17.13086 z" style="fill:none;stroke:#000;stroke-width:.19925;stroke-linecap:butt;stroke-linejoin:miter;stroke-miterlimit:10;stroke-dasharray:none;stroke-opacity:1" id="path217" clip-path="url(#clipPath131)" transform="matrix(0.49264,0,0,-0.49264,17.719135,17.719532)"/><path d="m 0,0 c -5.17981,-6.85422 -7.84262,-10.94102 -12.01805,-18.44948 -1.47833,-2.94824 -0.39695,-6.51916 2.41543,-7.97598 1.81905,-0.94224 4.01076,-0.79559 5.74836,0.38472 1.37837,0.93629 2.32303,2.42477 2.59851,4.09437 1.03537,8.52874 1.28328,13.4002 1.12156,21.98997 z" style="fill:#000;fill-opacity:1;fill-rule:nonzero;stroke:none" id="path218" clip-path="url(#clipPath132)" transform="matrix(0.49264,0,0,-0.49264,17.719135,17.719532)"/><g id="g219" clip-path="url(#clipPath136)"><path d="M 0,0 H 100 V 100 H 0 Z" transform="matrix(0.13326405,0,0,-0.27010466,7.7382878,37.955237)" style="fill:url(#linearGradient136);stroke:none" id="path219"/></g><path d="m 0,0 c -5.17981,-6.85422 -7.84262,-10.94102 -12.01805,-18.44948 -1.47833,-2.94824 -0.39695,-6.51916 2.41543,-7.97598 1.81905,-0.94224 4.01076,-0.79559 5.74836,0.38472 1.37837,0.93629 2.32303,2.42477 2.59851,4.09437 1.03537,8.52874 1.28328,13.4002 1.12156,21.98997 z" style="fill:none;stroke:#000;stroke-width:.19925;stroke-linecap:butt;stroke-linejoin:miter;stroke-miterlimit:10;stroke-dasharray:none;stroke-opacity:1" id="path220" clip-path="url(#clipPath137)" transform="matrix(0.49264,0,0,-0.49264,17.719135,17.719532)"/><g id="g221" clip-path="url(#clipPath141)"><path d="M 0,0 H 100 V 100 H 0 Z" transform="matrix(0.12725876,0,0,-0.270952,14.457681,38.040287)" style="fill:url(#linearGradient141);stroke:none" id="path221"/></g><path d="m 0,0 c -0.16173,-8.5898 0.08617,-13.46124 1.12155,-21.98999 0.53693,-3.25411 3.51073,-5.50741 6.64229,-5.03293 2.02548,0.3069 3.7124,1.71379 4.42438,3.69002 0.56478,1.56766 0.45411,3.3271 -0.30437,4.8398 -4.17543,7.50848 -6.83824,11.59527 -12.01804,18.4495 z" style="fill:none;stroke:#000;stroke-width:.19925;stroke-linecap:butt;stroke-linejoin:miter;stroke-miterlimit:10;stroke-dasharray:none;stroke-opacity:1" id="path222" clip-path="url(#clipPath142)" transform="matrix(0.49264,0,0,-0.49264,17.719135,17.719532)"/><g id="g223" clip-path="url(#clipPath146)"><path d="M 0,0 H 100 V 100 H 0 Z" transform="matrix(0,-0.19237592,-0.23889099,0,35.594518,32.147189)" style="fill:url(#linearGradient146);stroke:none" id="path223"/></g><path d="m 0,0 c 4.9181,-7.0443 7.98203,-10.83963 13.8327,-17.13087 2.3471,-2.31701 6.0774,-2.39197 8.33196,-0.16744 1.45824,1.43884 1.99602,3.56857 1.41043,5.58585 -0.46454,1.60022 -1.58824,2.95857 -3.091,3.73652 -7.79131,3.62015 -12.34771,5.36125 -20.56701,7.86179 z" style="fill:none;stroke:#000;stroke-width:.19925;stroke-linecap:butt;stroke-linejoin:miter;stroke-miterlimit:10;stroke-dasharray:none;stroke-opacity:1" id="path224" clip-path="url(#clipPath147)" transform="matrix(0.49264,0,0,-0.49264,17.719135,17.719532)"/><g id="g225" clip-path="url(#clipPath151)"><path d="M 0,0 H 100 V 100 H 0 Z" transform="matrix(0,-0.11888388,-0.28017915,0,38.731778,23.75784)" style="fill:url(#linearGradient151);stroke:none" id="path225"/></g><path d="m 0,0 c 8.11934,-2.8082 12.82893,-4.07777 21.2601,-5.72859 3.26074,-0.49492 6.32271,1.63702 6.83916,4.7619 0.33403,2.02116 -0.48273,4.06026 -2.14221,5.34807 C 24.64066,5.40295 22.93312,5.84142 21.2601,5.58748 12.82893,3.93666 8.11934,2.66708 0,-0.1411 Z" style="fill:none;stroke:#000;stroke-width:.19925;stroke-linecap:butt;stroke-linejoin:miter;stroke-miterlimit:10;stroke-dasharray:none;stroke-opacity:1" id="path226" clip-path="url(#clipPath152)" transform="matrix(0.49264,0,0,-0.49264,17.719135,17.719532)"/><path d="m 0,0 c 8.2193,2.50052 12.77573,4.24164 20.56702,7.86177 2.92891,1.51621 4.15298,5.04077 2.73405,7.87241 -0.91777,1.83149 -2.7771,3.00108 -4.8766,3.06755 -1.66545,0.05272 -3.30458,-0.59623 -4.50884,-1.78502" style="fill:none;stroke:#000;stroke-width:.19925;stroke-linecap:butt;stroke-linejoin:miter;stroke-miterlimit:10;stroke-dasharray:none;stroke-opacity:1" id="path227" clip-path="url(#clipPath153)" transform="matrix(0.49264,0,0,-0.49264,17.719135,17.719532)"/></g><path id="path228" d="M 5.44464,0 C 5.44464,3.00702 3.00702,5.44464 0,5.44464 -3.00702,5.44464 -5.44464,3.00702 -5.44464,0 c 0,-3.00702 2.43762,-5.44464 5.44464,-5.44464 3.00702,0 5.44464,2.43762 5.44464,5.44464 z" style="fill:#000;fill-opacity:1;fill-rule:nonzero;stroke:none" transform="matrix(0.49264,0,0,-0.49264,17.719135,17.719532)"/><g id="g230" clip-path="url(#clipPath231)"><path d="M 0,0 H 100 V 100 H 0 Z" transform="matrix(0.10729699,0,0,-0.10729699,12.354285,23.084381)" style="fill:url(#radialGradient230);stroke:none" id="path230"/></g><path id="path232" d="M 6.2940937,-2.7427578 0.6105,-8.4380703 c -0.0703125,-0.070312 -0.1640625,-0.09375 -0.24609375,-0.09375 -0.046875,0 -0.10546875,0 -0.140625,0.023437 C 0.094875,-8.4497891 0.001125,-8.3326016 0.001125,-8.1802578 v 8.35546874 c 0,0.15234375 0.09375,0.26953125 0.22265625,0.328125 0.0351563,0.0234375 0.09375,0.0351563 0.140625,0.0351563 0.0820313,0 0.17578125,-0.0351563 0.24609375,-0.10546875 L 2.344875,-1.3013516 3.4112812,1.2064609 c 0.082031,0.1757813 0.28125,0.2695313 0.4570313,0.1875 l 0.984375,-0.42187496 c 0.1757812,-0.0703125 0.2695312,-0.28125 0.1875,-0.46875 L 3.9269062,-2.1333828 H 6.048 c 0.1523437,0 0.2695312,-0.09375 0.328125,-0.2226563 0.058594,-0.140625 0.035156,-0.28125 -0.082031,-0.3867187 z m 0,0" style="fill:#000;fill-opacity:.9;fill-rule:nonzero;stroke:none" aria-label="" transform="matrix(1.3333333,0,0,1.3333333,24.436,32.754667)"/></g></svg>