<svg xmlns="http://www.w3.org/2000/svg" xmlns:svg="http://www.w3.org/2000/svg" id="svg1" width="188.976" height="188.976" version="1.1" viewBox="0 0 188.976 188.976"><g id="g1"><path id="path1" d="M 2.7185547,-5.4383359 V -6.3523984 H 1.8162109 v 0.9140625 z M 3.6208984,-8.359375e-4 V -0.57505469 H 2.6013672 V -4.5359922 H 0.90214844 v 0.5742188 H 1.9333984 v 3.38671871 H 0.90214844 v 0.5742187525 z m 6.8115236,0 V -3.2586484 c 0,-0.46875 -0.09375,-0.8085938 -0.269531,-1.0429688 -0.1757816,-0.2226562 -0.4687504,-0.3398437 -0.8554691,-0.3398437 -0.3984375,0 -0.7148438,0.2226562 -0.9257813,0.6679687 -0.1640625,-0.4453125 -0.46875,-0.6679687 -0.9140625,-0.6679687 -0.4570312,0 -0.7617187,0.2578125 -0.9023437,0.7617187 v -0.65625 H 5.8972656 V -8.359375e-4 H 6.5652344 V -2.5555234 c 0,-0.1757813 0.011719,-0.3515625 0.023437,-0.5390625 0.011719,-0.1757813 0.046875,-0.3398438 0.1054687,-0.4804688 0.046875,-0.1523437 0.1289063,-0.2695312 0.2226563,-0.3632812 0.09375,-0.09375 0.2109375,-0.140625 0.375,-0.140625 0.1757812,0 0.3046875,0.070312 0.3984375,0.2109375 0.09375,0.140625 0.140625,0.3515625 0.140625,0.609375 V -8.359375e-4 H 8.4988281 V -2.5555234 c 0,-0.4804688 0.058594,-0.8554688 0.1757813,-1.125 0.1171875,-0.2695313 0.3046875,-0.3984375 0.5625,-0.3984375 0.1640625,0 0.2929687,0.070312 0.3867187,0.2109375 0.09375,0.140625 0.140625,0.3515625 0.140625,0.609375 V -8.359375e-4 Z M 16.329883,-2.2625547 c 0,-0.3398437 -0.05859,-0.65625 -0.164063,-0.9609375 -0.117187,-0.2929687 -0.269531,-0.5390625 -0.46875,-0.7617187 -0.199218,-0.1992188 -0.433593,-0.3632813 -0.726562,-0.4804688 -0.28125,-0.1171875 -0.597656,-0.1757812 -0.9375,-0.1757812 -0.480469,0 -0.925781,0.1757812 -1.335938,0.5273437 v -0.421875 h -0.667968 v 6.3515625 h 0.667968 v -2.22656249 c 0.199219,0.17578125 0.410157,0.3046875 0.632813,0.38671875 0.222656,0.09375 0.457031,0.140625 0.703125,0.140625 0.339844,0 0.65625,-0.05859375 0.9375,-0.17578125 0.292969,-0.1171875 0.527344,-0.28125 0.726562,-0.4921875 0.199219,-0.2109375 0.351563,-0.45703121 0.46875,-0.75000001 0.105469,-0.28125 0.164063,-0.609375 0.164063,-0.9609375 z m -0.667969,0 c 0,0.2578125 -0.03516,0.4921875 -0.105469,0.703125 -0.07031,0.2226563 -0.175781,0.4101563 -0.316406,0.57421876 -0.140625,0.1640625 -0.304687,0.29296875 -0.503906,0.38671875 -0.210938,0.09375 -0.445313,0.140625 -0.703125,0.140625 -0.257813,0 -0.492188,-0.046875 -0.714844,-0.140625 -0.222656,-0.09375 -0.421875,-0.234375 -0.621094,-0.44531251 v -2.4375 c 0.199219,-0.2109375 0.398438,-0.3632812 0.621094,-0.4570312 0.222656,-0.09375 0.457031,-0.140625 0.714844,-0.140625 0.257812,0 0.492187,0.046875 0.703125,0.140625 0.199219,0.09375 0.363281,0.2226562 0.503906,0.3867187 0.140625,0.1640625 0.246094,0.3515625 0.316406,0.5742188 0.07031,0.2226562 0.105469,0.4570312 0.105469,0.7148437 z m 6.682617,0.011719 c 0,-0.3515625 -0.05859,-0.6679688 -0.164062,-0.9609375 -0.117188,-0.3046875 -0.28125,-0.5507813 -0.492188,-0.7617188 -0.199219,-0.2109375 -0.457031,-0.375 -0.75,-0.4921875 -0.292969,-0.1171875 -0.609375,-0.1757812 -0.972656,-0.1757812 -0.351563,0 -0.679688,0.058594 -0.972656,0.1757812 -0.292969,0.1171875 -0.539063,0.28125 -0.75,0.4921875 -0.210938,0.2109375 -0.363282,0.4570313 -0.480469,0.7617188 -0.105469,0.2929687 -0.164063,0.609375 -0.164063,0.9609375 0,0.3515625 0.05859,0.6796875 0.164063,0.9609375 0.117187,0.29296871 0.269531,0.53906246 0.480469,0.74999996 0.210937,0.19921875 0.457031,0.36328125 0.75,0.48046875 0.292968,0.1171875 0.621093,0.17578125 0.972656,0.17578125 0.363281,0 0.679687,-0.05859375 0.972656,-0.17578125 0.292969,-0.1171875 0.550781,-0.28125 0.75,-0.48046875 0.210938,-0.2109375 0.375,-0.45703125 0.492188,-0.74999996 0.105468,-0.28125 0.164062,-0.609375 0.164062,-0.9609375 z m -0.667969,0 c 0,0.2578125 -0.03516,0.4921875 -0.117187,0.7148437 -0.07031,0.2226563 -0.1875,0.4101563 -0.339844,0.56250001 -0.152344,0.1640625 -0.328125,0.28125 -0.539062,0.375 -0.210938,0.09375 -0.445313,0.140625 -0.714844,0.140625 -0.269531,0 -0.503906,-0.046875 -0.714844,-0.140625 -0.210937,-0.09375 -0.398437,-0.2109375 -0.539062,-0.375 -0.152344,-0.15234371 -0.257813,-0.33984371 -0.339844,-0.56250001 -0.07031,-0.2109375 -0.105469,-0.4570312 -0.105469,-0.7148437 0,-0.2578125 0.03516,-0.4921875 0.105469,-0.7148438 0.08203,-0.2226562 0.1875,-0.4101562 0.339844,-0.5859375 0.140625,-0.1640625 0.328125,-0.2929687 0.539062,-0.3867187 0.210938,-0.09375 0.445313,-0.140625 0.714844,-0.140625 0.269531,0 0.503906,0.046875 0.714844,0.140625 0.210937,0.09375 0.386718,0.2226562 0.539062,0.3867187 0.152344,0.1757813 0.269531,0.3632813 0.339844,0.5859375 0.08203,0.2109375 0.117187,0.4570313 0.117187,0.7148438 z m 6.213868,-1.640625 0.210937,-0.5507813 c -0.140625,-0.070312 -0.292969,-0.1289062 -0.46875,-0.1523437 -0.164062,-0.035156 -0.375,-0.046875 -0.597656,-0.046875 -0.855469,0 -1.429688,0.4101562 -1.746094,1.2421875 V -4.535992 h -1.6875 v 0.5742188 h 1.03125 v 3.38671871 h -1.03125 v 0.5742187525 h 2.71875 V -0.57505469 h -1.03125 V -2.0281797 c 0,-0.2578125 0.04687,-0.515625 0.117188,-0.7617187 0.08203,-0.2460938 0.199218,-0.4570313 0.351562,-0.65625 0.152344,-0.1875 0.328125,-0.3398438 0.539063,-0.4570313 0.222656,-0.1171875 0.457031,-0.1757812 0.738281,-0.1757812 0.328125,0 0.609375,0.058594 0.855469,0.1875002 z m 6.190429,2.4492187 -0.5625,-0.1289062 c -0.03516,0.328125 -0.152343,0.59765621 -0.386718,0.79687496 -0.210938,0.2109375 -0.492188,0.31640625 -0.820313,0.31640625 -0.175781,0 -0.328125,-0.0351563 -0.46875,-0.09375 -0.140625,-0.0585938 -0.257812,-0.15234375 -0.351562,-0.2578125 -0.09375,-0.1171875 -0.164063,-0.24609371 -0.222657,-0.38671871 -0.04687,-0.1523438 -0.08203,-0.3046875 -0.08203,-0.46875 v -2.296875 h 1.933594 V -4.535992 h -1.933594 v -1.8164062 h -0.65625 v 1.8164062 h -1.03125 v 0.5742188 h 1.03125 v 2.296875 c 0,0.2578125 0.03516,0.4921875 0.128906,0.71484371 0.08203,0.22265625 0.199219,0.41015625 0.351563,0.5625 0.164062,0.15234375 0.351562,0.28125 0.574219,0.36328125 0.210937,0.09375 0.457031,0.140625 0.726562,0.140625 0.480469,0 0.878906,-0.140625 1.207031,-0.43359375 0.328125,-0.26953125 0.503907,-0.65625 0.562499,-1.12500001 z m 0,0" style="fill:#bf0040;fill-opacity:1;fill-rule:nonzero;stroke:none" aria-label="import" transform="matrix(1.3333333,0,0,1.3333333,16.566667,57.825333)"/><path id="path2" d="M 4.2889176,-8.359375e-4 V -2.8016172 c 0,-1.2304687 -0.5507812,-1.8398437 -1.6640625,-1.8398437 -0.8203125,0 -1.3945312,0.4101562 -1.72265625,1.2421875 V -4.5359922 H 0.2342301 V -8.359375e-4 H 0.90219885 V -2.0281797 c 0,-0.2695312 0.046875,-0.5273437 0.10546875,-0.7734375 0.082031,-0.2460937 0.1875,-0.4570312 0.328125,-0.65625 0.140625,-0.1757812 0.3046875,-0.3398437 0.5039063,-0.4453125 0.1992187,-0.1171875 0.421875,-0.1757812 0.6679687,-0.1757812 0.3984375,0 0.6796875,0.1171875 0.8554688,0.3398437 0.1757812,0.2226563 0.2578125,0.5390625 0.2578125,0.9375 V -8.359375e-4 Z M 6.122902,-4.5359922 v 2.8007813 c 0,1.23046871 0.5625,1.85156246 1.6757812,1.85156246 0.8203125,0 1.3945313,-0.421875 1.7109375,-1.25390626 V -8.359375e-4 H 10.177589 V -4.5359922 H 9.5096207 v 2.0390625 c 0,0.2578125 -0.035156,0.515625 -0.1054687,0.7617188 -0.070312,0.2460937 -0.1757813,0.4570312 -0.3164063,0.65625 -0.140625,0.18749996 -0.3046875,0.33984371 -0.5039062,0.44531246 -0.1992188,0.1171875 -0.421875,0.17578125 -0.6679688,0.17578125 -0.3984375,0 -0.6796875,-0.1171875 -0.8554687,-0.328125 C 6.8846207,-1.0086484 6.7908707,-1.3250547 6.7908707,-1.7352109 V -4.5359922 Z M 16.300636,-8.359375e-4 V -3.2586484 c 0,-0.46875 -0.09375,-0.8085938 -0.269531,-1.0429688 -0.175781,-0.2226562 -0.46875,-0.3398437 -0.855469,-0.3398437 -0.398437,0 -0.714843,0.2226562 -0.925781,0.6679687 -0.164062,-0.4453125 -0.46875,-0.6679687 -0.914062,-0.6679687 -0.457032,0 -0.761719,0.2578125 -0.902344,0.7617187 v -0.65625 H 11.76548 v 4.5351562625 h 0.667969 V -2.5555234 c 0,-0.1757813 0.01172,-0.3515625 0.02344,-0.5390625 0.01172,-0.1757813 0.04687,-0.3398438 0.105469,-0.4804688 0.04687,-0.1523437 0.128906,-0.2695312 0.222656,-0.3632812 0.09375,-0.09375 0.210938,-0.140625 0.375,-0.140625 0.175782,0 0.304688,0.070312 0.398438,0.2109375 0.09375,0.140625 0.140625,0.3515625 0.140625,0.609375 v 3.2578124625 h 0.667969 V -2.5555234 c 0,-0.4804688 0.05859,-0.8554688 0.175781,-1.125 0.117187,-0.2695313 0.304687,-0.3984375 0.5625,-0.3984375 0.164062,0 0.292969,0.070312 0.386719,0.2109375 0.09375,0.140625 0.140625,0.3515625 0.140625,0.609375 V -8.359375e-4 Z M 22.189308,-2.2625547 c 0,-0.3398437 -0.05859,-0.65625 -0.164062,-0.9609375 -0.117188,-0.2929687 -0.269532,-0.5390625 -0.46875,-0.7617187 -0.199219,-0.1992188 -0.433594,-0.3632813 -0.726563,-0.4804688 -0.28125,-0.1171875 -0.597656,-0.1757812 -0.9375,-0.1757812 -0.480469,0 -0.925781,0.1757812 -1.335937,0.5273437 v -0.421875 h -0.667969 v 6.3515625 h 0.667969 v -2.22656249 c 0.199218,0.17578125 0.410156,0.3046875 0.632812,0.38671875 0.222656,0.09375 0.457031,0.140625 0.703125,0.140625 0.339844,0 0.65625,-0.05859375 0.9375,-0.17578125 0.292969,-0.1171875 0.527344,-0.28125 0.726563,-0.4921875 0.199218,-0.2109375 0.351562,-0.45703121 0.46875,-0.75000001 0.105468,-0.28125 0.164062,-0.609375 0.164062,-0.9609375 z m -0.667969,0 c 0,0.2578125 -0.03516,0.4921875 -0.105468,0.703125 -0.07031,0.2226563 -0.175782,0.4101563 -0.316407,0.57421876 -0.140625,0.1640625 -0.304687,0.29296875 -0.503906,0.38671875 -0.210937,0.09375 -0.445312,0.140625 -0.703125,0.140625 -0.257812,0 -0.492187,-0.046875 -0.714844,-0.140625 -0.222656,-0.09375 -0.421875,-0.234375 -0.621093,-0.44531251 v -2.4375 c 0.199218,-0.2109375 0.398437,-0.3632812 0.621093,-0.4570312 0.222657,-0.09375 0.457032,-0.140625 0.714844,-0.140625 0.257813,0 0.492188,0.046875 0.703125,0.140625 0.199219,0.09375 0.363281,0.2226562 0.503906,0.3867187 0.140625,0.1640625 0.246094,0.3515625 0.316407,0.5742188 0.07031,0.2226562 0.105468,0.4570312 0.105468,0.7148437 z m 6.697266,-2.2734375 H 27.42173 L 25.816261,-0.57505469 24.175636,-4.5359922 H 23.39048 l 2.027344,4.66406251 -0.28125,0.69140625 c -0.05859,0.140625 -0.128906,0.26953124 -0.210938,0.37500004 -0.09375,0.1054687 -0.234375,0.1640625 -0.457031,0.1640625 -0.09375,0 -0.210937,-0.011719 -0.351562,-0.046875 -0.152344,-0.023437 -0.304688,-0.070312 -0.457032,-0.140625 l -0.128906,0.5742187 c 0.316406,0.1171875 0.621094,0.1757813 0.9375,0.1757813 0.28125,0 0.539063,-0.046875 0.761719,-0.1523438 0.234375,-0.09375 0.410156,-0.3046875 0.539062,-0.6210937 z m 0,0" style="fill:#000;fill-opacity:1;fill-rule:nonzero;stroke:none" aria-label="numpy" transform="matrix(1.3333333,0,0,1.3333333,72.343943,57.825333)"/><path id="path3" d="m -0.01314619,-1.2313047 c 0,0.43359376 0.15234375,0.77343751 0.46875,0.99609376 0.3046875,0.2343750025 0.76171879,0.3515625 1.35937499,0.3515625 0.140625,0 0.3046875,-0.0234375 0.4570313,-0.05859375 0.1640625,-0.03515625 0.328125,-0.09375 0.4921875,-0.1640625 0.1523437,-0.0703125 0.3164062,-0.15234375 0.46875,-0.26953125 0.140625,-0.1171875 0.2695312,-0.234375 0.3867187,-0.38671875 V -8.359375e-4 H 4.2876351 V -2.9656797 c 0,-0.2929687 -0.058594,-0.5507812 -0.1640625,-0.7734375 -0.1171875,-0.2109375 -0.2578125,-0.3867187 -0.4570313,-0.515625 -0.1875,-0.1289062 -0.3984375,-0.234375 -0.6445312,-0.2929687 -0.234375,-0.058594 -0.4804688,-0.09375 -0.7265625,-0.09375 -0.3984375,0 -0.7734375,0.058594 -1.1132813,0.1523437 -0.33984374,0.1054688 -0.64453124,0.2460938 -0.91406249,0.4101563 l 0.3046875,0.5039062 c 0.24609375,-0.1523437 0.50390629,-0.2695312 0.79687499,-0.3632812 0.28125,-0.09375 0.5976563,-0.140625 0.9257813,-0.140625 0.1054687,0 0.2460937,0.023437 0.3984375,0.046875 0.140625,0.046875 0.2929687,0.1054687 0.4335937,0.1757812 0.140625,0.09375 0.2578125,0.1992188 0.3515625,0.3398438 0.09375,0.140625 0.140625,0.328125 0.140625,0.5507812 v 0.328125 c -0.1054687,-0.023437 -0.1992187,-0.023437 -0.28125,-0.035156 -0.09375,-0.011719 -0.1757812,-0.023437 -0.2695312,-0.023437 -0.082031,-0.011719 -0.1757813,-0.011719 -0.2695313,-0.023437 -0.09375,0 -0.1992187,0 -0.3164062,0 -0.3164063,0 -0.6210938,0.023437 -0.9140625,0.070312 -0.3046875,0.058594 -0.57421879,0.140625 -0.79687504,0.2460937 -0.234375,0.1171875 -0.43359375,0.2695313 -0.57421875,0.4570313 -0.140625,0.1992187 -0.2109375,0.4335937 -0.2109375,0.714843 z m 1.82812499,0.77343751 c -0.3984375,0 -0.6914062,-0.0820313 -0.87890624,-0.24609375 -0.1875,-0.15234375 -0.28125,-0.32812496 -0.28125,-0.52734376 0,-0.1640625 0.046875,-0.3164062 0.15234375,-0.4335937 0.10546875,-0.1054688 0.23437499,-0.1992188 0.39843749,-0.28125 0.1640625,-0.070312 0.3632813,-0.1171875 0.5859375,-0.1523438 0.2109375,-0.035156 0.4453125,-0.046875 0.6914063,-0.046875 0.140625,0 0.3164062,0 0.515625,0 0.1992187,0 0.4101562,0.023437 0.6210937,0.058594 v 0.421875 c 0,0.1171875 -0.046875,0.234375 -0.1289062,0.375 -0.082031,0.140625 -0.1992188,0.28125 -0.3632813,0.39843746 -0.1523437,0.1171875 -0.3398437,0.234375 -0.5625,0.3046875 -0.2226562,0.09375 -0.4804687,0.12890625 -0.75,0.12890605 z M 10.193885,-1.2547422 c 0,-0.2695312 -0.05859,-0.4804687 -0.1875,-0.6445312 -0.1289062,-0.1640625 -0.2929687,-0.2929688 -0.4921874,-0.3867188 -0.2109375,-0.09375 -0.4335938,-0.1640625 -0.6914063,-0.2109375 -0.2460937,-0.046875 -0.4921875,-0.09375 -0.75,-0.1289062 -0.1992187,-0.023437 -0.375,-0.046875 -0.5625,-0.082031 -0.1757812,-0.023437 -0.3398437,-0.070312 -0.4804687,-0.1171875 -0.140625,-0.046875 -0.2460938,-0.1171875 -0.328125,-0.1875 -0.082031,-0.082031 -0.1289063,-0.1757812 -0.1289063,-0.3046875 0,-0.1523437 0.046875,-0.2695312 0.1523438,-0.3632812 0.09375,-0.09375 0.2226562,-0.1757813 0.3632812,-0.234375 0.1523438,-0.058594 0.3046875,-0.09375 0.4804688,-0.1171875 0.1640625,-0.035156 0.3164062,-0.046875 0.4570312,-0.046875 0.3164063,0 0.5976563,0.046875 0.8671875,0.1054687 0.2695313,0.082031 0.5273438,0.2109375 0.7851563,0.3867188 l 0.2695312,-0.515625 c -0.2460937,-0.1757813 -0.5273437,-0.3046875 -0.84375,-0.3984375 -0.3164062,-0.09375 -0.6796875,-0.140625 -1.078125,-0.140625 -0.2695312,0 -0.5507812,0.023437 -0.8085937,0.082031 -0.2578125,0.046875 -0.4804688,0.1289063 -0.6679688,0.234375 -0.1992187,0.1171875 -0.3515625,0.2578125 -0.46875,0.421875 -0.1171875,0.1640625 -0.1757812,0.3515625 -0.1757812,0.5859375 0,0.2695313 0.070312,0.4804688 0.1992187,0.6445313 0.1171875,0.1523437 0.28125,0.2929687 0.4921875,0.3867187 0.1992188,0.09375 0.4335938,0.1640625 0.6796875,0.2226563 0.2460938,0.046875 0.5039063,0.082031 0.75,0.1171875 0.1992188,0.023437 0.3867188,0.058594 0.5742188,0.082031 0.1757812,0.035156 0.3398437,0.070312 0.4804687,0.1171875 0.140625,0.058594 0.2460938,0.1171875 0.328125,0.1992188 0.082031,0.082031 0.1289063,0.1875 0.1289063,0.3164062 0,0.51562501 -0.5039063,0.77343751 -1.5117188,0.77343751 -0.3398437,0 -0.6796875,-0.0585938 -1.0078125,-0.17578125 C 6.7016976,-0.73911719 6.3735726,-0.90317969 6.0337288,-1.1141172 l -0.2929687,0.57421876 c 0.2929687,0.19921875 0.6445312,0.3515625 1.0546875,0.46875 0.4101562,0.12890625 0.8203125,0.1875 1.2304687,0.1875 0.2578125,0 0.5039063,-0.03515625 0.7617188,-0.0703125 0.2578125,-0.0468749975 0.4921875,-0.1171875 0.6914062,-0.22265625 0.2109375,-0.10546875 0.3867188,-0.24609375 0.515625,-0.421875 0.1406247,-0.17578125 0.1992187,-0.38671875 0.1992187,-0.65625001 z m 0,0" style="fill:#bf0040;fill-opacity:1;fill-rule:nonzero;stroke:none" aria-label="as" transform="matrix(1.3333333,0,0,1.3333333,120.04487,57.825333)"/><path id="path4" d="M 4.2905019,-8.359375e-4 V -2.8016172 c 0,-1.2304687 -0.5507812,-1.8398437 -1.6640625,-1.8398437 -0.8203125,0 -1.3945312,0.4101562 -1.72265621,1.2421875 V -4.5359922 H 0.23581444 V -8.359375e-4 H 0.90378319 V -2.0281797 c 0,-0.2695312 0.046875,-0.5273437 0.10546871,-0.7734375 0.082031,-0.2460937 0.1875,-0.4570312 0.328125,-0.65625 0.140625,-0.1757812 0.3046875,-0.3398437 0.5039063,-0.4453125 0.1992187,-0.1171875 0.421875,-0.1757812 0.6679687,-0.1757812 0.3984375,0 0.6796875,0.1171875 0.8554688,0.3398437 0.1757812,0.2226563 0.2578125,0.5390625 0.2578125,0.9375 V -8.359375e-4 Z M 10.322728,-2.2625547 c 0,-0.3398437 -0.05859,-0.65625 -0.164062,-0.9609375 -0.117188,-0.2929687 -0.2695313,-0.5390625 -0.46875,-0.7617187 -0.1992188,-0.1992188 -0.4335938,-0.3632813 -0.7265625,-0.4804688 -0.28125,-0.1171875 -0.5976563,-0.1757812 -0.9375,-0.1757812 -0.4804688,0 -0.9257813,0.1757812 -1.3359375,0.5273437 v -0.421875 H 6.0219472 V 1.8155703 H 6.689916 v -2.22656249 c 0.1992187,0.17578125 0.4101562,0.3046875 0.6328125,0.38671875 0.2226562,0.09375 0.4570312,0.140625 0.703125,0.140625 0.3398437,0 0.65625,-0.05859375 0.9375,-0.17578125 0.2929687,-0.1171875 0.5273437,-0.28125 0.7265625,-0.4921875 0.1992187,-0.2109375 0.351562,-0.45703121 0.46875,-0.75000001 0.105469,-0.28125 0.164062,-0.609375 0.164062,-0.9609375 z m -0.6679683,0 c 0,0.2578125 -0.035156,0.4921875 -0.1054687,0.703125 -0.070312,0.2226563 -0.1757813,0.4101563 -0.3164063,0.57421876 -0.140625,0.1640625 -0.3046875,0.29296875 -0.5039062,0.38671875 -0.2109375,0.09375 -0.4453125,0.140625 -0.703125,0.140625 -0.2578125,0 -0.4921875,-0.046875 -0.7148438,-0.140625 -0.2226562,-0.09375 -0.421875,-0.234375 -0.6210937,-0.44531251 v -2.4375 c 0.1992187,-0.2109375 0.3984375,-0.3632812 0.6210937,-0.4570312 0.2226563,-0.09375 0.4570313,-0.140625 0.7148438,-0.140625 0.2578125,0 0.4921875,0.046875 0.703125,0.140625 0.1992187,0.09375 0.3632812,0.2226562 0.5039062,0.3867187 0.140625,0.1640625 0.2460938,0.3515625 0.3164063,0.5742188 0.070312,0.2226562 0.1054687,0.4570312 0.1054687,0.7148437 z m 0,0" style="fill:#000;fill-opacity:1;fill-rule:nonzero;stroke:none" aria-label="np" transform="matrix(1.3333333,0,0,1.3333333,143.95511,57.825333)"/><path id="path5" d="M 4.2892734,0.00127344 V -6.3502891 H 2.7189609 v 0.5742188 h 0.9023438 v 1.6523437 c -0.1875,-0.1640625 -0.3984375,-0.3046875 -0.6210938,-0.3867187 -0.234375,-0.082031 -0.46875,-0.1289063 -0.7148437,-0.1289063 -0.3515625,0 -0.6796875,0.058594 -0.9609375,0.1757813 -0.2929688,0.1171875 -0.52734376,0.28125 -0.72656251,0.4921875 -0.19921875,0.2109375 -0.33984375,0.4570312 -0.45703125,0.75 -0.09375,0.3046875 -0.15234375,0.6210937 -0.15234375,0.9609375 0,0.3398437 0.05859375,0.6679687 0.15234375,0.9609375 0.1171875,0.2929687 0.2578125,0.53906249 0.45703125,0.74999999 0.19921875,0.2109375 0.43359371,0.375 0.72656251,0.4921875 0.28125,0.1171875 0.609375,0.17578125 0.9609375,0.17578125 0.2460937,0 0.4804687,-0.046875 0.7148437,-0.140625 0.2226563,-0.09375 0.4335938,-0.22265625 0.6210938,-0.3984375 v 0.421875 z M 3.6213047,-3.4791953 v 2.4257812 c -0.3867188,0.39843754 -0.8320313,0.60937504 -1.3359375,0.60937504 -0.2695313,0 -0.5039063,-0.046875 -0.7148438,-0.140625 C 1.3713047,-0.67841406 1.2072422,-0.80732031 1.0666172,-0.97138281 0.93771094,-1.1354453 0.83224219,-1.3229453 0.76192969,-1.5456016 0.69161719,-1.7565391 0.65646094,-2.0026328 0.65646094,-2.2604453 c 0,-0.2578125 0.0351563,-0.4921875 0.10546875,-0.7148438 0.0703125,-0.2226562 0.17578125,-0.4101562 0.30468751,-0.5742187 0.140625,-0.1640625 0.3046875,-0.2929688 0.5039062,-0.3867188 0.2109375,-0.09375 0.4453125,-0.140625 0.7148438,-0.140625 0.2460937,0 0.4921875,0.046875 0.7148437,0.140625 0.2226563,0.09375 0.4335938,0.2460938 0.6210938,0.4570313 z m 2.8857422,1.453125 h 3.9140621 c 0,-0.3867188 -0.04687,-0.75 -0.140625,-1.0664063 C 10.186734,-3.4088828 10.046109,-3.6784141 9.8586094,-3.9127891 9.6593906,-4.1354453 9.4132969,-4.3112266 9.1320469,-4.4401328 8.8390781,-4.5807578 8.4992344,-4.6393516 8.1242344,-4.6393516 c -0.3632813,0 -0.6796875,0.058594 -0.9609375,0.1757813 -0.2929688,0.1171875 -0.5273438,0.28125 -0.7265625,0.4921875 -0.1992188,0.2226562 -0.3515625,0.46875 -0.4570313,0.7617187 -0.1054687,0.2929688 -0.1640625,0.609375 -0.1640625,0.9492188 0,0.3515625 0.058594,0.6796875 0.1757813,0.9609375 0.1171875,0.2929687 0.28125,0.53906249 0.5039062,0.74999999 0.1992188,0.2109375 0.4570313,0.375 0.75,0.4921875 0.2929688,0.1171875 0.609375,0.17578125 0.9609375,0.17578125 0.46875,0 0.84375,-0.09375 1.1601563,-0.2578125 0.3164062,-0.1640625 0.5859375,-0.41015625 0.8203121,-0.7265625 L 9.7179844,-1.1823203 c -0.1289063,0.21093749 -0.328125,0.37499999 -0.5976563,0.51562499 -0.2695312,0.140625 -0.5742187,0.2109375 -0.9140625,0.2109375 -0.4804687,0 -0.8789062,-0.140625 -1.171875,-0.43359375 C 6.7297031,-1.1706016 6.5539219,-1.5456016 6.5070469,-2.0260703 Z M 9.7179844,-2.6002891 H 6.5187656 c 0.023437,-0.2226562 0.082031,-0.421875 0.1757813,-0.5976562 0.09375,-0.1875 0.2109375,-0.3398438 0.3515625,-0.46875 0.140625,-0.140625 0.3046875,-0.234375 0.4804687,-0.3046875 0.1757813,-0.070312 0.375,-0.1054688 0.5976563,-0.1054688 0.4101562,0 0.7617187,0.1289063 1.0546875,0.3632813 0.28125,0.2460937 0.46875,0.6210937 0.5390625,1.1132812 z m 6.5039066,-1.359375 v -0.5742187 h -1.933594 c 0,-0.46875 0.105469,-0.8085938 0.316406,-1.03125 0.210938,-0.2109375 0.539063,-0.3164063 0.960938,-0.3164063 0.140625,0 0.257812,0 0.363281,0.011719 0.09375,0.011719 0.199219,0.023437 0.292969,0.035156 v -0.5742187 c -0.07031,-0.011719 -0.164063,-0.023437 -0.269532,-0.035156 -0.105468,0 -0.234375,-0.011719 -0.386718,-0.011719 -0.65625,0 -1.136719,0.1640625 -1.464844,0.4921875 -0.328125,0.328125 -0.480469,0.8085937 -0.480469,1.4296875 h -1.03125 v 0.5742187 h 1.03125 v 3.38671879 h -1.03125 v 0.57421875 h 2.71875 V -0.57294531 H 14.288297 V -3.9596641 Z m 0,0" style="fill:#bf0040;fill-opacity:1;fill-rule:nonzero;stroke:none" aria-label="def" transform="matrix(1.3333333,0,0,1.3333333,16.488,89.705333)"/><path id="path6" d="M 4.536088,-3.9596641 V -4.5338828 H 2.6024942 c 0,-0.46875 0.1054688,-0.8085938 0.3164063,-1.03125 0.2109375,-0.2109375 0.5390625,-0.3164063 0.9609375,-0.3164063 0.140625,0 0.2578125,0 0.3632812,0.011719 0.09375,0.011719 0.1992188,0.023437 0.2929688,0.035156 v -0.5742187 c -0.070312,-0.011719 -0.1640625,-0.023437 -0.2695313,-0.035156 -0.1054687,0 -0.234375,-0.011719 -0.3867187,-0.011719 -0.65625,0 -1.1367188,0.1640625 -1.4648438,0.4921875 -0.328125,0.328125 -0.4804687,0.8085937 -0.4804687,1.4296875 H 0.90327546 v 0.5742187 H 1.9345255 v 3.38671879 H 0.90327546 V 0.00127344 H 3.6220255 V -0.57294531 H 2.6024942 V -3.9596641 Z m 0,0" style="fill:#000;fill-opacity:1;fill-rule:nonzero;stroke:none" aria-label="f" transform="matrix(1.3333333,0,0,1.3333333,48.182351,89.705333)"/><path id="path7" d="M 3.0819655,1.8059609 3.433528,1.3723672 C 3.1171217,1.1145547 2.8358717,0.83330469 2.6014967,0.52861719 c -0.234375,-0.328125 -0.4453125,-0.65625 -0.609375,-1.0078125 -0.1640625,-0.3515625 -0.2929687,-0.71484379 -0.375,-1.10156249 -0.09375,-0.3867188 -0.1289062,-0.7734375 -0.1289062,-1.171875 0,-0.3984375 0.035156,-0.7851563 0.1289062,-1.171875 0.082031,-0.3867188 0.2109375,-0.75 0.375,-1.1132813 0.1640625,-0.3515625 0.375,-0.6914062 0.609375,-0.9960937 0.2460938,-0.3164063 0.515625,-0.5859375 0.8320313,-0.8320313 L 3.0819655,-7.3112266 c -0.3515625,0.2695313 -0.65625,0.5859375 -0.9257813,0.9257813 -0.2695312,0.3515625 -0.4921875,0.7148437 -0.6796875,1.1015625 -0.1757812,0.3984375 -0.3164062,0.8085937 -0.421875,1.2304687 -0.09375,0.421875 -0.14062499,0.8554688 -0.14062499,1.3007813 0,0.4335937 0.046875,0.8671875 0.14062499,1.2890625 0.1054688,0.4335937 0.2460938,0.84374999 0.421875,1.23046874 0.1875,0.3984375 0.4101563,0.7734375 0.6796875,1.11328125 C 2.4257155,1.2317422 2.730403,1.5364297 3.0819655,1.8059609 Z m 0,0" style="fill:#000;fill-opacity:1;fill-rule:nonzero;stroke:none" aria-label="(" transform="matrix(1.3333333,0,0,1.3333333,56.152431,89.705333)"/><path id="path8" d="m 4.6395617,0.00127344 v -0.5859375 H 3.9481555 L 2.6942492,-2.2956016 3.8895617,-3.9362266 H 4.534093 V -4.5338828 H 2.6473742 v 0.5976562 H 3.1044055 L 2.2723742,-2.6940391 1.440343,-3.9362266 h 0.421875 v -0.5976562 h -1.86328129 v 0.5976562 h 0.65625 l 1.19531249,1.640625 -1.24218749,1.71093754 h -0.703125 v 0.5859375 H 1.7450305 v -0.5859375 H 1.3817492 l 0.890625,-1.31250004 0.890625,1.31250004 H 2.7645617 v 0.5859375 z m 0,0" style="fill:#000;fill-opacity:1;fill-rule:nonzero;stroke:none" aria-label="x" transform="matrix(1.3333333,0,0,1.3333333,64.122511,89.705333)"/><path id="path9" d="m 3.6336814,-2.7409141 c 0,-0.4453125 -0.046875,-0.8789062 -0.140625,-1.3007812 -0.09375,-0.4335938 -0.234375,-0.84375 -0.4335937,-1.2421875 -0.1757813,-0.3867188 -0.3984375,-0.75 -0.6796875,-1.1015625 -0.2578125,-0.3398438 -0.5742188,-0.65625 -0.9140625,-0.9257813 l -0.3515625,0.4453125 c 0.3046875,0.2460938 0.5859375,0.515625 0.8203125,0.8320313 0.2460937,0.3046875 0.4453125,0.6445312 0.6210937,0.9960937 0.1640625,0.3632813 0.3046875,0.7265625 0.3867188,1.1132813 0.082031,0.3984375 0.1289062,0.7851562 0.1289062,1.1835937 0,0.3867188 -0.046875,0.7734375 -0.1289062,1.1601563 -0.082031,0.3867187 -0.2109375,0.74999999 -0.3867188,1.10156249 -0.1757812,0.36328125 -0.375,0.69140625 -0.6210937,1.0078125 C 1.7000877,0.84502344 1.4188377,1.1145547 1.1141502,1.3723672 L 1.4657127,1.8059609 C 1.8055564,1.5364297 2.1219627,1.2317422 2.3797752,0.88017969 2.6493064,0.54033594 2.8836814,0.16533594 3.0594627,-0.23310156 3.2586814,-0.61982031 3.3993064,-1.0299766 3.4930564,-1.4518516 c 0.09375,-0.421875 0.140625,-0.8554687 0.140625,-1.2890625 z m 0,0" style="fill:#000;fill-opacity:1;fill-rule:nonzero;stroke:none" aria-label=")" transform="matrix(1.3333333,0,0,1.3333333,72.092591,89.705333)"/><path id="path10" d="M 2.7186214,-3.6198203 V -4.5338828 H 1.8162777 v 0.9140625 z m 0,3.62109374 V -0.90107031 H 1.8162777 v 0.90234375 z m 0,0" style="fill:#000;fill-opacity:1;fill-rule:nonzero;stroke:none" aria-label=":" transform="matrix(1.3333333,0,0,1.3333333,80.062671,89.705333)"/><path id="path11" d="m 4.2884844,-3.8912266 0.2109375,-0.5507812 c -0.140625,-0.070312 -0.2929688,-0.1289063 -0.46875,-0.1523438 -0.1640625,-0.035156 -0.375,-0.046875 -0.5976563,-0.046875 -0.8554687,0 -1.4296875,0.4101563 -1.7460937,1.2421875 V -4.5357578 H -5.78125e-4 v 0.5742187 H 1.0306719 v 3.38671879 H -5.78125e-4 V -6.015625e-4 H 2.7181719 V -0.57482031 h -1.03125 V -2.0279453 c 0,-0.2578125 0.046875,-0.515625 0.1171875,-0.7617188 0.082031,-0.2460937 0.1992187,-0.4570312 0.3515625,-0.65625 0.1523437,-0.1875 0.328125,-0.3398437 0.5390625,-0.4570312 0.2226562,-0.1171875 0.4570312,-0.1757813 0.7382812,-0.1757813 0.328125,0 0.609375,0.058594 0.8554688,0.1875 z m 2.2763672,1.8632813 h 3.9140624 c 0,-0.3867188 -0.04687,-0.75 -0.140625,-1.0664063 C 10.244539,-3.4107578 10.103914,-3.6802891 9.9164141,-3.9146641 9.7171953,-4.1373203 9.4711016,-4.3131016 9.1898516,-4.4420078 8.8968828,-4.5826328 8.5570391,-4.6412266 8.1820391,-4.6412266 c -0.3632813,0 -0.6796875,0.058594 -0.9609375,0.1757813 -0.2929688,0.1171875 -0.5273438,0.28125 -0.7265625,0.4921875 -0.1992188,0.2226562 -0.3515625,0.46875 -0.4570313,0.7617187 -0.1054687,0.2929688 -0.1640625,0.609375 -0.1640625,0.9492188 0,0.3515625 0.058594,0.6796875 0.1757813,0.9609375 0.1171875,0.2929687 0.28125,0.53906249 0.5039062,0.74999999 0.1992188,0.2109375 0.4570313,0.375 0.75,0.4921875 0.2929688,0.1171875 0.609375,0.17578125 0.9609375,0.17578125 0.46875,0 0.84375,-0.09375 1.1601563,-0.2578125 0.3164062,-0.1640625 0.5859374,-0.41015625 0.8203124,-0.7265625 L 9.7757891,-1.1841953 c -0.1289063,0.21093749 -0.328125,0.37499999 -0.5976563,0.51562499 -0.2695312,0.140625 -0.5742187,0.2109375 -0.9140625,0.2109375 -0.4804687,0 -0.8789062,-0.140625 -1.171875,-0.43359375 C 6.7875078,-1.1724766 6.6117266,-1.5474766 6.5648516,-2.0279453 Z M 9.7757891,-2.6021641 H 6.5765703 c 0.023437,-0.2226562 0.082031,-0.421875 0.1757813,-0.5976562 0.09375,-0.1875 0.2109375,-0.3398438 0.3515625,-0.46875 0.140625,-0.140625 0.3046875,-0.234375 0.4804687,-0.3046875 0.1757813,-0.070312 0.375,-0.1054688 0.5976563,-0.1054688 0.4101562,0 0.7617187,0.1289063 1.0546875,0.3632813 0.28125,0.2460937 0.46875,0.6210937 0.5390625,1.1132812 z m 6.6005859,1.1601563 -0.5625,-0.1289063 c -0.03516,0.328125 -0.152344,0.59765629 -0.386719,0.79687504 -0.210937,0.2109375 -0.492187,0.31640625 -0.820312,0.31640625 -0.175781,0 -0.328125,-0.0351563 -0.46875,-0.09375 -0.140625,-0.0585938 -0.257813,-0.15234375 -0.351563,-0.2578125 -0.09375,-0.1171875 -0.164062,-0.24609379 -0.222656,-0.38671879 -0.04687,-0.1523437 -0.08203,-0.3046875 -0.08203,-0.46875 v -2.296875 h 1.933594 v -0.5742187 h -1.933594 v -1.8164063 h -0.65625 v 1.8164063 h -1.03125 v 0.5742187 h 1.03125 v 2.296875 c 0,0.2578125 0.03516,0.4921875 0.128906,0.71484379 0.08203,0.22265625 0.199219,0.41015625 0.351563,0.5625 0.164062,0.15234375 0.351562,0.28125 0.574218,0.36328125 0.210938,0.09375 0.457032,0.140625 0.726563,0.140625 0.480469,0 0.878906,-0.140625 1.207031,-0.43359375 0.328125,-0.26953125 0.503906,-0.65625 0.5625,-1.12499999 z m 1.552734,-3.09375 v 2.8007812 c 0,1.23046879 0.5625,1.85156254 1.675782,1.85156254 0.820312,0 1.394531,-0.421875 1.710937,-1.25390624 v 1.1367187375 h 0.667969 V -4.5357578 h -0.667969 v 2.0390625 c 0,0.2578125 -0.03516,0.515625 -0.105469,0.7617187 -0.07031,0.2460938 -0.175781,0.4570313 -0.316406,0.65625 -0.140625,0.18750004 -0.304687,0.33984379 -0.503906,0.44531254 -0.199219,0.1171875 -0.421875,0.17578125 -0.667969,0.17578125 -0.398437,0 -0.679687,-0.1171875 -0.855469,-0.328125 C 18.690828,-1.0084141 18.597078,-1.3248203 18.597078,-1.7349766 v -2.8007812 z m 9.960938,0.6445312 0.210937,-0.5507812 c -0.140625,-0.070312 -0.292968,-0.1289063 -0.46875,-0.1523438 -0.164062,-0.035156 -0.375,-0.046875 -0.597656,-0.046875 -0.855469,0 -1.429687,0.4101563 -1.746094,1.2421875 v -1.1367187 h -1.6875 v 0.5742187 h 1.03125 v 3.38671879 h -1.03125 v 0.5742187475 h 2.71875 V -0.57482031 h -1.03125 V -2.0279453 c 0,-0.2578125 0.04687,-0.515625 0.117188,-0.7617188 0.08203,-0.2460937 0.199219,-0.4570312 0.351562,-0.65625 0.152344,-0.1875 0.328125,-0.3398437 0.539063,-0.4570312 0.222656,-0.1171875 0.457031,-0.1757813 0.738281,-0.1757813 0.328125,0 0.609375,0.058594 0.855469,0.1875 z m 5.897461,3.8906250375 V -2.8013828 c 0,-1.2304688 -0.550781,-1.8398438 -1.664063,-1.8398438 -0.820312,0 -1.394531,0.4101563 -1.722656,1.2421875 V -4.5357578 H 29.73282 v 4.5351562375 h 0.667969 V -2.0279453 c 0,-0.2695313 0.04687,-0.5273438 0.105469,-0.7734375 0.08203,-0.2460938 0.1875,-0.4570313 0.328125,-0.65625 0.140625,-0.1757813 0.304687,-0.3398438 0.503906,-0.4453125 0.199219,-0.1171875 0.421875,-0.1757813 0.667969,-0.1757813 0.398437,0 0.679687,0.1171875 0.855469,0.3398438 0.175781,0.2226562 0.257812,0.5390625 0.257812,0.9375 v 2.8007812375 z m 0,0" style="fill:#bf0040;fill-opacity:1;fill-rule:nonzero;stroke:none" aria-label="return" transform="matrix(1.3333333,0,0,1.3333333,40.477333,105.64533)"/><path id="path12" d="M 4.2903076,-6.015625e-4 V -2.8013828 c 0,-1.2304688 -0.5507813,-1.8398438 -1.6640625,-1.8398438 -0.8203125,0 -1.3945313,0.4101563 -1.72265629,1.2421875 V -4.5357578 H 0.23562006 V -6.015625e-4 H 0.90358881 V -2.0279453 c 0,-0.2695313 0.046875,-0.5273438 0.10546879,-0.7734375 0.082031,-0.2460938 0.1875,-0.4570313 0.328125,-0.65625 0.140625,-0.1757813 0.3046875,-0.3398438 0.5039062,-0.4453125 0.1992188,-0.1171875 0.421875,-0.1757813 0.6679688,-0.1757813 0.3984375,0 0.6796875,0.1171875 0.8554687,0.3398438 0.1757813,0.2226562 0.2578125,0.5390625 0.2578125,0.9375 V -6.015625e-4 Z M 10.322534,-2.2623203 c 0,-0.3398438 -0.05859,-0.65625 -0.164062,-0.9609375 C 10.041284,-3.5162266 9.8889404,-3.7623203 9.6897216,-3.9849766 9.4905029,-4.1841953 9.2561279,-4.3482578 8.9631591,-4.4654453 c -0.28125,-0.1171875 -0.5976562,-0.1757813 -0.9375,-0.1757813 -0.4804687,0 -0.9257812,0.1757813 -1.3359375,0.5273438 v -0.421875 H 6.0217529 v 6.3515625 h 0.6679687 v -2.22656251 c 0.1992188,0.17578125 0.4101563,0.3046875 0.6328125,0.38671875 0.2226563,0.09375 0.4570313,0.140625 0.703125,0.140625 0.3398438,0 0.65625,-0.05859375 0.9375,-0.17578125 0.2929688,-0.1171875 0.5273438,-0.28125 0.7265625,-0.4921875 0.1992188,-0.2109375 0.3515624,-0.45703129 0.4687504,-0.74999999 0.105468,-0.28125 0.164062,-0.609375 0.164062,-0.9609375 z m -0.6679686,0 c 0,0.2578125 -0.035156,0.4921875 -0.1054688,0.703125 -0.070312,0.2226562 -0.1757812,0.4101562 -0.3164062,0.57421874 -0.140625,0.1640625 -0.3046875,0.29296875 -0.5039063,0.38671875 -0.2109375,0.09375 -0.4453125,0.140625 -0.703125,0.140625 -0.2578125,0 -0.4921875,-0.046875 -0.7148437,-0.140625 -0.2226563,-0.09375 -0.421875,-0.234375 -0.6210938,-0.44531249 v -2.4375 c 0.1992188,-0.2109375 0.3984375,-0.3632813 0.6210938,-0.4570313 0.2226562,-0.09375 0.4570312,-0.140625 0.7148437,-0.140625 0.2578125,0 0.4921875,0.046875 0.703125,0.140625 0.1992188,0.09375 0.3632813,0.2226563 0.5039063,0.3867188 0.140625,0.1640625 0.2460937,0.3515625 0.3164062,0.5742187 0.070312,0.2226563 0.1054688,0.4570313 0.1054688,0.7148438 z m 0,0" style="fill:#000;fill-opacity:1;fill-rule:nonzero;stroke:none" aria-label="np" transform="matrix(1.3333333,0,0,1.3333333,96.135059,105.64533)"/><path id="path13" d="M 2.7180167,-6.015625e-4 V -0.90294531 H 1.8156729 v 0.9023437475 z m 0,0" style="fill:#000;fill-opacity:1;fill-rule:nonzero;stroke:none" aria-label="." transform="matrix(1.3333333,0,0,1.3333333,111.94238,105.64533)"/><path id="path14" d="m 4.4056678,-1.2545078 c 0,-0.2695313 -0.058594,-0.4804688 -0.1875,-0.6445313 C 4.0892615,-2.0631016 3.925199,-2.1920078 3.7259803,-2.2857578 3.5150428,-2.3795078 3.2923865,-2.4498203 3.034574,-2.4966953 c -0.2460937,-0.046875 -0.4921875,-0.09375 -0.75,-0.1289063 -0.1992187,-0.023437 -0.375,-0.046875 -0.5625,-0.082031 -0.1757812,-0.023437 -0.3398437,-0.070312 -0.4804687,-0.1171875 -0.140625,-0.046875 -0.24609376,-0.1171875 -0.32812501,-0.1875 -0.0820313,-0.082031 -0.12890625,-0.1757813 -0.12890625,-0.3046875 0,-0.1523438 0.046875,-0.2695313 0.15234375,-0.3632813 0.09375,-0.09375 0.22265621,-0.1757812 0.36328121,-0.234375 0.1523438,-0.058594 0.3046875,-0.09375 0.4804688,-0.1171875 0.1640625,-0.035156 0.3164062,-0.046875 0.4570312,-0.046875 0.3164063,0 0.5976563,0.046875 0.8671875,0.1054688 0.2695313,0.082031 0.5273438,0.2109375 0.7851563,0.3867187 l 0.2695312,-0.515625 c -0.2460937,-0.1757812 -0.5273437,-0.3046875 -0.84375,-0.3984375 -0.3164062,-0.09375 -0.6796875,-0.140625 -1.078125,-0.140625 -0.2695312,0 -0.5507812,0.023437 -0.8085937,0.082031 -0.2578125,0.046875 -0.48046876,0.1289062 -0.66796876,0.234375 -0.19921875,0.1171875 -0.3515625,0.2578125 -0.46875,0.421875 -0.1171875,0.1640625 -0.17578125,0.3515625 -0.17578125,0.5859375 0,0.2695312 0.0703125,0.4804687 0.19921875,0.6445312 0.1171875,0.1523438 0.28125,0.2929688 0.4921875,0.3867188 0.19921876,0.09375 0.43359376,0.1640625 0.67968746,0.2226562 0.2460938,0.046875 0.5039063,0.082031 0.75,0.1171875 0.1992188,0.023437 0.3867188,0.058594 0.5742188,0.082031 0.1757812,0.035156 0.3398437,0.070312 0.4804687,0.1171875 0.140625,0.058594 0.2460938,0.1171875 0.328125,0.1992187 0.082031,0.082031 0.1289063,0.1875 0.1289063,0.3164063 0,0.51562499 -0.5039063,0.77343749 -1.5117188,0.77343749 -0.3398437,0 -0.6796875,-0.0585938 -1.0078125,-0.17578125 C 0.91348029,-0.73888281 0.58535529,-0.90294531 0.24551154,-1.1138828 l -0.29296875,0.57421874 c 0.29296875,0.19921875 0.64453125,0.3515625 1.05468751,0.46875 0.4101562,0.12890625 0.8203125,0.1875 1.2304687,0.1875 0.2578125,0 0.5039063,-0.03515625 0.7617188,-0.0703125 0.2578125,-0.0468750025 0.4921875,-0.1171875 0.6914062,-0.22265625 0.2109375,-0.10546875 0.3867188,-0.24609375 0.515625,-0.421875 0.140625,-0.17578125 0.1992188,-0.38671875 0.1992188,-0.65624999 z M 8.557035,-5.4381016 V -6.3521641 H 7.6546912 v 0.9140625 z M 9.4593787,-6.015625e-4 V -0.57482031 H 8.4398475 V -4.5357578 H 6.7406287 v 0.5742187 h 1.03125 v 3.38671879 h -1.03125 v 0.5742187475 z m 6.5156253,0 V -2.8013828 c 0,-1.2304688 -0.550782,-1.8398438 -1.664063,-1.8398438 -0.820312,0 -1.394531,0.4101563 -1.722656,1.2421875 v -1.1367187 h -0.667969 v 4.5351562375 h 0.667969 V -2.0279453 c 0,-0.2695313 0.04687,-0.5273438 0.105469,-0.7734375 0.08203,-0.2460938 0.1875,-0.4570313 0.328125,-0.65625 0.140625,-0.1757813 0.304687,-0.3398438 0.503906,-0.4453125 0.199219,-0.1171875 0.421875,-0.1757813 0.667969,-0.1757813 0.398437,0 0.679687,0.1171875 0.855468,0.3398438 0.175782,0.2226562 0.257813,0.5390625 0.257813,0.9375 v 2.8007812375 z m 0,0" style="fill:#000;fill-opacity:1;fill-rule:nonzero;stroke:none" aria-label="sin" transform="matrix(1.3333333,0,0,1.3333333,120.09843,105.64533)"/><path id="path15" d="M 3.0831673,1.8040859 3.4347298,1.3704922 C 3.1183236,1.1126797 2.8370736,0.83142969 2.6026986,0.52674219 c -0.234375,-0.328125 -0.4453125,-0.65625 -0.609375,-1.0078125 -0.1640625,-0.3515625 -0.2929688,-0.71484379 -0.375,-1.10156249 -0.09375,-0.3867188 -0.1289063,-0.7734375 -0.1289063,-1.171875 0,-0.3984375 0.035156,-0.7851563 0.1289063,-1.171875 0.082031,-0.3867188 0.2109375,-0.75 0.375,-1.1132813 0.1640625,-0.3515625 0.375,-0.6914062 0.609375,-0.9960937 0.2460937,-0.3164063 0.515625,-0.5859375 0.8320312,-0.8320313 L 3.0831673,-7.3131016 c -0.3515625,0.2695313 -0.65625,0.5859375 -0.9257812,0.9257813 -0.2695313,0.3515625 -0.4921875,0.7148437 -0.6796875,1.1015625 -0.1757813,0.3984375 -0.3164063,0.8085937 -0.421875,1.2304687 -0.09375,0.421875 -0.14062504,0.8554688 -0.14062504,1.3007813 0,0.4335937 0.046875,0.8671875 0.14062504,1.2890625 0.1054687,0.4335937 0.2460937,0.84374999 0.421875,1.23046874 0.1875,0.3984375 0.4101562,0.7734375 0.6796875,1.11328125 C 2.4269173,1.2298672 2.7316048,1.5345547 3.0831673,1.8040859 Z m 0,0" style="fill:#000;fill-opacity:1;fill-rule:nonzero;stroke:none" aria-label="(" transform="matrix(1.3333333,0,0,1.3333333,143.8227,105.64533)"/><path id="path16" d="M 4.6407636,-6.015625e-4 V -0.58653906 H 3.9493573 L 2.6954511,-2.2974766 3.8907636,-3.9381016 H 4.5352948 V -4.5357578 H 2.6485761 v 0.5976562 H 3.1056073 L 2.2735761,-2.6959141 1.4415448,-3.9381016 h 0.421875 V -4.5357578 H 1.385625e-4 v 0.5976562 H 0.65638856 l 1.19531254,1.640625 -1.24218754,1.71093754 h -0.703125 V -6.015625e-4 H 1.7462323 V -0.58653906 H 1.3829511 l 0.890625,-1.31250004 0.890625,1.31250004 H 2.7657636 v 0.5859374975 z m 0,0" style="fill:#000;fill-opacity:1;fill-rule:nonzero;stroke:none" aria-label="x" transform="matrix(1.3333333,0,0,1.3333333,151.79278,105.64533)"/><path id="path17" d="m 3.6319536,-2.7427891 c 0,-0.4453125 -0.046875,-0.8789062 -0.140625,-1.3007812 -0.09375,-0.4335938 -0.234375,-0.84375 -0.4335938,-1.2421875 -0.1757812,-0.3867188 -0.3984375,-0.75 -0.6796875,-1.1015625 -0.2578125,-0.3398438 -0.5742187,-0.65625 -0.9140625,-0.9257813 l -0.3515625,0.4453125 c 0.3046875,0.2460938 0.5859375,0.515625 0.8203125,0.8320313 0.2460938,0.3046875 0.4453125,0.6445312 0.6210938,0.9960937 0.1640625,0.3632813 0.3046875,0.7265625 0.3867187,1.1132813 0.082031,0.3984375 0.1289063,0.7851562 0.1289063,1.1835937 0,0.3867188 -0.046875,0.7734375 -0.1289063,1.1601563 -0.082031,0.3867187 -0.2109375,0.74999999 -0.3867187,1.10156249 -0.1757813,0.36328125 -0.375,0.69140625 -0.6210938,1.0078125 C 1.6983598,0.84314844 1.4171098,1.1126797 1.1124223,1.3704922 L 1.4639848,1.8040859 C 1.8038286,1.5345547 2.1202348,1.2298672 2.3780473,0.87830469 2.6475786,0.53846094 2.8819536,0.16346094 3.0577348,-0.23497656 3.2569536,-0.62169531 3.3975786,-1.0318516 3.4913286,-1.4537266 c 0.09375,-0.421875 0.140625,-0.8554687 0.140625,-1.2890625 z m 0,0" style="fill:#000;fill-opacity:1;fill-rule:nonzero;stroke:none" aria-label=")" transform="matrix(1.3333333,0,0,1.3333333,159.76286,105.64533)"/><path id="path18" d="m 4.5362422,-2.2612109 c 0,-0.3398438 -0.058594,-0.65625 -0.1640625,-0.9609375 -0.1171875,-0.2929688 -0.2695313,-0.5390625 -0.46875,-0.7617188 -0.1992188,-0.1992187 -0.4335938,-0.3632812 -0.7265625,-0.4804687 -0.28125,-0.1171875 -0.5976563,-0.1757813 -0.9375,-0.1757813 -0.4804688,0 -0.9257813,0.1757813 -1.33593751,0.5273438 v -0.421875 H 0.23546094 v 6.3515625 h 0.66796875 v -2.22656254 c 0.19921871,0.17578125 0.41015621,0.3046875 0.63281251,0.38671875 0.2226562,0.09375 0.4570312,0.140625 0.703125,0.140625 0.3398437,0 0.65625,-0.05859375 0.9375,-0.17578125 0.2929687,-0.1171875 0.5273437,-0.28125 0.7265625,-0.4921875 0.1992187,-0.2109375 0.3515625,-0.45703126 0.46875,-0.74999996 0.1054687,-0.28125 0.1640625,-0.609375 0.1640625,-0.9609375 z m -0.6679688,0 c 0,0.2578125 -0.035156,0.4921875 -0.1054687,0.703125 -0.070312,0.2226562 -0.1757813,0.4101562 -0.3164063,0.57421871 -0.140625,0.1640625 -0.3046875,0.29296875 -0.5039062,0.38671875 -0.2109375,0.09375 -0.4453125,0.140625 -0.703125,0.140625 -0.2578125,0 -0.4921875,-0.046875 -0.7148438,-0.140625 -0.2226562,-0.09375 -0.421875,-0.234375 -0.62109371,-0.44531246 v -2.4375 C 1.1026484,-3.6908984 1.3018672,-3.8432422 1.5245234,-3.9369922 c 0.2226563,-0.09375 0.4570313,-0.140625 0.7148438,-0.140625 0.2578125,0 0.4921875,0.046875 0.703125,0.140625 0.1992187,0.09375 0.3632812,0.2226563 0.5039062,0.3867188 0.140625,0.1640625 0.2460938,0.3515625 0.3164063,0.5742187 0.070312,0.2226563 0.1054687,0.4570313 0.1054687,0.7148438 z m 6.3076176,-1.6289063 0.210937,-0.5507812 c -0.140625,-0.070312 -0.292969,-0.1289063 -0.4687499,-0.1523438 -0.1640625,-0.035156 -0.375,-0.046875 -0.5976562,-0.046875 -0.8554688,0 -1.4296875,0.4101563 -1.7460938,1.2421875 v -1.1367187 h -1.6875 v 0.5742187 h 1.03125 v 3.38671876 h -1.03125 V 5.078125e-4 h 2.71875 V -0.57371094 h -1.03125 V -2.0268359 c 0,-0.2578125 0.046875,-0.515625 0.1171875,-0.7617188 0.082031,-0.2460937 0.1992188,-0.4570312 0.3515625,-0.65625 0.1523438,-0.1875 0.328125,-0.3398437 0.5390625,-0.4570312 0.2226563,-0.1171875 0.4570313,-0.1757813 0.7382813,-0.1757813 0.328125,0 0.609375,0.058594 0.8554691,0.1875 z m 4.318359,-1.546875 v -0.9140625 h -0.902344 v 0.9140625 z M 15.396594,5.078125e-4 V -0.57371094 H 14.377063 V -4.5346484 h -1.699219 v 0.5742187 h 1.03125 v 3.38671876 h -1.03125 V 5.078125e-4 Z m 6.55664,0 V -2.8002734 c 0,-1.2304688 -0.550781,-1.8398438 -1.664062,-1.8398438 -0.820313,0 -1.394531,0.4101563 -1.722656,1.2421875 V -4.5346484 H 17.898547 V 5.078125e-4 h 0.667969 V -2.0268359 c 0,-0.2695313 0.04687,-0.5273438 0.105468,-0.7734375 0.08203,-0.2460938 0.1875,-0.4570313 0.328125,-0.65625 0.140625,-0.1757813 0.304688,-0.3398438 0.503907,-0.4453125 0.199218,-0.1171875 0.421875,-0.1757813 0.667968,-0.1757813 0.398438,0 0.679688,0.1171875 0.855469,0.3398438 0.175781,0.2226562 0.257813,0.5390625 0.257813,0.9375 V 5.078125e-4 Z m 6.169922,-1.4414062125 -0.5625,-0.1289063 c -0.03516,0.328125 -0.152344,0.59765626 -0.386719,0.79687501 -0.210937,0.2109375 -0.492187,0.31640625 -0.820312,0.31640625 -0.175781,0 -0.328125,-0.0351563 -0.46875,-0.09375 -0.140625,-0.0585938 -0.257813,-0.15234375 -0.351563,-0.2578125 -0.09375,-0.1171875 -0.164062,-0.24609376 -0.222656,-0.38671876 -0.04687,-0.1523437 -0.08203,-0.3046875 -0.08203,-0.46875 v -2.296875 h 1.933594 v -0.5742187 h -1.933594 v -1.8164063 h -0.65625 v 1.8164063 h -1.03125 v 0.5742187 h 1.03125 v 2.296875 c 0,0.2578125 0.03516,0.4921875 0.128906,0.71484376 0.08203,0.22265625 0.199219,0.41015625 0.351563,0.5625 0.164062,0.15234375 0.351562,0.28125 0.574218,0.36328125 0.210938,0.09375 0.457032,0.140625 0.726563,0.140625 0.480469,0 0.878906,-0.140625 1.207031,-0.43359375 0.328125,-0.26953125 0.503906,-0.65625 0.562499,-1.12499996 z m 0,0" style="fill:#bf0040;fill-opacity:1;fill-rule:nonzero;stroke:none" aria-label="print" transform="matrix(1.3333333,0,0,1.3333333,16.549333,137.52667)"/><path id="path19" d="M 3.0816752,1.8051953 3.4332377,1.3716016 C 3.1168315,1.1137891 2.8355815,0.83253906 2.6012065,0.52785156 c -0.234375,-0.328125 -0.4453125,-0.65625 -0.609375,-1.0078125 -0.1640625,-0.3515625 -0.2929688,-0.71484376 -0.375,-1.10156246 -0.09375,-0.3867188 -0.1289063,-0.7734375 -0.1289063,-1.171875 0,-0.3984375 0.035156,-0.7851563 0.1289063,-1.171875 0.082031,-0.3867188 0.2109375,-0.75 0.375,-1.1132813 0.1640625,-0.3515625 0.375,-0.6914062 0.609375,-0.9960937 0.2460937,-0.3164063 0.515625,-0.5859375 0.8320312,-0.8320313 L 3.0816752,-7.3119922 c -0.3515625,0.2695313 -0.65625,0.5859375 -0.9257812,0.9257813 -0.2695313,0.3515625 -0.4921875,0.7148437 -0.6796875,1.1015625 -0.1757813,0.3984375 -0.3164063,0.8085937 -0.421875,1.2304687 -0.09375,0.421875 -0.14062501,0.8554688 -0.14062501,1.3007813 0,0.4335937 0.046875,0.8671875 0.14062501,1.2890625 0.1054687,0.4335937 0.2460937,0.84374996 0.421875,1.23046871 0.1875,0.3984375 0.4101562,0.7734375 0.6796875,1.11328125 C 2.4254252,1.2309766 2.7301127,1.5356641 3.0816752,1.8051953 Z m 0,0" style="fill:#000;fill-opacity:1;fill-rule:nonzero;stroke:none" aria-label="(" transform="matrix(1.3333333,0,0,1.3333333,56.160631,137.52667)"/><path id="path20" d="M 4.5338027,-3.9604297 V -4.5346484 H 2.600209 c 0,-0.46875 0.1054687,-0.8085938 0.3164062,-1.03125 0.2109375,-0.2109375 0.5390625,-0.3164063 0.9609375,-0.3164063 0.140625,0 0.2578125,0 0.3632813,0.011719 0.09375,0.011719 0.1992187,0.023437 0.2929687,0.035156 v -0.5742187 c -0.070312,-0.011719 -0.1640625,-0.023437 -0.2695312,-0.035156 -0.1054688,0 -0.234375,-0.011719 -0.3867188,-0.011719 -0.65625,0 -1.1367187,0.1640625 -1.4648437,0.4921875 -0.328125,0.328125 -0.4804688,0.8085937 -0.4804688,1.4296875 H 0.90099024 v 0.5742187 H 1.9322402 v 3.38671876 H 0.90099024 V 5.078125e-4 H 3.6197402 V -0.57371094 H 2.600209 V -3.9604297 Z m 0,0" style="fill:#000;fill-opacity:1;fill-rule:nonzero;stroke:none" aria-label="f" transform="matrix(1.3333333,0,0,1.3333333,64.130711,137.52667)"/><path id="path21" d="M 3.0826099,1.8051953 3.4341724,1.3716016 C 3.1177662,1.1137891 2.8365162,0.83253906 2.6021412,0.52785156 c -0.234375,-0.328125 -0.4453125,-0.65625 -0.609375,-1.0078125 -0.1640625,-0.3515625 -0.2929688,-0.71484376 -0.375,-1.10156246 -0.09375,-0.3867188 -0.1289063,-0.7734375 -0.1289063,-1.171875 0,-0.3984375 0.035156,-0.7851563 0.1289063,-1.171875 0.082031,-0.3867188 0.2109375,-0.75 0.375,-1.1132813 0.1640625,-0.3515625 0.375,-0.6914062 0.609375,-0.9960937 0.2460937,-0.3164063 0.515625,-0.5859375 0.8320312,-0.8320313 L 3.0826099,-7.3119922 c -0.3515625,0.2695313 -0.65625,0.5859375 -0.9257812,0.9257813 -0.2695313,0.3515625 -0.4921875,0.7148437 -0.6796875,1.1015625 -0.1757813,0.3984375 -0.3164063,0.8085937 -0.421875,1.2304687 -0.09375,0.421875 -0.14062503,0.8554688 -0.14062503,1.3007813 0,0.4335937 0.046875,0.8671875 0.14062503,1.2890625 0.1054687,0.4335937 0.2460937,0.84374996 0.421875,1.23046871 0.1875,0.3984375 0.4101562,0.7734375 0.6796875,1.11328125 C 2.4263599,1.2309766 2.7310474,1.5356641 3.0826099,1.8051953 Z m 0,0" style="fill:#000;fill-opacity:1;fill-rule:nonzero;stroke:none" aria-label="(" transform="matrix(1.3333333,0,0,1.3333333,72.100791,137.52667)"/><path id="path22" d="m 4.4761437,-1.7455859 c 0,-0.1992188 -0.035156,-0.3867188 -0.09375,-0.5625 -0.058594,-0.1875 -0.1523438,-0.3398438 -0.2578125,-0.4921875 -0.1171875,-0.1523438 -0.2578125,-0.2695313 -0.421875,-0.3632813 -0.1757813,-0.09375 -0.3632813,-0.1523437 -0.5976563,-0.1875 0.3984375,-0.070312 0.703125,-0.2226562 0.9257813,-0.4570312 0.2109375,-0.234375 0.3164062,-0.5390625 0.3164062,-0.890625 0,-0.28125 -0.046875,-0.5273438 -0.140625,-0.75 -0.1054687,-0.2109375 -0.234375,-0.3867188 -0.4101562,-0.5390625 -0.1875,-0.1523438 -0.3867188,-0.2695313 -0.6210938,-0.3398438 -0.234375,-0.082031 -0.4921875,-0.1289062 -0.7617187,-0.1289062 -0.328125,0 -0.6328125,0.046875 -0.9023438,0.140625 -0.2578125,0.1054687 -0.4921875,0.234375 -0.67968748,0.421875 -0.19921875,0.1757812 -0.33984375,0.3984375 -0.45703125,0.65625 -0.10546875,0.2695312 -0.15234375,0.5625 -0.15234375,0.890625 h 0.62109375 c 0,-0.5273438 0.140625,-0.9140625 0.43359373,-1.171875 0.28125,-0.234375 0.6679688,-0.3632813 1.1367188,-0.3632813 0.375,0 0.6796875,0.1054688 0.9140625,0.3164063 0.2460937,0.2226562 0.3632812,0.5039062 0.3632812,0.8671875 0,0.2109375 -0.058594,0.3984375 -0.1523437,0.5390625 -0.1054688,0.140625 -0.234375,0.2578125 -0.3984375,0.3515625 -0.1640625,0.082031 -0.3398438,0.140625 -0.5507813,0.1757812 -0.2109375,0.035156 -0.421875,0.058594 -0.6445312,0.058594 v 0.5742187 c 0.3046875,0 0.5742187,0.011719 0.796875,0.046875 0.234375,0.035156 0.421875,0.09375 0.5742187,0.1757813 0.1640625,0.09375 0.28125,0.234375 0.3632813,0.3984375 0.082031,0.1523437 0.1289062,0.375 0.1289062,0.6328125 0,0.1875 -0.046875,0.3632812 -0.1171875,0.515625 -0.070312,0.1523437 -0.1757812,0.29296871 -0.2929687,0.41015621 -0.1289063,0.1171875 -0.28125,0.2109375 -0.4453125,0.26953125 -0.1757813,0.0585938 -0.3515625,0.09375 -0.5390625,0.09375 -0.4453125,0 -0.8203125,-0.1171875 -1.125,-0.375 C 0.98395617,-1.0776172 0.81989367,-1.4408984 0.77301867,-1.9330859 l -0.64453125,0.09375 c 0.0234375,0.3164062 0.10546875,0.5976562 0.234375,0.84374996 0.12890625,0.24609375 0.29296875,0.45703125 0.4921875,0.609375 0.19921878,0.1640625 0.43359378,0.29296875 0.70312498,0.375 0.2578125,0.08203125 0.5507813,0.12890625 0.8554688,0.12890625 0.2695312,0 0.5390625,-0.046875 0.7734375,-0.140625 0.2578125,-0.09375 0.46875,-0.22265625 0.6679687,-0.375 0.1757813,-0.1640625 0.3398438,-0.36328125 0.4453125,-0.59765625 C 4.4175499,-1.2182422 4.4761437,-1.4760547 4.4761437,-1.7455859 Z m 0,0" style="fill:teal;fill-opacity:1;fill-rule:nonzero;stroke:none" aria-label="3" transform="matrix(1.3333333,0,0,1.3333333,80.070871,137.52667)"/><path id="path23" d="m 3.6313962,-2.7416797 c 0,-0.4453125 -0.046875,-0.8789062 -0.140625,-1.3007812 -0.09375,-0.4335938 -0.234375,-0.84375 -0.4335938,-1.2421875 -0.1757812,-0.3867188 -0.3984375,-0.75 -0.6796875,-1.1015625 -0.2578125,-0.3398438 -0.5742187,-0.65625 -0.9140625,-0.9257813 l -0.3515625,0.4453125 c 0.3046875,0.2460938 0.5859375,0.515625 0.8203125,0.8320313 0.2460938,0.3046875 0.4453125,0.6445312 0.6210938,0.9960937 0.1640625,0.3632813 0.3046875,0.7265625 0.3867187,1.1132813 0.082031,0.3984375 0.1289063,0.7851562 0.1289063,1.1835937 0,0.3867188 -0.046875,0.7734375 -0.1289063,1.1601563 -0.082031,0.3867187 -0.2109375,0.74999996 -0.3867187,1.10156246 -0.1757813,0.36328125 -0.375,0.69140625 -0.6210938,1.0078125 C 1.6978024,0.84425781 1.4165524,1.1137891 1.1118649,1.3716016 L 1.4634274,1.8051953 C 1.8032712,1.5356641 2.1196774,1.2309766 2.3774899,0.87941406 2.6470212,0.53957031 2.8813962,0.16457031 3.0571774,-0.23386719 3.2563962,-0.62058594 3.3970212,-1.0307422 3.4907712,-1.4526172 c 0.09375,-0.421875 0.140625,-0.8554687 0.140625,-1.2890625 z m 0,0" style="fill:#000;fill-opacity:1;fill-rule:nonzero;stroke:none" aria-label=")" transform="matrix(1.3333333,0,0,1.3333333,88.040951,137.52667)"/><path id="path24" d="m 3.6333284,-2.7416797 c 0,-0.4453125 -0.046875,-0.8789062 -0.140625,-1.3007812 -0.09375,-0.4335938 -0.234375,-0.84375 -0.4335938,-1.2421875 -0.1757812,-0.3867188 -0.3984375,-0.75 -0.6796875,-1.1015625 -0.2578125,-0.3398438 -0.5742187,-0.65625 -0.9140625,-0.9257813 l -0.3515625,0.4453125 c 0.3046875,0.2460938 0.5859375,0.515625 0.8203125,0.8320313 0.2460938,0.3046875 0.4453125,0.6445312 0.6210938,0.9960937 0.1640625,0.3632813 0.3046875,0.7265625 0.3867187,1.1132813 0.082031,0.3984375 0.1289063,0.7851562 0.1289063,1.1835937 0,0.3867188 -0.046875,0.7734375 -0.1289063,1.1601563 -0.082031,0.3867187 -0.2109375,0.74999996 -0.3867187,1.10156246 -0.1757813,0.36328125 -0.375,0.69140625 -0.6210938,1.0078125 C 1.6997346,0.84425781 1.4184846,1.1137891 1.1137971,1.3716016 L 1.4653596,1.8051953 C 1.8052034,1.5356641 2.1216096,1.2309766 2.3794221,0.87941406 2.6489534,0.53957031 2.8833284,0.16457031 3.0591096,-0.23386719 3.2583284,-0.62058594 3.3989534,-1.0307422 3.4927034,-1.4526172 c 0.09375,-0.421875 0.140625,-0.8554687 0.140625,-1.2890625 z m 0,0" style="fill:#000;fill-opacity:1;fill-rule:nonzero;stroke:none" aria-label=")" transform="matrix(1.3333333,0,0,1.3333333,96.011031,137.52667)"/></g></svg>