<svg xmlns="http://www.w3.org/2000/svg" xmlns:svg="http://www.w3.org/2000/svg" id="svg1" width="188.976" height="188.976" version="1.1" viewBox="0 0 188.976 188.976"><g id="g1"><path id="path1" d="M 0.52590625,-7.7343047 4.7680937,1.0313203 5.4477812,0.72663281 1.1821562,-8.0624297 Z M 11.321805,-4.9335234 c 0,-1.2773438 -0.878907,-1.9335938 -2.5781253,-1.9335938 H 6.9975859 V 7.03125e-5 H 7.8530547 V -2.9413359 H 8.7788359 L 10.665555,7.03125e-5 h 1.03125 L 9.6577422,-3.0350859 c 0.9374998,-0.2460938 1.6640628,-0.8671875 1.6640628,-1.8984375 z m -0.914063,0 c 0,0.9492187 -0.5624998,1.3125 -1.5468748,1.3125 H 7.8530547 v -2.5429688 h 0.9960937 c 1.0546875,0 1.5585936,0.3515625 1.5585936,1.2304688 z m 3.375,-0.3164063 h -0.832031 v 3.8203125 c 0,0.97265626 0.503906,1.53515626 1.511719,1.53515626 0.621093,0 1.265625,-0.28125 1.6875,-0.80859375 L 16.22024,7.03125e-5 h 0.714844 V -5.2499297 h -0.832031 v 3.8671875 c -0.292969,0.44531251 -0.855469,0.83203126 -1.429688,0.83203126 -0.609375,0 -0.890625,-0.29296875 -0.890625,-0.97265626 z m 7.198242,-2.109375 h -2.449218 v 0.6679688 h 1.617187 v 5.3554687 c 0,0.90234376 0.621094,1.44140626 1.546875,1.44140626 0.539063,0 0.972656,-0.1171875 1.253906,-0.26953125 l -0.222656,-0.59765625 c -0.292969,0.10546875 -0.574219,0.17578125 -0.878906,0.17578125 -0.503906,0 -0.867188,-0.1875 -0.867188,-0.71484371 z m 4.59375,5.0273438 h 3.527344 c 0.01172,-0.1054688 0.02344,-0.2695313 0.02344,-0.4453125 0,-1.59375 -0.820313,-2.578125 -2.144532,-2.578125 -1.394531,0 -2.285156,1.1484375 -2.285156,2.7304687 0,1.64062501 0.867188,2.73046876 2.402344,2.73046876 0.644531,0 1.300781,-0.22265625 1.792969,-0.609375 L 28.504422,-1.0546172 c -0.46875,0.30468751 -0.867188,0.46875001 -1.40625,0.46875001 -0.808594,0 -1.488281,-0.52734371 -1.523438,-1.74609371 z m 1.417969,-2.34375 c 0.796875,0 1.289063,0.5859375 1.3125,1.7109375 h -2.730469 c 0.07031,-1.1601563 0.632813,-1.7109375 1.417969,-1.7109375 z m 7.382813,-3.65625 c -1.113282,0 -2.144532,0.3398437 -2.015625,1.5585937 l 0.210937,1.9101563 c 0.07031,0.6796875 -0.175781,1.0429687 -1.523437,1.0429687 v 0.6679688 c 1.347656,0 1.59375,0.375 1.523437,1.0546875 l -0.210937,1.89843746 C 32.230984,1.0196016 33.262234,1.3594453 34.375516,1.3594453 V 0.69147656 c -0.726563,0 -1.300782,-0.17578125 -1.242188,-0.796875 l 0.199219,-2.05078126 c 0.09375,-0.8671875 -0.222656,-1.1953125 -0.925781,-1.3359375 0.691406,-0.1289062 1.019531,-0.4921875 0.925781,-1.3242187 l -0.199219,-2.0507813 c -0.05859,-0.609375 0.515625,-0.796875 1.242188,-0.796875 z m 5.944336,2.9765625 c -0.527344,0 -0.867188,0.2695312 -1.160157,0.6914062 -0.152343,-0.5390625 -0.539062,-0.6914062 -0.9375,-0.6914062 -0.527343,0 -0.855468,0.3164062 -1.136718,0.7265625 l -0.05859,-0.6210938 h -0.65625 V 7.03125e-5 H 37.14407 V -4.0780547 c 0.28125,-0.4453125 0.585938,-0.6210937 0.914063,-0.6210937 0.375,0 0.410156,0.2695312 0.410156,0.9375 V 7.03125e-5 h 0.773438 V -4.0780547 c 0.292968,-0.4453125 0.597656,-0.6210937 0.914062,-0.6210937 0.386719,0 0.410156,0.2695312 0.410156,0.9375 V 7.03125e-5 h 0.773438 V -3.9022734 c 0,-1.2070313 -0.515625,-1.453125 -1.019531,-1.453125 z m 6.28125,4.2070312 v -2.5195312 c 0,-1.03125 -0.65625,-1.6875 -1.957032,-1.6875 -0.515625,0 -1.078125,0.09375 -1.722656,0.328125 l 0.222656,0.6328125 c 0.539063,-0.1875 1.019532,-0.2695313 1.371094,-0.2695313 0.773438,0 1.242188,0.28125 1.242188,1.0429688 v 0.4335937 h -0.773438 c -1.582031,0 -2.449219,0.609375 -2.449219,1.6875 0,0.97265626 0.632813,1.60546876 1.6875,1.60546876 0.679688,0 1.265625,-0.24609375 1.640625,-0.73828125 0.140625,0.48046875 0.515625,0.69140625 0.960938,0.75 l 0.210937,-0.59765625 c -0.304687,-0.0820313 -0.433593,-0.24609375 -0.433593,-0.66796876 z m -2.167969,0.63281251 c -0.691406,0 -1.007813,-0.33984375 -1.007813,-0.99609371 0,-0.6796875 0.421875,-1.1015625 1.570313,-1.1015625 h 0.761719 v 1.3476562 c -0.304688,0.46875001 -0.808594,0.75000001 -1.324219,0.75000001 z m 6.375,-7.18359371 c -0.363281,0 -0.597656,0.2460937 -0.597656,0.5859375 0,0.3398437 0.234375,0.5859375 0.597656,0.5859375 0.363281,0 0.621094,-0.2460938 0.621094,-0.5859375 0,-0.3398438 -0.257813,-0.5859375 -0.621094,-0.5859375 z m 0.667969,2.4492187 h -2.402344 v 0.6679688 h 1.570312 v 3.91406246 H 49.026883 V 7.03125e-5 h 3.925781 V -0.66789844 H 51.476102 Z M 54.795437,7.03125e-5 h 0.832032 V -3.8202422 c 0.28125,-0.4101562 0.808593,-0.8671875 1.429687,-0.8671875 0.785156,0 0.890625,0.421875 0.890625,1.5 V 7.03125e-5 h 0.84375 V -3.8085234 c 0,-0.9726563 -0.445312,-1.546875 -1.476562,-1.546875 -0.621094,0 -1.3125,0.3046875 -1.734375,0.84375 l -0.07031,-0.7382813 H 54.795437 Z M 61.264187,-8.3319609 v 0.6679687 c 0.726563,0 1.300782,0.1875 1.242188,0.796875 l -0.199219,2.0507813 c -0.09375,0.8320312 0.246094,1.1953125 1.03125,1.3359375 -0.808594,0.1289062 -1.125,0.4570312 -1.03125,1.3242187 l 0.199219,2.05078126 c 0.05859,0.62109375 -0.515625,0.796875 -1.242188,0.796875 V 1.3594453 c 1.113282,0 2.144532,-0.3398437 2.015625,-1.55859374 L 63.068875,-2.0975859 c -0.07031,-0.6796875 0.28125,-1.0546875 1.523438,-1.0546875 v -0.6679688 c -1.230469,0 -1.593751,-0.3632812 -1.523438,-1.0429687 l 0.210937,-1.9101563 c 0.128907,-1.21875 -0.902343,-1.5585937 -2.015625,-1.5585937 z m 8.976563,0 c -1.113281,0 -2.144531,0.3398437 -2.015625,1.5585937 l 0.210938,1.9101563 c 0.07031,0.6796875 -0.175782,1.0429687 -1.523438,1.0429687 v 0.6679688 c 1.347656,0 1.59375,0.375 1.523438,1.0546875 l -0.210938,1.89843746 C 68.096219,1.0196016 69.127469,1.3594453 70.24075,1.3594453 V 0.69147656 c -0.726562,0 -1.300781,-0.17578125 -1.242187,-0.796875 l 0.199218,-2.05078126 c 0.09375,-0.8671875 -0.222656,-1.1953125 -0.925781,-1.3359375 0.691406,-0.1289062 1.019531,-0.4921875 0.925781,-1.3242187 l -0.199218,-2.0507813 c -0.05859,-0.609375 0.515625,-0.796875 1.242187,-0.796875 z m 2.979492,0 v 0.6679687 c 0.726563,0 1.300781,0.1875 1.242188,0.796875 l -0.199219,2.0507813 c -0.09375,0.8320312 0.246094,1.1953125 1.03125,1.3359375 -0.808594,0.1289062 -1.125,0.4570312 -1.03125,1.3242187 l 0.199219,2.05078126 c 0.05859,0.62109375 -0.515625,0.796875 -1.242188,0.796875 V 1.3594453 c 1.113281,0 2.144531,-0.3398437 2.015625,-1.55859374 L 75.02493,-2.0975859 c -0.07031,-0.6796875 0.28125,-1.0546875 1.523437,-1.0546875 v -0.6679688 c -1.230469,0 -1.59375,-0.3632812 -1.523437,-1.0429687 l 0.210937,-1.9101563 c 0.128906,-1.21875 -0.902344,-1.5585937 -2.015625,-1.5585937 z M 16.442898,3.6240937 c -1.113281,0 -2.144531,0.3398438 -2.015625,1.5585938 l 0.210938,1.9101562 c 0.07031,0.6796875 -0.175781,1.0429688 -1.523438,1.0429688 v 0.6679687 c 1.347657,0 1.59375,0.375 1.523438,1.0546875 l -0.210938,1.8984373 c -0.128906,1.21875 0.902344,1.558594 2.015625,1.558594 v -0.667969 c -0.726562,0 -1.300781,-0.175781 -1.242187,-0.796875 L 15.39993,9.799875 C 15.49368,8.9326875 15.177273,8.6045625 14.474148,8.4639375 15.165555,8.3350312 15.49368,7.97175 15.39993,7.1397187 L 15.200711,5.0889375 c -0.05859,-0.609375 0.515625,-0.796875 1.242187,-0.796875 z m 5.976563,0 c -1.113281,0 -2.144531,0.3398438 -2.015625,1.5585938 l 0.210937,1.9101562 c 0.07031,0.6796875 -0.175781,1.0429688 -1.523437,1.0429688 v 0.6679687 c 1.347656,0 1.59375,0.375 1.523437,1.0546875 l -0.210937,1.8984373 c -0.128906,1.21875 0.902344,1.558594 2.015625,1.558594 v -0.667969 c -0.726563,0 -1.300781,-0.175781 -1.242188,-0.796875 L 21.376492,9.799875 C 21.470242,8.9326875 21.153836,8.6045625 20.450711,8.4639375 21.142117,8.3350312 21.470242,7.97175 21.376492,7.1397187 L 21.177273,5.0889375 c -0.05859,-0.609375 0.515625,-0.796875 1.242188,-0.796875 z m 2.018555,0.5976563 4.242187,8.765625 0.679688,-0.304688 -4.265625,-8.789062 z m 10.617187,7.464844 -0.328125,-0.5625 c -0.28125,0.140625 -0.621094,0.246093 -1.007812,0.246093 -0.714844,0 -1.007813,-0.316406 -1.007813,-0.890625 V 7.362375 h 1.722656 l 0.105469,-0.65625 H 32.711453 V 5.4170625 L 31.879422,5.5225312 V 6.706125 h -1.207031 v 0.65625 h 1.207031 v 3.128906 c 0,0.914063 0.632812,1.570313 1.757812,1.570313 0.503907,0 1.054688,-0.140625 1.417969,-0.375 z m 5.355469,-5.0859378 c -0.949219,0 -1.488281,0.4921875 -1.886719,1.3476563 L 38.359891,6.706125 h -1.453125 v 0.6445312 h 0.832031 v 3.9609378 h -0.832031 v 0.644531 h 2.730468 V 11.311594 H 38.570828 V 9.09675 c 0.339844,-1.1601563 0.914063,-1.734375 1.722656,-1.734375 h 0.05859 v 1.125 h 0.667969 l 0.128906,-1.78125 C 40.914578,6.6475312 40.691922,6.6006562 40.410672,6.6006562 Z m 3.260742,0.1054688 h -0.832031 v 3.820312 c 0,0.972657 0.503906,1.535157 1.511719,1.535157 0.621093,0 1.265625,-0.28125 1.6875,-0.808594 l 0.07031,0.703125 h 0.714844 v -5.25 h -0.832031 v 3.867187 c -0.292969,0.445313 -0.855469,0.832032 -1.429688,0.832032 -0.609375,0 -0.890625,-0.292969 -0.890625,-0.972657 z m 5.8125,2.9179687 h 3.527344 c 0.01172,-0.1054687 0.02344,-0.2695312 0.02344,-0.4453125 0,-1.59375 -0.820312,-2.578125 -2.144531,-2.578125 -1.394531,0 -2.285156,1.1484375 -2.285156,2.7304688 0,1.640625 0.867187,2.730469 2.402344,2.730469 0.644531,0 1.300781,-0.222657 1.792968,-0.609375 l -0.386718,-0.550782 c -0.46875,0.304688 -0.867188,0.46875 -1.40625,0.46875 -0.808594,0 -1.488282,-0.527343 -1.523438,-1.7460933 z m 1.417969,-2.34375 c 0.796875,0 1.289062,0.5859375 1.3125,1.7109375 h -2.730469 c 0.07031,-1.1601562 0.632813,-1.7109375 1.417969,-1.7109375 z m 4.385742,-3.65625 v 0.6679688 c 0.726562,0 1.300781,0.1875 1.242187,0.796875 l -0.199218,2.0507812 c -0.09375,0.8320313 0.246093,1.1953125 1.03125,1.3359375 -0.808594,0.1289063 -1.125,0.4570313 -1.03125,1.3242188 l 0.199218,2.050781 c 0.05859,0.621094 -0.515625,0.796875 -1.242187,0.796875 V 13.3155 c 1.113281,0 2.144531,-0.339844 2.015625,-1.558594 L 57.092312,9.8584687 C 57.022,9.1787812 57.373562,8.8037812 58.61575,8.8037812 V 8.1358125 c -1.230469,0 -1.59375,-0.3632813 -1.523438,-1.0429688 L 57.30325,5.1826875 c 0.128906,-1.21875 -0.902344,-1.5585938 -2.015625,-1.5585938 z m 5.976562,0 v 0.6679688 c 0.726563,0 1.300782,0.1875 1.242188,0.796875 l -0.199219,2.0507812 c -0.09375,0.8320313 0.246094,1.1953125 1.03125,1.3359375 -0.808594,0.1289063 -1.125,0.4570313 -1.03125,1.3242188 l 0.199219,2.050781 c 0.05859,0.621094 -0.515625,0.796875 -1.242188,0.796875 V 13.3155 c 1.113282,0 2.144532,-0.339844 2.015625,-1.558594 L 63.068875,9.8584687 c -0.07031,-0.6796875 0.28125,-1.0546875 1.523438,-1.0546875 V 8.1358125 c -1.230469,0 -1.593751,-0.3632813 -1.523438,-1.0429688 L 63.279812,5.1826875 C 63.408719,3.9639375 62.377469,3.6240937 61.264187,3.6240937 Z M 16.442898,15.577219 c -1.113281,0 -2.144531,0.339843 -2.015625,1.558593 l 0.210938,1.910157 c 0.07031,0.679687 -0.175781,1.042968 -1.523438,1.042968 v 0.667969 c 1.347657,0 1.59375,0.375 1.523438,1.054688 l -0.210938,1.898437 c -0.128906,1.21875 0.902344,1.558594 2.015625,1.558594 v -0.667969 c -0.726562,0 -1.300781,-0.175781 -1.242187,-0.796875 L 15.39993,21.753 c 0.09375,-0.867188 -0.222657,-1.195313 -0.925782,-1.335938 0.691407,-0.128906 1.019532,-0.492187 0.925782,-1.324218 l -0.199219,-2.050782 c -0.05859,-0.609375 0.515625,-0.796875 1.242187,-0.796875 z m 2.015625,0.597656 4.242188,8.765625 0.679687,-0.304688 -4.265625,-8.789062 z m 10.620118,7.464844 -0.328125,-0.5625 c -0.28125,0.140625 -0.621094,0.246093 -1.007813,0.246093 -0.714844,0 -1.007812,-0.316406 -1.007812,-0.890625 V 19.3155 h 1.722656 l 0.105469,-0.65625 h -1.828125 v -1.289063 l -0.832032,0.105469 v 1.183594 h -1.207031 v 0.65625 h 1.207031 v 3.128906 c 0,0.914063 0.632813,1.570313 1.757813,1.570313 0.503906,0 1.054687,-0.140625 1.417969,-0.375 z m 5.355468,-5.085938 c -0.949218,0 -1.488281,0.492188 -1.886718,1.347656 L 32.383328,18.65925 h -1.453125 v 0.644531 h 0.832031 v 3.960938 h -0.832031 v 0.644531 h 2.730469 V 23.264719 H 32.594266 V 21.049875 C 32.934109,19.889719 33.508328,19.3155 34.316922,19.3155 h 0.05859 v 1.125 h 0.667968 l 0.128907,-1.78125 c -0.234375,-0.05859 -0.457032,-0.105469 -0.738282,-0.105469 z m 3.257813,0.105469 h -0.832031 v 3.820312 c 0,0.972657 0.503906,1.535157 1.511718,1.535157 0.621094,0 1.265625,-0.28125 1.6875,-0.808594 l 0.07031,0.703125 h 0.714844 v -5.25 h -0.832032 v 3.867187 c -0.292968,0.445313 -0.855468,0.832032 -1.429687,0.832032 -0.609375,0 -0.890625,-0.292969 -0.890625,-0.972657 z m 5.81543,2.917969 h 3.527343 c 0.01172,-0.105469 0.02344,-0.269532 0.02344,-0.445313 0,-1.59375 -0.820313,-2.578125 -2.144531,-2.578125 -1.394532,0 -2.285157,1.148438 -2.285157,2.730469 0,1.640625 0.867188,2.730469 2.402344,2.730469 0.644531,0 1.300781,-0.222657 1.792969,-0.609375 l -0.386719,-0.550782 c -0.46875,0.304688 -0.867187,0.46875 -1.40625,0.46875 -0.808594,0 -1.488281,-0.527343 -1.523437,-1.746093 z m 1.417968,-2.34375 c 0.796875,0 1.289063,0.585937 1.3125,1.710937 h -2.730468 c 0.07031,-1.160156 0.632812,-1.710937 1.417968,-1.710937 z m 4.382813,-3.65625 v 0.667968 c 0.726562,0 1.300781,0.1875 1.242187,0.796875 l -0.199218,2.050782 c -0.09375,0.832031 0.246093,1.195312 1.03125,1.335937 -0.808594,0.128906 -1.125,0.457031 -1.03125,1.324219 l 0.199218,2.050781 c 0.05859,0.621094 -0.515625,0.796875 -1.242187,0.796875 v 0.667969 c 1.113281,0 2.144531,-0.339844 2.015625,-1.558594 L 51.11282,21.811594 c -0.07031,-0.679688 0.28125,-1.054688 1.523438,-1.054688 v -0.667969 c -1.230469,0 -1.59375,-0.363281 -1.523438,-1.042968 l 0.210938,-1.910157 c 0.128906,-1.21875 -0.902344,-1.558593 -2.015625,-1.558593 z M 16.442898,27.533273 c -1.113281,0 -2.144531,0.339844 -2.015625,1.558594 l 0.210938,1.910156 c 0.07031,0.679688 -0.175781,1.042969 -1.523438,1.042969 v 0.667969 c 1.347657,0 1.59375,0.375 1.523438,1.054687 l -0.210938,1.898438 c -0.128906,1.21875 0.902344,1.558594 2.015625,1.558594 v -0.667969 c -0.726562,0 -1.300781,-0.175781 -1.242187,-0.796875 l 0.199219,-2.050781 c 0.09375,-0.867188 -0.222657,-1.195313 -0.925782,-1.335938 0.691407,-0.128906 1.019532,-0.492187 0.925782,-1.324219 l -0.199219,-2.050781 c -0.05859,-0.609375 0.515625,-0.796875 1.242187,-0.796875 z m 6.515625,1.289063 -4.710937,6.890625 0.527344,0.351562 4.710937,-6.890625 z m -3.375,0.07031 c -0.925781,0 -1.464843,0.738282 -1.464843,1.605469 0,0.832031 0.539062,1.605469 1.464843,1.605469 0.9375,0 1.464844,-0.773438 1.464844,-1.605469 0,-0.867187 -0.527344,-1.605469 -1.464844,-1.605469 z m 0,0.597657 c 0.398438,0 0.691407,0.292968 0.691407,1.007812 0,0.703125 -0.292969,1.019531 -0.691407,1.019531 -0.410156,0 -0.691406,-0.386718 -0.691406,-1.019531 0,-0.679687 0.292969,-1.007812 0.691406,-1.007812 z m 2.695313,3.222656 c -0.925781,0 -1.464844,0.738281 -1.464844,1.59375 0,0.855469 0.539063,1.617187 1.464844,1.617187 0.9375,0 1.464844,-0.761718 1.464844,-1.617187 0,-0.855469 -0.527344,-1.59375 -1.464844,-1.59375 z m 0,0.597656 c 0.398437,0 0.679687,0.28125 0.679687,0.996094 0,0.726562 -0.28125,1.03125 -0.679687,1.03125 -0.410156,0 -0.703125,-0.375 -0.703125,-1.03125 0,-0.691406 0.304687,-0.996094 0.703125,-0.996094 z m 2.15918,6.776367 4.242187,8.765625 0.679688,-0.304687 -4.265625,-8.789063 z m 10.617187,7.464844 -0.328125,-0.5625 c -0.28125,0.140625 -0.621094,0.246094 -1.007812,0.246094 -0.714844,0 -1.007813,-0.316406 -1.007813,-0.890625 v -3.117188 h 1.722656 l 0.105469,-0.65625 h -1.828125 v -1.289062 l -0.832031,0.105469 v 1.183593 h -1.207031 v 0.65625 h 1.207031 v 3.128907 c 0,0.914062 0.632812,1.570312 1.757812,1.570312 0.503907,0 1.054688,-0.140625 1.417969,-0.375 z m 2.636719,-4.980469 h -0.832031 v 3.820313 c 0,0.972656 0.503906,1.535156 1.511718,1.535156 0.621094,0 1.265625,-0.28125 1.6875,-0.808594 l 0.07031,0.703125 h 0.714844 v -5.25 h -0.832032 v 3.867188 c -0.292968,0.445312 -0.855468,0.832031 -1.429687,0.832031 -0.609375,0 -0.890625,-0.292969 -0.890625,-0.972656 z m 7.50293,-0.105468 c -0.632813,0 -1.195313,0.304687 -1.570313,0.84375 l -0.07031,-0.738282 h -0.714844 v 7.359375 l 0.832031,-0.09375 V 47.32917 c 0.363281,0.398437 0.820313,0.597656 1.394531,0.597656 1.371094,0 2.027344,-1.136719 2.027344,-2.730469 0,-1.652343 -0.503906,-2.730468 -1.898437,-2.730468 z m -0.199219,0.667968 c 0.820312,0 1.195312,0.691407 1.195312,2.0625 0,1.394532 -0.445312,2.039063 -1.3125,2.039063 -0.492187,0 -0.925781,-0.246094 -1.207031,-0.65625 v -2.601563 c 0.292969,-0.421875 0.738281,-0.84375 1.324219,-0.84375 z m 5.871094,-2.671875 h -2.449219 v 0.667969 h 1.617187 v 5.355469 c 0,0.902344 0.621094,1.441406 1.546875,1.441406 0.539063,0 0.972657,-0.117187 1.253907,-0.269531 L 52.61282,47.059641 c -0.292968,0.105468 -0.574218,0.175781 -0.878906,0.175781 -0.503906,0 -0.867187,-0.1875 -0.867187,-0.714844 z m 4.59375,5.027344 h 3.527343 c 0.01172,-0.105469 0.02344,-0.269531 0.02344,-0.445312 0,-1.59375 -0.820313,-2.578125 -2.144531,-2.578125 -1.394532,0 -2.285157,1.148437 -2.285157,2.730468 0,1.640625 0.867188,2.730469 2.402344,2.730469 0.644531,0 1.300781,-0.222656 1.792969,-0.609375 L 58.390166,46.76667 c -0.46875,0.304687 -0.867187,0.46875 -1.40625,0.46875 -0.808594,0 -1.488281,-0.527344 -1.523437,-1.746094 z m 1.417968,-2.34375 c 0.796875,0 1.289063,0.585938 1.3125,1.710938 h -2.730468 c 0.07031,-1.160157 0.632812,-1.710938 1.417968,-1.710938 z m 7.385743,-3.65625 c -1.113282,0 -2.144532,0.339844 -2.015626,1.558594 l 0.210938,1.910156 c 0.07031,0.679688 -0.175781,1.042969 -1.523438,1.042969 v 0.667969 c 1.347657,0 1.59375,0.375 1.523438,1.054687 l -0.210938,1.898438 c -0.128906,1.21875 0.902344,1.558593 2.015626,1.558593 v -0.667968 c -0.726563,0 -1.300782,-0.175782 -1.242188,-0.796875 l 0.199219,-2.050782 c 0.09375,-0.867187 -0.222657,-1.195312 -0.925782,-1.335937 0.691407,-0.128906 1.019532,-0.492188 0.925782,-1.324219 L 63.022,40.954172 c -0.05859,-0.609375 0.515625,-0.796875 1.242188,-0.796875 z m 2.015625,0.597656 4.242187,8.765625 0.679688,-0.304687 -4.265625,-8.789063 z m 8.824218,7.125 c -0.902343,0 -1.558593,-0.585937 -1.558593,-1.992187 0,-1.382813 0.644531,-2.050781 1.546875,-2.050781 0.46875,0 0.914062,0.164062 1.359375,0.457031 l 0.410156,-0.550781 c -0.492188,-0.398438 -1.078125,-0.609375 -1.757813,-0.609375 -1.558593,0 -2.472656,1.183593 -2.472656,2.753906 0,1.640625 0.902344,2.707031 2.472656,2.707031 0.609375,0 1.3125,-0.234375 1.769532,-0.621094 l -0.398438,-0.550781 c -0.398437,0.269531 -0.84375,0.457031 -1.371094,0.457031 z m 7.092774,-7.722656 c -1.113282,0 -2.144532,0.339844 -2.015625,1.558594 l 0.210937,1.910156 c 0.07031,0.679688 -0.175781,1.042969 -1.523437,1.042969 v 0.667969 c 1.347656,0 1.59375,0.375 1.523437,1.054687 l -0.210937,1.898438 c -0.128907,1.21875 0.902343,1.558593 2.015625,1.558593 v -0.667968 c -0.726563,0 -1.300782,-0.175782 -1.242188,-0.796875 l 0.199219,-2.050782 c 0.09375,-0.867187 -0.222656,-1.195312 -0.925781,-1.335937 0.691406,-0.128906 1.019531,-0.492188 0.925781,-1.324219 L 80.954617,40.95417 c -0.05859,-0.609375 0.515625,-0.796875 1.242188,-0.796875 z m 4.476562,2.625 c -1.464844,0 -2.472656,1.042969 -2.472656,2.894531 0,1.863282 1.007812,2.917969 2.472656,2.917969 1.464844,0 2.472656,-1.054687 2.472656,-2.917969 0,-1.851562 -1.007812,-2.894531 -2.472656,-2.894531 z m 0,0.679688 c 0.84375,0 1.617188,0.585937 1.617188,2.214843 0,1.640625 -0.773438,2.25 -1.617188,2.25 -0.84375,0 -1.617187,-0.609375 -1.617187,-2.25 0,-1.628906 0.773437,-2.214843 1.617187,-2.214843 z m -0.02344,1.59375 c -0.351563,0 -0.621094,0.28125 -0.621094,0.621093 0,0.363282 0.269531,0.644532 0.621094,0.644532 0.375,0 0.644531,-0.28125 0.644531,-0.644532 0,-0.339843 -0.269531,-0.621093 -0.644531,-0.621093 z m 4.502929,-4.898438 v 0.667969 c 0.726563,0 1.300782,0.1875 1.242188,0.796875 l -0.199219,2.050781 c -0.09375,0.832031 0.246094,1.195313 1.03125,1.335938 -0.808594,0.128906 -1.125,0.457031 -1.03125,1.324218 l 0.199219,2.050782 c 0.05859,0.621093 -0.515625,0.796875 -1.242188,0.796875 v 0.667968 c 1.113282,0 2.144532,-0.339843 2.015625,-1.558593 l -0.210937,-1.898438 c -0.07031,-0.679687 0.28125,-1.054687 1.523437,-1.054687 v -0.667969 c -1.230468,0 -1.59375,-0.363281 -1.523437,-1.042969 l 0.210937,-1.910156 c 0.128907,-1.21875 -0.902343,-1.558594 -2.015625,-1.558594 z m 5.976563,0 v 0.667969 c 0.726562,0 1.300781,0.1875 1.242187,0.796875 l -0.199218,2.050781 c -0.09375,0.832031 0.246093,1.195313 1.03125,1.335938 -0.808594,0.128906 -1.125,0.457031 -1.03125,1.324218 l 0.199218,2.050782 c 0.05859,0.621093 -0.515625,0.796875 -1.242187,0.796875 v 0.667968 c 1.113281,0 2.144531,-0.339843 2.015625,-1.558593 l -0.210938,-1.898438 c -0.07031,-0.679687 0.28125,-1.054687 1.523444,-1.054687 v -0.667969 c -1.230475,0 -1.593756,-0.363281 -1.523444,-1.042969 L 99.145044,41.04792 C 99.27395,39.82917 98.2427,39.489326 97.129419,39.489326 Z m 9.515631,1.289063 -4.71094,6.890625 0.52734,0.351562 4.71094,-6.890625 z m -3.375,0.07031 c -0.92578,0 -1.46485,0.738281 -1.46485,1.605469 0,0.832031 0.53907,1.605469 1.46485,1.605469 0.9375,0 1.46484,-0.773438 1.46484,-1.605469 0,-0.867188 -0.52734,-1.605469 -1.46484,-1.605469 z m 0,0.597656 c 0.39843,0 0.6914,0.292969 0.6914,1.007813 0,0.703125 -0.29297,1.019531 -0.6914,1.019531 -0.41016,0 -0.69141,-0.386719 -0.69141,-1.019531 0,-0.679688 0.29297,-1.007813 0.69141,-1.007813 z m 2.69531,3.222657 c -0.92578,0 -1.46484,0.738281 -1.46484,1.59375 0,0.855468 0.53906,1.617187 1.46484,1.617187 0.9375,0 1.46484,-0.761719 1.46484,-1.617187 0,-0.855469 -0.52734,-1.59375 -1.46484,-1.59375 z m 0,0.597656 c 0.39844,0 0.67969,0.28125 0.67969,0.996094 0,0.726562 -0.28125,1.03125 -0.67969,1.03125 -0.41016,0 -0.70313,-0.375 -0.70313,-1.03125 0,-0.691407 0.30469,-0.996094 0.70313,-0.996094 z M 24.438013,52.043035 28.6802,60.80866 29.359888,60.503973 25.094263,51.71491 Z m 10.207031,6.585938 v -2.519532 c 0,-1.03125 -0.65625,-1.6875 -1.957031,-1.6875 -0.515625,0 -1.078125,0.09375 -1.722657,0.328125 l 0.222657,0.632813 c 0.539062,-0.1875 1.019531,-0.269531 1.371093,-0.269531 0.773438,0 1.242188,0.28125 1.242188,1.042968 v 0.433594 h -0.773438 c -1.582031,0 -2.449218,0.609375 -2.449218,1.6875 0,0.972656 0.632812,1.605469 1.6875,1.605469 0.679687,0 1.265625,-0.246094 1.640625,-0.738281 0.140625,0.480468 0.515625,0.691406 0.960937,0.75 l 0.210938,-0.597657 c -0.304688,-0.08203 -0.433594,-0.246093 -0.433594,-0.667968 z m -2.167969,0.632812 c -0.691406,0 -1.007812,-0.339844 -1.007812,-0.996094 0,-0.679687 0.421875,-1.101562 1.570312,-1.101562 h 0.761719 v 1.347656 c -0.304688,0.46875 -0.808594,0.75 -1.324219,0.75 z m 7.535156,-6.949219 v 2.730469 c -0.363281,-0.410156 -0.808593,-0.621094 -1.417968,-0.621094 -1.289063,0 -2.050782,1.160157 -2.050782,2.730469 0,1.640625 0.621094,2.730469 2.003907,2.730469 0.5625,0 1.089843,-0.246094 1.476562,-0.796875 l 0.08203,0.691406 h 0.738282 v -7.359375 z m -1.195312,2.777344 c 0.480469,0 0.902344,0.257813 1.195312,0.679688 v 2.613281 c -0.292968,0.433594 -0.703125,0.832031 -1.300781,0.832031 -0.820312,0 -1.265625,-0.691406 -1.265625,-2.0625 0,-1.382812 0.503906,-2.0625 1.371094,-2.0625 z m 7.174805,-2.777344 v 2.730469 c -0.363282,-0.410156 -0.808594,-0.621094 -1.417969,-0.621094 -1.289063,0 -2.050781,1.160157 -2.050781,2.730469 0,1.640625 0.621093,2.730469 2.003906,2.730469 0.5625,0 1.089844,-0.246094 1.476562,-0.796875 l 0.08203,0.691406 h 0.738281 v -7.359375 z m -1.195313,2.777344 c 0.480469,0 0.902344,0.257813 1.195313,0.679688 v 2.613281 c -0.292969,0.433594 -0.703125,0.832031 -1.300782,0.832031 -0.820312,0 -1.265625,-0.691406 -1.265625,-2.0625 0,-1.382812 0.503907,-2.0625 1.371094,-2.0625 z m 7.511719,-3.644531 c -1.113281,0 -2.144531,0.339844 -2.015625,1.558594 l 0.210937,1.910156 c 0.07031,0.679687 -0.175781,1.042969 -1.523437,1.042969 v 0.667968 c 1.347656,0 1.59375,0.375 1.523437,1.054688 l -0.210937,1.898437 c -0.128906,1.21875 0.902344,1.558594 2.015625,1.558594 V 60.46882 c -0.726563,0 -1.300781,-0.175781 -1.242188,-0.796875 l 0.199219,-2.050781 c 0.09375,-0.867187 -0.222656,-1.195312 -0.925781,-1.335937 0.691406,-0.128907 1.019531,-0.492188 0.925781,-1.324219 l -0.199219,-2.050781 c -0.05859,-0.609375 0.515625,-0.796875 1.242188,-0.796875 z m 2.015625,0.597656 4.242187,8.765625 0.679688,-0.304687 -4.265625,-8.789063 z m 9.541992,0.269531 c -1.078125,0 -1.910156,0.609375 -1.910156,1.582032 v 1.042968 h -1.242188 v 0.667969 h 1.242188 v 4.171875 h 0.84375 v -4.171875 h 1.6875 l 0.09375,-0.667969 h -1.78125 V 53.87116 c 0,-0.574219 0.375,-0.867187 1.101562,-0.867187 0.398438,0 0.785157,0.07031 1.125,0.222656 L 65.295438,52.59382 C 64.885281,52.429758 64.439969,52.31257 63.86575,52.31257 Z m 4.675781,6.890625 c -0.621093,0 -1.171875,-0.234375 -1.582031,-0.574218 l -0.46875,0.550781 c 0.445313,0.386719 1.089844,0.703125 2.050781,0.703125 1.113282,0 2.203125,-0.433594 2.203125,-1.558594 0,-0.972656 -0.679687,-1.335937 -1.699218,-1.617187 -1.066407,-0.28125 -1.394532,-0.445313 -1.394532,-0.925782 0,-0.398437 0.304688,-0.691406 1.136719,-0.691406 0.679688,0 1.125,0.210938 1.511719,0.480469 L 70.68606,54.99616 c -0.445313,-0.316406 -1.066407,-0.574219 -1.910157,-0.574219 -1.195312,0 -1.992187,0.550782 -1.992187,1.429688 0,0.914062 0.703125,1.242187 1.792969,1.511719 1.113281,0.28125 1.265625,0.527343 1.265625,0.996093 0,0.515625 -0.492188,0.84375 -1.300782,0.84375 z m 8.355469,0.304688 -0.328125,-0.5625 c -0.28125,0.140625 -0.621094,0.246094 -1.007812,0.246094 -0.714844,0 -1.007813,-0.316407 -1.007813,-0.890625 V 55.18366 h 1.722656 l 0.105469,-0.65625 H 74.55325 v -1.289062 l -0.832031,0.105468 v 1.183594 h -1.207031 v 0.65625 h 1.207031 v 3.128906 c 0,0.914063 0.632812,1.570313 1.757812,1.570313 0.503907,0 1.054688,-0.140625 1.417969,-0.375 z m 2.299805,-8.0625 v 0.667969 c 0.726562,0 1.300781,0.1875 1.242187,0.796875 l -0.199219,2.050781 c -0.09375,0.832031 0.246094,1.195312 1.03125,1.335937 -0.808593,0.128907 -1.125,0.457032 -1.03125,1.324219 l 0.199219,2.050781 c 0.05859,0.621094 -0.515625,0.796875 -1.242187,0.796875 v 0.667969 c 1.113281,0 2.144531,-0.339844 2.015625,-1.558594 L 81.001492,57.679758 C 80.93118,57.00007 81.282742,56.62507 82.52493,56.62507 v -0.667968 c -1.230469,0 -1.59375,-0.363282 -1.523438,-1.042969 l 0.210938,-1.910156 c 0.128906,-1.21875 -0.902344,-1.558594 -2.015625,-1.558594 z m 8.976562,0 c -1.113281,0 -2.144531,0.339844 -2.015625,1.558594 l 0.210938,1.910156 c 0.07031,0.679687 -0.175782,1.042969 -1.523438,1.042969 v 0.667968 c 1.347656,0 1.59375,0.375 1.523438,1.054688 l -0.210938,1.898437 c -0.128906,1.21875 0.902344,1.558594 2.015625,1.558594 V 60.46882 c -0.726562,0 -1.300781,-0.175781 -1.242187,-0.796875 l 0.199218,-2.050781 c 0.09375,-0.867187 -0.222656,-1.195312 -0.925781,-1.335937 0.691406,-0.128907 1.019531,-0.492188 0.925781,-1.324219 L 86.93118,52.910227 c -0.05859,-0.609375 0.515625,-0.796875 1.242187,-0.796875 z m 2.018555,0.597656 4.242187,8.765625 0.679688,-0.304687 -4.265625,-8.789063 z m 8.238281,7.160156 c -0.621094,0 -1.171875,-0.234375 -1.582031,-0.574218 l -0.46875,0.550781 c 0.445312,0.386719 1.089844,0.703125 2.050781,0.703125 1.113281,0 2.20313,-0.433594 2.20313,-1.558594 0,-0.972656 -0.679692,-1.335937 -1.699224,-1.617187 -1.066406,-0.28125 -1.394531,-0.445313 -1.394531,-0.925782 0,-0.398437 0.304688,-0.691406 1.136719,-0.691406 0.679687,0 1.125,0.210938 1.511726,0.480469 l 0.38671,-0.574219 c -0.44531,-0.316406 -1.066405,-0.574219 -1.910155,-0.574219 -1.195312,0 -1.992187,0.550782 -1.992187,1.429688 0,0.914062 0.703125,1.242187 1.792968,1.511719 1.113282,0.28125 1.265625,0.527343 1.265625,0.996093 0,0.515625 -0.492187,0.84375 -1.300781,0.84375 z m 4.1836,0.574219 h 0.83203 v -3.820312 c 0.28125,-0.410157 0.80859,-0.867188 1.42969,-0.867188 0.78515,0 0.89062,0.421875 0.89062,1.5 v 3.1875 h 0.84375 v -3.80859 c 0,-0.972656 -0.44531,-1.546875 -1.47656,-1.546875 -0.6211,0 -1.3125,0.304688 -1.73438,0.84375 l -0.0703,-0.738281 h -0.71484 z m 9.13183,-7.464844 v 2.730469 c -0.36328,-0.410156 -0.80859,-0.621094 -1.41797,-0.621094 -1.28906,0 -2.05078,1.160157 -2.05078,2.730469 0,1.640625 0.6211,2.730469 2.00391,2.730469 0.5625,0 1.08984,-0.246094 1.47656,-0.796875 l 0.082,0.691406 h 0.73828 v -7.359375 z m -1.19531,2.777344 c 0.48047,0 0.90234,0.257813 1.19531,0.679688 v 2.613281 c -0.29297,0.433594 -0.70312,0.832031 -1.30078,0.832031 -0.82031,0 -1.26562,-0.691406 -1.26562,-2.0625 0,-1.382812 0.5039,-2.0625 1.37109,-2.0625 z m 4.51172,-3.644531 v 0.667969 c 0.72656,0 1.30078,0.1875 1.24219,0.796875 l -0.19922,2.050781 c -0.0937,0.832031 0.24609,1.195312 1.03125,1.335937 -0.8086,0.128907 -1.125,0.457032 -1.03125,1.324219 l 0.19922,2.050781 c 0.0586,0.621094 -0.51563,0.796875 -1.24219,0.796875 v 0.667969 c 1.11328,0 2.14453,-0.339844 2.01562,-1.558594 l -0.21093,-1.898437 c -0.0703,-0.679688 0.28125,-1.054688 1.52343,-1.054688 v -0.667968 c -1.23046,0 -1.59375,-0.363282 -1.52343,-1.042969 l 0.21093,-1.910156 c 0.12891,-1.21875 -0.90234,-1.558594 -2.01562,-1.558594 z m 9.51562,1.289062 -4.71093,6.890625 0.52734,0.351563 4.71094,-6.890625 z m -3.375,0.07031 c -0.92578,0 -1.46484,0.738281 -1.46484,1.605469 0,0.832031 0.53906,1.605468 1.46484,1.605468 0.9375,0 1.46485,-0.773437 1.46485,-1.605468 0,-0.867188 -0.52735,-1.605469 -1.46485,-1.605469 z m 0,0.597656 c 0.39844,0 0.69141,0.292969 0.69141,1.007813 0,0.703125 -0.29297,1.019531 -0.69141,1.019531 -0.41015,0 -0.6914,-0.386719 -0.6914,-1.019531 0,-0.679688 0.29297,-1.007813 0.6914,-1.007813 z m 2.69532,3.222656 c -0.92578,0 -1.46485,0.738282 -1.46485,1.59375 0,0.855469 0.53907,1.617188 1.46485,1.617188 0.9375,0 1.46484,-0.761719 1.46484,-1.617188 0,-0.855468 -0.52734,-1.59375 -1.46484,-1.59375 z m 0,0.597657 c 0.39843,0 0.67968,0.28125 0.67968,0.996093 0,0.726563 -0.28125,1.03125 -0.67968,1.03125 -0.41016,0 -0.70313,-0.375 -0.70313,-1.03125 0,-0.691406 0.30469,-0.996093 0.70313,-0.996093 z m -99.459967,6.773437 4.242187,8.765625 0.679688,-0.304687 -4.265625,-8.789063 z m 7.113281,5.402344 h 3.527344 c 0.01172,-0.105469 0.02344,-0.269531 0.02344,-0.445313 0,-1.59375 -0.820312,-2.578125 -2.144531,-2.578125 -1.394531,0 -2.285156,1.148438 -2.285156,2.730469 0,1.640625 0.867187,2.730469 2.402343,2.730469 0.644532,0 1.300782,-0.222656 1.792969,-0.609375 l -0.386719,-0.550781 c -0.46875,0.304687 -0.867187,0.46875 -1.40625,0.46875 -0.808593,0 -1.488281,-0.527344 -1.523437,-1.746094 z m 1.417969,-2.34375 c 0.796875,0 1.289062,0.585937 1.3125,1.710937 h -2.730469 c 0.07031,-1.160156 0.632812,-1.710937 1.417969,-1.710937 z m 4.722656,0.117187 v -2.90625 l -0.832031,0.105469 v 7.359375 h 0.738281 l 0.05859,-0.550781 c 0.363281,0.457031 0.832031,0.65625 1.429687,0.65625 1.347656,0 2.074219,-1.136719 2.074219,-2.730469 0,-1.652344 -0.5625,-2.730469 -1.957031,-2.730469 -0.609375,0 -1.113282,0.28125 -1.511719,0.796875 z m 1.195312,3.996094 c -0.480468,0 -0.914062,-0.257812 -1.195312,-0.679687 v -2.601563 c 0.292969,-0.421875 0.738281,-0.84375 1.324219,-0.84375 0.808593,0 1.242187,0.691406 1.242187,2.0625 0,1.394531 -0.503906,2.0625 -1.371094,2.0625 z m 5.956055,-4.792969 c -1.476562,0 -2.273437,1.125 -2.273437,2.730469 0,1.664063 0.785156,2.730469 2.261718,2.730469 1.464844,0 2.261719,-1.125 2.261719,-2.730469 0,-1.664062 -0.773437,-2.730469 -2.25,-2.730469 z m 0,0.679688 c 0.890625,0 1.347656,0.65625 1.347656,2.050781 0,1.394531 -0.457031,2.050781 -1.359375,2.050781 -0.902343,0 -1.359375,-0.65625 -1.359375,-2.050781 0,-1.394531 0.46875,-2.050781 1.371094,-2.050781 z m 7.125,-2.789063 v 2.730469 C 51.605008,66.586008 51.159695,66.37507 50.55032,66.37507 c -1.289062,0 -2.050781,1.160157 -2.050781,2.730469 0,1.640625 0.621094,2.730469 2.003906,2.730469 0.5625,0 1.089844,-0.246094 1.476563,-0.796875 l 0.08203,0.691406 h 0.738281 v -7.359375 z m -1.195312,2.777344 c 0.480468,0 0.902343,0.257813 1.195312,0.679688 v 2.613281 c -0.292969,0.433594 -0.703125,0.832031 -1.300781,0.832031 -0.820313,0 -1.265625,-0.691406 -1.265625,-2.0625 0,-1.382812 0.503906,-2.0625 1.371094,-2.0625 z m 8.378906,-0.5625 H 58.284692 L 56.80813,71.09772 55.296411,66.480532 h -0.878906 l 1.816406,5.25 h 0.28125 c -0.269531,0.808594 -0.585937,1.253906 -1.664062,1.441406 l 0.117187,0.667969 c 1.394531,-0.152344 1.980469,-1.007812 2.355469,-2.074219 z m 5.112305,-3.082031 c -1.113282,0 -2.144532,0.339844 -2.015626,1.558594 l 0.210938,1.910156 c 0.07031,0.679687 -0.175781,1.042969 -1.523438,1.042969 v 0.667968 c 1.347657,0 1.59375,0.375 1.523438,1.054688 l -0.210938,1.898437 c -0.128906,1.21875 0.902344,1.558594 2.015626,1.558594 v -0.667969 c -0.726563,0 -1.300782,-0.175781 -1.242188,-0.796875 l 0.199219,-2.050781 c 0.09375,-0.867187 -0.222657,-1.195312 -0.925782,-1.335937 0.691407,-0.128907 1.019532,-0.492188 0.925782,-1.324219 L 63.022,64.863352 c -0.05859,-0.609375 0.515625,-0.796875 1.242188,-0.796875 z m 2.015625,0.597656 4.242187,8.765625 0.679688,-0.304687 -4.265625,-8.789063 z m 8.238281,7.160156 c -0.621094,0 -1.171875,-0.234375 -1.582031,-0.574218 l -0.46875,0.550781 c 0.445312,0.386719 1.089843,0.703125 2.050781,0.703125 1.113281,0 2.203125,-0.433594 2.203125,-1.558594 0,-0.972656 -0.679688,-1.335937 -1.699219,-1.617187 -1.066406,-0.28125 -1.394531,-0.445313 -1.394531,-0.925782 0,-0.398437 0.304687,-0.691406 1.136719,-0.691406 0.679687,0 1.125,0.210938 1.511718,0.480469 l 0.386719,-0.574219 c -0.445312,-0.316406 -1.066406,-0.574219 -1.910156,-0.574219 -1.195313,0 -1.992188,0.550782 -1.992188,1.429688 0,0.914062 0.703125,1.242187 1.792969,1.511719 1.113281,0.28125 1.265625,0.527343 1.265625,0.996093 0,0.515625 -0.492187,0.84375 -1.300781,0.84375 z m 4.186523,0.574219 h 0.832031 V 67.91022 c 0.28125,-0.410157 0.808594,-0.867188 1.429688,-0.867188 0.785156,0 0.890625,0.421875 0.890625,1.5 v 3.1875 h 0.84375 v -3.808594 c 0,-0.972656 -0.445313,-1.546875 -1.476563,-1.546875 -0.621093,0 -1.3125,0.304688 -1.734375,0.84375 l -0.07031,-0.738281 h -0.714844 z m 9.128906,-7.464844 v 2.730469 c -0.363278,-0.410149 -0.80859,-0.621087 -1.417965,-0.621087 -1.289063,0 -2.050782,1.160157 -2.050782,2.730469 0,1.640625 0.621094,2.730469 2.003907,2.730469 0.5625,0 1.089843,-0.246094 1.476562,-0.796875 l 0.08203,0.691406 h 0.738282 v -7.359375 z m -1.195312,2.777344 c 0.480469,0 0.902344,0.257813 1.195312,0.679688 v 2.613281 c -0.292968,0.433594 -0.703125,0.832031 -1.300781,0.832031 -0.820312,0 -1.265625,-0.691406 -1.265625,-2.0625 0,-1.382812 0.503906,-2.0625 1.371094,-2.0625 z m 5.206055,0.398438 c 0,0.445312 0.339843,0.808593 0.796875,0.808593 0.46875,0 0.808593,-0.363281 0.808593,-0.808593 0,-0.445313 -0.339843,-0.796875 -0.808593,-0.796875 -0.457032,0 -0.796875,0.351562 -0.796875,0.796875 z m 0,3.585937 c 0,0.46875 0.339843,0.808594 0.796875,0.808594 0.46875,0 0.808593,-0.339844 0.808593,-0.808594 0,-0.433594 -0.339843,-0.796875 -0.808593,-0.796875 -0.457032,0 -0.796875,0.363281 -0.796875,0.796875 z m 4.324218,-7.03125 4.242189,8.765625 0.67969,-0.304687 -4.265629,-8.789063 z m 9.996099,2.378906 c -0.94922,0 -1.48828,0.492188 -1.88672,1.347657 l -0.16406,-1.242188 h -1.45313 v 0.644531 h 0.83203 v 3.960938 h -0.83203 v 0.644531 h 2.73047 v -0.644531 h -1.06641 v -2.214844 c 0.33985,-1.160156 0.91407,-1.734375 1.72266,-1.734375 h 0.0586 v 1.125 h 0.66797 l 0.12891,-1.78125 c -0.23438,-0.05859 -0.45703,-0.105469 -0.73828,-0.105469 z m 3.09668,3.023438 h 3.52734 c 0.0117,-0.105469 0.0234,-0.269531 0.0234,-0.445313 0,-1.59375 -0.82031,-2.578125 -2.14453,-2.578125 -1.39453,0 -2.28516,1.148438 -2.28516,2.730469 0,1.640625 0.86719,2.730469 2.40235,2.730469 0.64453,0 1.30078,-0.222656 1.79296,-0.609375 l -0.38671,-0.550781 c -0.46875,0.304687 -0.86719,0.46875 -1.40625,0.46875 -0.8086,0 -1.48829,-0.527344 -1.52344,-1.746094 z m 1.41797,-2.34375 c 0.79687,0 1.28906,0.585937 1.3125,1.710937 h -2.73047 c 0.0703,-1.160156 0.63281,-1.710937 1.41797,-1.710937 z m 5.68359,4.101562 c -0.62109,0 -1.17187,-0.234375 -1.58203,-0.574218 l -0.46875,0.550781 c 0.44531,0.386719 1.08984,0.703125 2.05078,0.703125 1.11328,0 2.20313,-0.433594 2.20313,-1.558594 0,-0.972656 -0.67969,-1.335937 -1.69922,-1.617187 -1.06641,-0.28125 -1.39453,-0.445313 -1.39453,-0.925782 0,-0.398437 0.30468,-0.691406 1.13671,-0.691406 0.67969,0 1.125,0.210938 1.51172,0.480469 l 0.38672,-0.574219 c -0.44531,-0.316406 -1.0664,-0.574219 -1.91015,-0.574219 -1.19532,0 -1.99219,0.550782 -1.99219,1.429688 0,0.914062 0.70312,1.242187 1.79297,1.511719 1.11328,0.28125 1.26562,0.527343 1.26562,0.996093 0,0.515625 -0.49219,0.84375 -1.30078,0.84375 z m 4.67578,-7.757812 v 0.667969 c 0.72656,0 1.30078,0.1875 1.24219,0.796875 l -0.19922,2.050781 c -0.0937,0.832031 0.24609,1.195312 1.03125,1.335937 -0.80859,0.128907 -1.125,0.457032 -1.03125,1.324219 l 0.19922,2.050781 c 0.0586,0.621094 -0.51563,0.796875 -1.24219,0.796875 v 0.667969 c 1.11328,0 2.14453,-0.339844 2.01563,-1.558594 l -0.21094,-1.898437 c -0.0703,-0.679688 0.28125,-1.054688 1.52344,-1.054688 V 67.91022 c -1.23047,0 -1.59375,-0.363282 -1.52344,-1.042969 l 0.21094,-1.910156 c 0.1289,-1.21875 -0.90235,-1.558594 -2.01563,-1.558594 z m 9.51856,1.289062 -4.71094,6.890625 0.52734,0.351563 4.71094,-6.890625 z m -3.375,0.07031 c -0.92578,0 -1.46485,0.738281 -1.46485,1.605469 0,0.832031 0.53907,1.605468 1.46485,1.605468 0.9375,0 1.46484,-0.773437 1.46484,-1.605468 0,-0.867188 -0.52734,-1.605469 -1.46484,-1.605469 z m 0,0.597656 c 0.39843,0 0.6914,0.292969 0.6914,1.007813 0,0.703125 -0.29297,1.019531 -0.6914,1.019531 -0.41016,0 -0.69141,-0.386719 -0.69141,-1.019531 0,-0.679688 0.29297,-1.007813 0.69141,-1.007813 z m 2.69531,3.222656 c -0.92578,0 -1.46485,0.738282 -1.46485,1.59375 0,0.855469 0.53907,1.617188 1.46485,1.617188 0.9375,0 1.46484,-0.761719 1.46484,-1.617188 0,-0.855468 -0.52734,-1.59375 -1.46484,-1.59375 z m 0,0.597657 c 0.39844,0 0.67969,0.28125 0.67969,0.996093 0,0.726563 -0.28125,1.03125 -0.67969,1.03125 -0.41016,0 -0.70313,-0.375 -0.70313,-1.03125 0,-0.691406 0.30469,-0.996093 0.70313,-0.996093 z m -116.434575,6.17871 v 0.667969 c 0.726563,0 1.300782,0.1875 1.242188,0.796875 l -0.199219,2.050781 c -0.09375,0.832032 0.246094,1.195313 1.03125,1.335938 -0.808594,0.128906 -1.125,0.457031 -1.03125,1.324219 l 0.199219,2.050781 C 14.74368,84.202219 14.169461,84.378 13.442898,84.378 v 0.667969 c 1.113282,0 2.144532,-0.339844 2.015625,-1.558594 l -0.210937,-1.898438 c -0.07031,-0.679687 0.28125,-1.054687 1.523437,-1.054687 v -0.667969 c -1.230468,0 -1.59375,-0.363281 -1.523437,-1.042969 l 0.210937,-1.910156 c 0.128907,-1.21875 -0.902343,-1.558594 -2.015625,-1.558594 z m 0,0" style="fill:#000;fill-opacity:1;fill-rule:nonzero;stroke:none" aria-label="\Rule{main}{} {{\true}} {\true} {% \tuple{\c{0}}% \add{\fst}{\snd}% \ebody{\snd:\res}% }" transform="matrix(1.3333333,0,0,1.3333333,7.9706667,43.496)"/></g></svg>